<svg xmlns="http://www.w3.org/2000/svg" viewBox="0 0 800 340" font-family="monospace" font-size="12">
<rect width="800" height="340" fill="#1a1a2e"/>
<text x="400" y="24" fill="#e0e0e0" font-size="14" text-anchor="middle">Last 24 hours</text>
<line x1="70" y1="40" x2="70" y2="250" stroke="#444" stroke-width="1"/>
<line x1="70" y1="250" x2="780" y2="250" stroke="#444" stroke-width="1"/>
<line x1="70" y1="250" x2="780" y2="250" stroke="#333" stroke-width="1" stroke-dasharray="4"/>
<text x="65" y="250" fill="#888" text-anchor="end" dominant-baseline="middle">1ms</text>
<line x1="70" y1="198" x2="780" y2="198" stroke="#333" stroke-width="1" stroke-dasharray="4"/>
<text x="65" y="198" fill="#888" text-anchor="end" dominant-baseline="middle">10ms</text>
<line x1="70" y1="146" x2="780" y2="146" stroke="#333" stroke-width="1" stroke-dasharray="4"/>
<text x="65" y="146" fill="#888" text-anchor="end" dominant-baseline="middle">100ms</text>
<line x1="70" y1="94" x2="780" y2="94" stroke="#333" stroke-width="1" stroke-dasharray="4"/>
<text x="65" y="94" fill="#888" text-anchor="end" dominant-baseline="middle">1s</text>
<line x1="70" y1="42" x2="780" y2="42" stroke="#333" stroke-width="1" stroke-dasharray="4"/>
<text x="65" y="42" fill="#888" text-anchor="end" dominant-baseline="middle">10s</text>
<text x="70" y="270" fill="#888" text-anchor="middle">08:58</text>
<text x="212" y="270" fill="#888" text-anchor="middle">13:46</text>
<text x="354" y="270" fill="#888" text-anchor="middle">18:34</text>
<text x="496" y="270" fill="#888" text-anchor="middle">23:22</text>
<text x="638" y="270" fill="#888" text-anchor="middle">04:10</text>
<text x="780" y="270" fill="#888" text-anchor="middle">08:58</text>
<polyline points="70.6,147.2 73.1,150.1 75.6,139.6 78.1,152.7 80.6,140.1 83.1,137.3 85.6,134.9 88.1,40.0 90.5,133.2 93.0,134.4 95.5,141.2 98.0,140.8 100.5,148.0 103.0,135.9 105.4,145.4 107.9,137.8 110.4,149.5 112.9,137.8 115.4,155.9 117.9,152.4 120.4,138.2 122.9,138.2 125.4,137.4 127.9,138.7 130.4,131.0 132.9,128.9 135.3,140.4 137.8,138.7 140.3,131.3 142.8,135.4 145.3,138.4 147.8,154.2 150.3,132.9 152.7,136.8 155.3,124.8 157.8,140.4 158.2,153.9 160.2,132.1 163.0,149.8 165.2,129.6 167.7,139.6 170.2,139.2 172.8,136.2 175.1,153.0 177.6,139.1 180.2,130.4 182.6,137.3 185.1,137.6 187.6,141.7 190.1,138.1 192.6,138.6 195.1,128.7 197.6,148.0 200.1,133.8 202.6,142.1 205.1,132.9 207.6,136.4 210.0,133.3 212.5,142.3 215.0,133.8 217.5,138.9 220.0,133.2 222.5,110.5 225.0,136.8 227.5,109.7 230.0,131.7 232.4,138.6 235.0,111.5 237.5,132.6 239.9,133.7 242.7,132.7 244.9,153.3 247.4,142.1 250.0,133.1 252.4,154.6 254.8,140.1 257.4,131.2 259.9,132.3 262.3,89.3 265.1,147.2 267.3,137.6 269.8,132.1 272.3,130.3 274.8,134.2 277.3,133.8 279.8,157.0 282.3,129.2 284.8,132.1 287.5,146.1 289.7,151.8 292.2,135.6 294.7,149.5 297.5,135.8 299.7,150.1 301.9,142.1 302.2,149.5 304.6,142.1 307.2,134.5 309.6,133.7 312.1,153.6 314.6,148.2 317.1,151.5 319.6,152.1 322.1,132.7 324.6,145.0 327.1,134.5 329.6,134.4 332.0,137.1 334.6,136.5 337.0,155.2 339.8,140.6 342.0,141.9 344.5,136.8 347.0,152.4 349.5,139.2 352.0,135.5 354.5,146.1 357.0,151.8 359.4,149.3 361.9,145.6 364.4,137.1 366.9,140.8 369.4,137.1 371.9,151.2 374.4,135.2 376.9,136.4 379.4,140.3 381.9,136.7 384.4,141.0 386.8,135.5 389.3,139.4 391.8,135.4 394.4,138.6 395.2,158.2 396.9,128.9 399.6,153.9 401.8,138.9 404.3,151.8 406.8,140.3 409.2,136.4 411.8,102.2 414.3,127.3 416.8,150.9 419.2,132.7 421.7,148.0 424.2,135.4 426.7,152.4 429.2,134.8 431.7,128.5 434.2,135.1 436.6,131.3 439.1,141.0 441.6,138.4 444.1,138.4 446.6,136.8 449.1,137.0 451.6,134.9 454.1,133.6 456.5,139.9 459.0,133.8 461.8,152.1 464.0,135.4 466.5,129.5 469.0,131.4 471.5,139.7 474.0,134.2 476.5,146.8 478.9,135.2 481.5,122.4 481.8,145.0 483.9,148.2 486.4,135.6 488.9,133.8 491.4,134.5 493.9,140.1 496.4,133.7 498.8,140.3 501.3,145.6 503.8,141.3 506.3,148.2 508.8,136.7 511.3,126.1 513.7,139.9 516.3,135.5 518.7,147.0 521.2,136.4 523.7,136.8 526.5,139.7 528.7,138.2 531.2,131.8 533.7,147.2 536.1,136.5 538.6,134.7 541.4,153.0 543.7,135.4 546.1,145.0 548.6,137.6 551.1,138.9 553.6,138.2 556.0,151.5 558.5,153.3 561.0,140.4 563.5,134.2 566.0,143.5 568.5,129.0 571.0,137.4 573.5,135.5 575.9,138.1 578.4,141.0 580.9,139.2 583.4,138.4 585.9,149.3 588.4,133.6 590.9,136.7 593.4,139.2 595.9,135.6 598.4,127.8 600.8,144.5 603.3,133.4 605.8,135.9 608.3,150.1 610.9,133.4 613.3,135.1 615.7,141.2 618.3,133.7 620.7,134.4 623.2,131.6 625.7,130.9 628.2,152.4 630.7,140.6 633.2,124.1 635.7,139.4 638.2,141.2 640.7,137.0 643.1,133.1 645.6,145.4 648.1,132.4 650.9,142.1 653.1,153.3 655.6,153.6 658.1,139.2 660.6,128.4 663.1,129.5 665.5,152.1 668.0,148.2 670.5,146.3 673.0,132.3 675.5,133.3 678.0,159.8 680.4,159.8 683.0,131.7 685.5,142.3 687.9,148.2 690.4,131.8 692.9,132.7 695.4,152.7 697.5,134.8 697.9,134.4 700.4,121.5 702.9,144.5 705.4,130.3 707.8,137.0 710.3,134.1 712.9,133.1 715.3,137.4 717.8,128.6 720.3,126.4 722.8,134.2 725.3,134.0 727.7,135.9 730.2,153.3 732.7,137.8 735.2,138.1 737.7,146.1 740.2,156.3 742.7,133.7 745.2,129.0 747.7,130.5 750.1,140.6 752.6,135.8 755.1,141.0 757.7,135.5 760.1,137.1 762.6,151.2 765.1,138.4 767.6,137.0 770.1,140.3 772.5,139.2 775.1,140.3 777.5,140.6 780.0,147.2" fill="none" stroke="#4ecdc4" stroke-width="1.5" opacity="0.6"/>
<polyline points="70.6,144.3 73.1,136.4 75.6,120.6 78.1,141.3 80.6,144.5 83.1,129.5 85.6,122.5 88.1,123.9 90.5,122.7 93.0,121.1 95.5,120.9 98.0,119.8 100.5,141.3 103.0,131.4 105.4,136.4 107.9,129.7 110.4,137.9 112.9,131.6 115.4,144.7 117.9,144.5 120.4,123.0 122.9,122.3 125.4,131.0 127.9,120.4 130.4,124.8 132.9,124.6 135.3,142.1 137.8,125.2 140.3,129.5 142.8,124.0 145.3,122.1 147.8,140.8 150.3,125.6 152.7,131.4 155.3,119.6 157.8,120.6 158.2,142.3 160.2,125.0 163.0,142.7 165.2,120.9 167.7,128.1 170.2,121.3 172.8,131.4 175.1,122.6 177.6,142.5 180.2,125.8 182.6,144.3 185.1,122.4 187.6,134.2 190.1,135.8 192.6,125.9 195.1,126.1 197.6,143.1 200.1,122.9 202.6,145.8 205.1,123.5 207.6,120.6 210.0,119.4 212.5,128.1 215.0,124.9 217.5,129.7 220.0,119.3 222.5,122.4 225.0,134.4 227.5,121.8 230.0,125.3 232.4,131.7 235.0,105.5 237.5,125.5 239.9,118.8 242.7,123.8 244.9,145.4 247.4,120.6 250.0,125.8 252.4,144.5 254.8,131.4 257.4,121.5 259.9,124.3 262.3,134.2 265.1,140.4 267.3,120.6 269.8,122.5 272.3,124.9 274.8,108.6 277.3,121.8 279.8,143.3 282.3,124.7 284.8,124.6 287.5,139.9 289.7,143.3 292.2,131.4 294.7,143.3 297.5,113.2 299.7,141.5 301.9,135.2 302.2,143.1 304.6,141.2 307.2,119.8 309.6,144.7 312.1,142.3 314.6,142.9 317.1,140.8 319.6,134.9 322.1,120.2 324.6,141.5 327.1,123.6 329.6,122.4 332.0,140.8 334.6,122.6 337.0,143.3 339.8,145.6 342.0,145.2 344.5,128.2 347.0,143.3 349.5,128.7 352.0,120.4 354.5,140.3 357.0,144.1 359.4,141.3 361.9,134.5 364.4,130.7 366.9,131.6 369.4,142.9 371.9,134.7 374.4,130.4 376.9,127.8 379.4,132.2 381.9,122.4 384.4,142.7 386.8,127.3 389.3,131.0 391.8,122.2 394.4,122.8 395.2,143.9 396.9,119.3 399.6,144.1 401.8,120.9 404.3,141.3 406.8,142.7 409.2,130.9 411.8,134.9 414.3,126.0 416.8,145.6 419.2,125.6 421.7,140.8 424.2,131.7 426.7,143.9 429.2,126.0 431.7,120.3 434.2,119.5 436.6,125.8 439.1,141.9 441.6,142.1 444.1,140.6 446.6,122.1 449.1,145.0 451.6,132.7 454.1,123.2 456.5,124.4 459.0,122.0 461.8,143.7 464.0,132.4 466.5,127.4 469.0,119.5 471.5,143.5 474.0,126.3 476.5,144.5 478.9,132.8 481.5,119.8 481.8,144.3 483.9,139.7 486.4,143.9 488.9,123.1 491.4,122.5 493.9,130.5 496.4,122.7 498.8,145.4 501.3,130.5 503.8,132.4 506.3,139.6 508.8,130.2 511.3,120.1 513.7,144.5 516.3,121.6 518.7,135.4 521.2,132.3 523.7,130.9 526.5,120.8 528.7,129.3 531.2,118.2 533.7,138.9 536.1,128.0 538.6,123.7 541.4,135.2 543.7,123.7 546.1,133.8 548.6,120.1 551.1,123.8 553.6,134.7 556.0,145.6 558.5,143.5 561.0,144.1 563.5,122.9 566.0,134.1 568.5,127.8 571.0,135.1 573.5,122.7 575.9,130.4 578.4,134.0 580.9,120.6 583.4,141.5 585.9,133.3 588.4,121.5 590.9,119.9 593.4,144.1 595.9,122.2 598.4,122.9 600.8,141.9 603.3,123.4 605.8,103.4 608.3,140.3 610.9,120.6 613.3,121.0 615.7,145.2 618.3,120.3 620.7,129.3 623.2,118.2 625.7,117.3 628.2,135.2 630.7,143.5 633.2,122.6 635.7,120.7 638.2,142.5 640.7,127.0 643.1,121.9 645.6,136.5 648.1,124.9 650.9,143.7 653.1,143.9 655.6,144.3 658.1,134.1 660.6,123.0 663.1,120.6 665.5,139.6 668.0,102.7 670.5,136.4 673.0,122.2 675.5,122.8 678.0,144.5 680.4,145.0 683.0,120.4 685.5,132.6 687.9,144.5 690.4,125.6 692.9,119.3 695.4,140.8 697.5,129.1 697.9,119.5 700.4,122.7 702.9,144.3 705.4,112.1 707.8,144.3 710.3,122.6 712.9,121.4 715.3,123.0 717.8,127.8 720.3,122.5 722.8,120.1 725.3,119.1 727.7,130.3 730.2,141.2 732.7,131.7 735.2,121.2 737.7,143.7 740.2,144.3 742.7,122.7 745.2,125.6 747.7,120.3 750.1,136.7 752.6,130.1 755.1,120.3 757.7,129.3 760.1,130.1 762.6,141.7 765.1,121.2 767.6,128.4 770.1,121.2 772.5,134.8 775.1,120.6 777.5,146.1 780.0,142.1" fill="none" stroke="#ff6b6b" stroke-width="1.5" opacity="0.6"/>
<circle cx="660" cy="50" r="4" fill="#4ecdc4"/><text x="670" y="50" fill="#e0e0e0" dominant-baseline="middle">Hub API</text>
<circle cx="660" cy="68" r="4" fill="#ff6b6b"/><text x="670" y="68" fill="#e0e0e0" dominant-baseline="middle">Registry</text>
<line x1="656" y1="82" x2="664" y2="82" stroke="#e0e0e0" stroke-width="1.5" stroke-dasharray="4,3" opacity="0.7"/><text x="670" y="86" fill="#e0e0e0" dominant-baseline="middle">Timeout</text>
<text x="70" y="288" fill="#4ecdc4" font-size="11">min: 54ms  max: 10777ms  avg: 185ms  timeouts: 0</text>
<text x="70" y="304" fill="#ff6b6b" font-size="11">min: 99ms  max: 673ms  avg: 214ms  timeouts: 0</text>
</svg>
