<svg xmlns="http://www.w3.org/2000/svg" viewBox="0 0 800 340" font-family="monospace" font-size="12">
<rect width="800" height="340" fill="#1a1a2e"/>
<text x="400" y="24" fill="#e0e0e0" font-size="14" text-anchor="middle">Last 24 hours</text>
<line x1="70" y1="40" x2="70" y2="250" stroke="#444" stroke-width="1"/>
<line x1="70" y1="250" x2="780" y2="250" stroke="#444" stroke-width="1"/>
<line x1="70" y1="250" x2="780" y2="250" stroke="#333" stroke-width="1" stroke-dasharray="4"/>
<text x="65" y="250" fill="#888" text-anchor="end" dominant-baseline="middle">1ms</text>
<line x1="70" y1="178" x2="780" y2="178" stroke="#333" stroke-width="1" stroke-dasharray="4"/>
<text x="65" y="178" fill="#888" text-anchor="end" dominant-baseline="middle">10ms</text>
<line x1="70" y1="105" x2="780" y2="105" stroke="#333" stroke-width="1" stroke-dasharray="4"/>
<text x="65" y="105" fill="#888" text-anchor="end" dominant-baseline="middle">100ms</text>
<text x="70" y="270" fill="#888" text-anchor="middle">10:38</text>
<text x="212" y="270" fill="#888" text-anchor="middle">15:26</text>
<text x="354" y="270" fill="#888" text-anchor="middle">20:14</text>
<text x="496" y="270" fill="#888" text-anchor="middle">01:02</text>
<text x="638" y="270" fill="#888" text-anchor="middle">05:50</text>
<text x="780" y="270" fill="#888" text-anchor="middle">10:38</text>
<polyline points="70.2,93.7 72.7,88.2 75.1,81.9 77.7,77.9 80.1,93.9 82.6,108.7 85.1,95.5 87.6,97.6 90.1,87.6 92.6,114.8 95.3,116.6 97.2,100.5 97.5,97.9 100.0,103.6 102.5,89.7 105.0,113.6 107.5,96.4 110.0,89.5 112.5,97.4 115.0,90.2 117.4,101.8 119.9,116.1 122.4,102.4 124.9,88.0 127.4,99.9 129.8,97.9 132.3,96.4 134.9,87.3 137.4,97.9 139.8,112.0 142.3,94.6 144.8,97.9 147.2,108.3 149.8,94.1 152.3,90.4 192.3,100.5 230.4,92.0 232.8,114.4 235.4,92.9 237.8,96.4 240.4,82.7 242.8,95.7 245.3,114.0 247.8,110.1 250.3,88.9 252.7,100.7 255.3,95.7 257.7,87.6 260.2,85.1 262.7,99.1 265.2,104.5 267.7,99.4 270.2,74.9 272.7,88.0 275.2,87.1 277.6,87.4 280.2,95.5 282.6,87.8 285.1,85.4 287.6,85.6 290.1,81.3 292.5,89.5 295.1,94.8 297.5,89.1 300.0,89.7 302.5,85.1 305.0,89.5 307.5,97.9 309.9,92.2 312.5,93.5 315.0,114.0 317.5,86.4 319.9,97.4 322.4,110.5 324.9,95.5 327.4,88.0 330.0,96.7 332.4,77.6 334.1,97.9 334.9,75.9 337.3,99.9 339.8,113.6 342.3,90.0 344.8,95.7 347.3,116.1 349.8,86.4 352.3,86.4 354.8,99.4 357.2,101.8 359.7,92.9 362.2,96.2 364.7,93.5 367.1,106.0 369.6,97.4 372.2,85.4 374.6,111.6 377.1,85.6 379.6,93.7 382.1,96.0 384.6,92.9 387.0,121.4 389.5,89.8 392.1,84.2 394.5,94.8 397.1,86.7 398.6,86.7 399.5,85.7 402.0,89.8 404.5,85.2 407.0,97.6 409.4,110.9 411.9,94.6 414.4,116.6 416.9,97.6 419.4,82.5 421.9,95.7 424.4,80.3 426.8,91.2 429.3,98.1 431.8,98.4 434.3,107.7 436.8,96.4 439.3,87.6 441.8,107.3 444.2,95.3 447.0,125.3 449.2,114.8 451.8,88.7 454.2,91.6 454.9,107.7 456.7,95.7 459.2,126.5 461.7,95.7 464.2,96.2 466.6,84.7 469.1,85.2 471.6,95.5 474.1,109.0 476.6,108.7 479.1,106.3 481.5,113.6 484.0,112.4 486.5,100.5 489.0,108.3 491.5,91.4 494.0,89.1 496.5,85.6 499.0,95.5 501.5,86.1 504.2,95.7 506.4,96.9 508.9,98.6 511.4,93.9 513.9,93.1 515.6,90.6 516.4,99.1 518.8,88.7 521.3,70.6 523.8,87.4 526.3,95.7 528.9,76.6 531.3,84.6 533.7,91.6 536.2,111.2 538.8,87.4 541.2,104.1 543.7,94.6 546.2,114.8 548.7,83.8 551.1,95.5 553.6,94.6 556.1,95.5 558.6,85.6 561.1,91.4 563.6,125.9 566.1,108.3 568.9,103.8 571.1,110.1 573.6,85.1 576.0,85.7 578.6,83.9 581.0,96.9 583.6,70.0 586.3,94.1 588.5,87.8 591.0,82.1 593.4,100.2 595.9,99.4 598.4,85.2 600.9,95.0 603.5,85.6 605.9,94.6 608.4,86.9 610.8,113.2 613.4,84.9 616.0,40.0 618.4,97.1 620.8,124.7 623.3,90.6 625.8,96.9 628.2,87.6 630.7,93.7 633.2,98.1 635.7,97.1 638.2,86.6 640.7,85.1 643.2,93.5 645.7,98.9 648.4,110.1 650.6,101.3 653.1,99.9 655.6,94.6 658.1,96.4 660.6,110.5 663.1,118.4 665.5,116.6 668.1,87.3 670.6,97.6 673.0,116.6 674.9,87.4 675.5,92.0 678.0,109.0 680.6,96.2 683.0,95.5 685.5,85.2 688.0,96.9 690.4,111.2 692.9,86.9 695.4,92.2 697.9,98.9 700.4,89.5 702.9,99.1 705.4,88.0 707.9,95.0 710.3,111.6 712.8,94.1 715.3,94.4 717.8,89.8 720.3,75.7 722.8,96.2 725.3,92.4 727.8,93.7 730.2,101.5 732.7,107.3 735.2,96.9 737.7,90.0 740.2,88.9 742.7,85.9 745.1,115.7 747.6,102.1 750.1,115.3 752.6,105.4 755.1,98.1 757.6,91.6 760.1,95.3 762.6,109.4 765.1,107.7 767.5,91.2 770.0,101.0 772.5,98.4 775.0,90.0 777.5,97.6 780.0,98.4" fill="none" stroke="#4ecdc4" stroke-width="1.5" opacity="0.6"/>
<polyline points="70.2,70.3 72.7,78.5 75.1,102.7 77.7,62.2 80.1,73.5 82.6,88.3 85.1,85.6 87.6,103.0 90.1,77.9 92.6,91.4 95.3,105.1 97.2,103.6 97.5,83.8 100.0,88.0 102.5,78.4 105.0,91.2 107.5,70.2 110.0,71.3 112.5,70.3 115.0,71.2 117.4,101.5 119.9,91.0 122.4,93.7 124.9,73.2 127.4,102.4 129.8,103.3 132.3,106.3 134.9,78.0 137.4,70.6 139.8,97.4 142.3,86.4 144.8,70.6 147.2,99.9 149.8,94.6 152.3,73.5 192.3,84.1 230.4,73.0 232.8,104.8 235.4,103.3 237.8,82.1 240.4,68.5 242.8,101.8 245.3,103.8 247.8,103.6 250.3,74.3 252.7,104.8 255.3,70.4 257.7,79.0 260.2,71.5 262.7,101.3 265.2,91.0 267.7,93.1 270.2,73.0 272.7,66.0 275.2,72.9 277.6,77.9 280.2,70.8 282.6,75.6 285.1,69.4 287.6,79.8 290.1,68.9 292.5,81.1 295.1,71.3 297.5,84.1 300.0,70.3 302.5,77.6 305.0,88.3 307.5,103.3 309.9,84.4 312.5,85.9 315.0,88.7 317.5,69.4 319.9,100.5 322.4,93.3 324.9,70.3 327.4,76.6 330.0,71.2 332.4,74.9 334.1,69.2 334.9,74.1 337.3,103.0 339.8,103.8 342.3,86.2 344.8,94.1 347.3,92.2 349.8,84.4 352.3,83.8 354.8,91.8 357.2,87.3 359.7,70.4 362.2,81.9 364.7,72.5 367.1,94.4 369.6,98.4 372.2,75.4 374.6,102.1 377.1,70.0 379.6,85.1 382.1,70.7 384.6,74.0 387.0,103.8 389.5,88.3 392.1,68.5 394.5,83.1 397.1,72.9 398.6,75.9 399.5,80.1 402.0,72.9 404.5,62.6 407.0,92.6 409.4,104.5 411.9,99.1 414.4,100.2 416.9,85.2 419.4,79.8 421.9,102.4 424.4,78.2 426.8,82.8 429.3,101.5 431.8,101.5 434.3,101.3 436.8,86.4 439.3,68.2 441.8,99.1 444.2,104.5 447.0,104.1 449.2,104.1 451.8,86.4 454.2,70.5 454.9,104.5 456.7,91.8 459.2,103.0 461.7,74.0 464.2,71.2 466.6,81.2 469.1,78.7 471.6,70.6 474.1,97.6 476.6,98.6 479.1,99.9 481.5,104.8 484.0,102.1 486.5,104.5 489.0,104.1 491.5,71.2 494.0,65.9 496.5,68.0 499.0,87.6 501.5,78.0 504.2,100.2 506.4,89.8 508.9,92.4 511.4,69.5 513.9,83.3 515.6,86.7 516.4,103.3 518.8,87.1 521.3,75.7 523.8,69.6 526.3,86.4 528.9,57.1 531.3,73.7 533.7,85.7 536.2,101.5 538.8,69.5 541.2,102.1 543.7,84.2 546.2,103.0 548.7,77.0 551.1,81.9 553.6,92.6 556.1,90.4 558.6,78.2 561.1,71.2 563.6,101.3 566.1,101.3 568.9,102.1 571.1,103.6 573.6,77.0 576.0,64.6 578.6,76.7 581.0,87.4 583.6,51.6 586.3,85.2 588.5,78.8 591.0,70.2 593.4,103.3 595.9,104.5 598.4,80.2 600.9,83.8 603.5,71.2 605.9,69.9 608.4,73.6 610.8,99.1 613.4,69.3 616.0,58.1 618.4,70.6 620.8,104.1 623.3,84.2 625.8,84.6 628.2,72.2 630.7,83.5 633.2,80.2 635.7,91.8 638.2,79.8 640.7,73.0 643.2,68.0 645.7,91.6 648.4,103.3 650.6,103.3 653.1,83.1 655.6,100.5 658.1,104.5 660.6,99.7 663.1,106.0 665.5,103.8 668.1,88.3 670.6,85.7 673.0,99.9 674.9,71.5 675.5,86.2 678.0,93.9 680.6,71.5 683.0,69.7 685.5,68.6 688.0,71.1 690.4,103.6 692.9,73.0 695.4,73.7 697.9,70.7 700.4,73.6 702.9,101.8 705.4,76.9 707.9,102.1 710.3,98.9 712.8,101.0 715.3,83.3 717.8,73.6 720.3,74.0 722.8,70.2 725.3,70.4 727.8,84.4 730.2,85.7 732.7,92.6 735.2,103.0 737.7,70.6 740.2,77.8 742.7,74.4 745.1,106.0 747.6,84.4 750.1,100.5 752.6,90.8 755.1,87.3 757.6,89.1 760.1,67.0 762.6,91.0 765.1,92.2 767.5,69.4 770.0,86.6 772.5,85.4 775.0,68.7 777.5,86.7 780.0,102.1" fill="none" stroke="#ff6b6b" stroke-width="1.5" opacity="0.6"/>
<circle cx="660" cy="50" r="4" fill="#4ecdc4"/><text x="670" y="50" fill="#e0e0e0" dominant-baseline="middle">Hub API</text>
<circle cx="660" cy="68" r="4" fill="#ff6b6b"/><text x="670" y="68" fill="#e0e0e0" dominant-baseline="middle">Registry</text>
<line x1="656" y1="82" x2="664" y2="82" stroke="#e0e0e0" stroke-width="1.5" stroke-dasharray="4,3" opacity="0.7"/><text x="670" y="86" fill="#e0e0e0" dominant-baseline="middle">Timeout</text>
<text x="70" y="288" fill="#4ecdc4" font-size="11">min: 51ms  max: 802ms  avg: 143ms  timeouts: 0</text>
<text x="70" y="304" fill="#ff6b6b" font-size="11">min: 97ms  max: 555ms  avg: 206ms  timeouts: 0</text>
</svg>
