<svg xmlns="http://www.w3.org/2000/svg" viewBox="0 0 800 340" font-family="monospace" font-size="12">
<rect width="800" height="340" fill="#1a1a2e"/>
<text x="400" y="24" fill="#e0e0e0" font-size="14" text-anchor="middle">Last hour</text>
<line x1="70" y1="40" x2="70" y2="250" stroke="#444" stroke-width="1"/>
<line x1="70" y1="250" x2="780" y2="250" stroke="#444" stroke-width="1"/>
<line x1="70" y1="250" x2="780" y2="250" stroke="#333" stroke-width="1" stroke-dasharray="4"/>
<text x="65" y="250" fill="#888" text-anchor="end" dominant-baseline="middle">1ms</text>
<line x1="70" y1="170" x2="780" y2="170" stroke="#333" stroke-width="1" stroke-dasharray="4"/>
<text x="65" y="170" fill="#888" text-anchor="end" dominant-baseline="middle">10ms</text>
<line x1="70" y1="90" x2="780" y2="90" stroke="#333" stroke-width="1" stroke-dasharray="4"/>
<text x="65" y="90" fill="#888" text-anchor="end" dominant-baseline="middle">100ms</text>
<text x="70" y="270" fill="#888" text-anchor="middle">11:41</text>
<text x="212" y="270" fill="#888" text-anchor="middle">11:53</text>
<text x="354" y="270" fill="#888" text-anchor="middle">12:05</text>
<text x="496" y="270" fill="#888" text-anchor="middle">12:17</text>
<text x="638" y="270" fill="#888" text-anchor="middle">12:29</text>
<text x="780" y="270" fill="#888" text-anchor="middle">12:41</text>
<polyline points="123.0,75.7 182.6,103.5 241.5,97.8 301.3,84.4 375.3,72.8 421.6,79.6 481.6,52.7 540.3,79.4 600.1,80.4 660.0,90.3 720.0,71.5 779.6,70.5" fill="none" stroke="#4ecdc4" stroke-width="2" opacity="1"/>
<circle cx="123.0" cy="75.7" r="3" fill="#4ecdc4"/>
<circle cx="182.6" cy="103.5" r="3" fill="#4ecdc4"/>
<circle cx="241.5" cy="97.8" r="3" fill="#4ecdc4"/>
<circle cx="301.3" cy="84.4" r="3" fill="#4ecdc4"/>
<circle cx="375.3" cy="72.8" r="3" fill="#4ecdc4"/>
<circle cx="421.6" cy="79.6" r="3" fill="#4ecdc4"/>
<circle cx="481.6" cy="52.7" r="3" fill="#4ecdc4"/>
<circle cx="540.3" cy="79.4" r="3" fill="#4ecdc4"/>
<circle cx="600.1" cy="80.4" r="3" fill="#4ecdc4"/>
<circle cx="660.0" cy="90.3" r="3" fill="#4ecdc4"/>
<circle cx="720.0" cy="71.5" r="3" fill="#4ecdc4"/>
<circle cx="779.6" cy="70.5" r="3" fill="#4ecdc4"/>
<polyline points="123.0,40.0 182.6,89.2 241.5,82.1 301.3,73.4 375.3,50.3 421.6,52.4 481.6,48.9 540.3,83.5 600.1,89.9 660.0,85.6 720.0,54.5 779.6,53.1" fill="none" stroke="#ff6b6b" stroke-width="2" opacity="1"/>
<circle cx="123.0" cy="40.0" r="3" fill="#ff6b6b"/>
<circle cx="182.6" cy="89.2" r="3" fill="#ff6b6b"/>
<circle cx="241.5" cy="82.1" r="3" fill="#ff6b6b"/>
<circle cx="301.3" cy="73.4" r="3" fill="#ff6b6b"/>
<circle cx="375.3" cy="50.3" r="3" fill="#ff6b6b"/>
<circle cx="421.6" cy="52.4" r="3" fill="#ff6b6b"/>
<circle cx="481.6" cy="48.9" r="3" fill="#ff6b6b"/>
<circle cx="540.3" cy="83.5" r="3" fill="#ff6b6b"/>
<circle cx="600.1" cy="89.9" r="3" fill="#ff6b6b"/>
<circle cx="660.0" cy="85.6" r="3" fill="#ff6b6b"/>
<circle cx="720.0" cy="54.5" r="3" fill="#ff6b6b"/>
<circle cx="779.6" cy="53.1" r="3" fill="#ff6b6b"/>
<circle cx="660" cy="50" r="4" fill="#4ecdc4"/><text x="670" y="50" fill="#e0e0e0" dominant-baseline="middle">Hub API</text>
<circle cx="660" cy="68" r="4" fill="#ff6b6b"/><text x="670" y="68" fill="#e0e0e0" dominant-baseline="middle">Registry</text>
<line x1="656" y1="82" x2="664" y2="82" stroke="#e0e0e0" stroke-width="1.5" stroke-dasharray="4,3" opacity="0.7"/><text x="670" y="86" fill="#e0e0e0" dominant-baseline="middle">Timeout</text>
<text x="70" y="288" fill="#4ecdc4" font-size="11">min: 67ms  max: 288ms  avg: 141ms  timeouts: 0</text>
<text x="70" y="304" fill="#ff6b6b" font-size="11">min: 99ms  max: 415ms  avg: 217ms  timeouts: 0</text>
</svg>
