<svg xmlns="http://www.w3.org/2000/svg" viewBox="0 0 800 340" font-family="monospace" font-size="12">
<rect width="800" height="340" fill="#1a1a2e"/>
<text x="400" y="24" fill="#e0e0e0" font-size="14" text-anchor="middle">Last 30 days</text>
<line x1="70" y1="40" x2="70" y2="250" stroke="#444" stroke-width="1"/>
<line x1="70" y1="250" x2="780" y2="250" stroke="#444" stroke-width="1"/>
<line x1="70" y1="250" x2="780" y2="250" stroke="#333" stroke-width="1" stroke-dasharray="4"/>
<text x="65" y="250" fill="#888" text-anchor="end" dominant-baseline="middle">1ms</text>
<line x1="70" y1="201" x2="780" y2="201" stroke="#333" stroke-width="1" stroke-dasharray="4"/>
<text x="65" y="201" fill="#888" text-anchor="end" dominant-baseline="middle">10ms</text>
<line x1="70" y1="152" x2="780" y2="152" stroke="#333" stroke-width="1" stroke-dasharray="4"/>
<text x="65" y="152" fill="#888" text-anchor="end" dominant-baseline="middle">100ms</text>
<line x1="70" y1="103" x2="780" y2="103" stroke="#333" stroke-width="1" stroke-dasharray="4"/>
<text x="65" y="103" fill="#888" text-anchor="end" dominant-baseline="middle">1s</text>
<line x1="70" y1="54" x2="780" y2="54" stroke="#333" stroke-width="1" stroke-dasharray="4"/>
<text x="65" y="54" fill="#888" text-anchor="end" dominant-baseline="middle">10s</text>
<text x="70" y="270" fill="#888" text-anchor="middle">Aug 16</text>
<text x="212" y="270" fill="#888" text-anchor="middle">Aug 22</text>
<text x="354" y="270" fill="#888" text-anchor="middle">Aug 28</text>
<text x="496" y="270" fill="#888" text-anchor="middle">Sep 03</text>
<text x="638" y="270" fill="#888" text-anchor="middle">Sep 09</text>
<text x="780" y="270" fill="#888" text-anchor="middle">Sep 15</text>
<polyline points="631.3,157.1 631.5,144.1 632.7,157.7 633.0,142.4 633.1,146.8 633.5,142.1 633.6,145.9 633.7,147.4 633.8,148.1 633.8,157.1 633.9,139.8 634.0,139.1 634.1,160.7 634.1,159.2 634.2,147.1 634.3,145.1 634.3,145.9 634.4,138.2 634.5,146.8 634.6,158.6 634.7,144.7 634.7,143.5 634.8,162.7 634.9,146.6 635.0,138.6 635.1,137.7 635.2,157.7 635.2,142.2 635.3,140.5 635.4,153.9 635.5,156.9 635.6,144.7 635.6,145.1 635.7,144.7 635.7,141.4 635.8,136.9 635.9,142.0 636.0,140.3 636.1,143.5 636.2,136.3 636.2,138.9 636.3,151.2 636.4,149.1 636.5,144.4 636.6,145.1 636.7,145.6 636.7,151.6 636.8,161.4 636.9,145.6 637.0,141.2 637.1,154.1 637.2,145.6 637.2,145.1 637.3,143.4 637.4,158.6 637.5,145.1 637.6,142.9 637.7,146.6 637.7,164.2 637.8,144.8 637.9,148.0 638.0,140.4 638.1,155.8 638.2,167.1 638.2,163.1 638.3,155.8 638.4,143.6 638.5,144.1 638.6,142.4 638.7,139.9 638.7,139.0 638.8,144.4 638.9,142.0 639.0,146.1 639.0,158.6 639.1,152.3 639.1,148.7 639.2,134.0 639.3,147.1 639.4,103.5 639.5,131.7 639.6,167.9 639.6,154.1 639.7,145.0 639.8,148.1 639.9,142.8 640.0,139.7 640.1,161.4 640.1,146.3 640.2,146.4 640.3,145.0 640.4,158.9 640.5,137.6 640.6,158.6 640.6,140.1 640.7,136.1 640.8,157.4 640.9,144.4 641.0,153.6 641.1,147.1 641.1,156.6 641.2,110.1 641.3,136.7 641.4,142.8 641.5,143.5 641.6,147.6 641.6,135.5 641.7,142.0 641.8,149.1 641.9,145.1 641.9,143.5 643.9,140.2 645.9,145.6 648.5,144.5 650.6,145.6 650.7,145.0 650.8,139.4 650.9,159.8 650.9,140.4 651.0,141.2 651.1,140.5 651.2,138.6 651.3,143.9 651.4,145.0 651.4,146.4 651.5,155.6 651.6,142.5 651.7,154.1 651.8,138.2 651.9,141.6 651.9,155.3 652.0,149.1 652.1,141.7 652.2,135.8 652.3,153.2 652.3,142.5 652.4,147.6 652.5,155.3 652.6,141.4 652.7,156.9 652.8,140.7 652.9,143.8 653.0,145.6 653.1,150.2 653.2,140.4 653.3,146.4 653.3,141.3 653.4,143.1 653.5,144.2 653.6,141.1 653.7,152.9 653.8,140.5 653.8,141.4 653.9,164.6 654.0,147.1 654.1,163.8 654.2,145.8 654.3,145.8 654.3,153.4 654.4,144.4 654.5,142.1 654.6,148.7 654.7,160.7 654.8,145.6 654.8,142.1 654.9,144.7 655.0,139.0 655.1,142.0 655.2,157.4 655.3,165.8 655.3,158.9 655.4,150.2 655.5,152.3 655.6,139.0 655.7,141.1 655.7,141.4 655.8,160.7 655.8,159.5 655.9,145.5 656.0,142.1 656.1,157.4 656.2,138.0 656.2,147.1 656.3,146.3 656.4,142.0 656.5,152.3 656.6,164.2 656.7,152.5 656.7,144.5 656.8,140.7 656.9,144.5 657.0,152.7 657.1,145.1 657.2,143.8 657.2,142.5 657.3,137.2 657.4,143.2 657.5,137.2 657.6,143.5 657.7,136.2 657.7,160.1 657.8,139.3 657.9,140.3 658.0,144.1 658.1,143.4 658.2,156.3 658.2,143.8 658.3,149.1 658.4,132.2 658.5,108.1 658.6,141.6 658.7,157.4 658.7,137.2 658.8,139.8 658.9,138.3 659.0,146.8 659.1,161.4 659.2,142.8 659.2,136.0 659.3,141.8 659.4,141.8 659.5,135.2 659.6,141.8 659.6,144.1 659.7,140.2 659.7,154.8 659.8,146.6 659.9,158.9 660.0,163.8 660.1,151.0 660.1,154.6 660.2,145.8 660.3,145.8 660.4,157.1 660.5,143.9 660.6,137.2 660.6,148.9 660.7,139.7 660.8,145.0 660.9,156.6 661.0,147.6 661.1,154.6 661.1,141.6 661.2,143.5 661.3,134.3 661.4,147.8 661.5,142.7 661.6,159.2 661.6,146.4 661.7,149.1 661.8,145.3 661.9,144.1 662.0,138.9 662.1,139.3 662.1,144.8 662.2,137.2 662.3,145.3 662.4,146.1 662.5,140.9 662.6,144.4 662.6,137.6 662.7,143.9 662.8,144.4 662.9,141.2 663.0,143.4 663.0,156.9 663.0,165.4 663.1,138.6 663.2,146.9 663.3,139.9 663.4,136.6 663.5,143.9 663.5,141.8 663.6,146.8 663.7,147.4 663.8,141.2 663.9,138.6 664.0,145.0 664.0,136.1 664.1,156.3 664.2,144.5 664.3,138.5 664.4,144.4 664.5,158.6 664.5,135.5 664.6,143.6 664.7,151.4 664.8,140.5 664.9,145.9 665.0,128.5 665.0,137.4 665.1,145.1 665.2,136.8 665.3,144.7 665.4,145.3 665.5,151.2 665.5,146.9 665.6,149.4 665.7,163.1 665.7,145.3 665.8,158.0 665.9,144.8 666.0,140.9 666.0,158.3 666.1,142.2 666.2,150.0 666.3,145.5 666.4,135.7 666.5,141.3 666.5,149.4 666.6,164.2 666.7,155.8 666.8,146.8 666.9,142.1 666.9,157.7 667.0,148.5 667.1,142.9 667.2,138.1 667.3,143.1 667.4,148.7 667.4,138.0 667.5,139.0 667.6,147.3 667.7,143.6 667.7,145.3 667.8,147.1 667.9,156.9 667.9,149.6 668.0,158.0 668.1,146.4 668.2,139.8 668.3,133.8 668.4,152.1 668.4,144.8 668.5,141.4 668.6,129.4 668.7,146.9 668.8,137.5 668.9,146.8 668.9,142.7 669.0,137.0 669.1,142.9 669.2,140.3 669.3,139.2 669.4,143.5 669.4,143.1 669.5,155.3 669.6,136.2 669.7,135.2 669.8,143.2 669.9,153.9 669.9,143.1 670.0,158.9 670.1,152.7 670.2,141.2 670.3,135.6 670.3,155.8 670.4,154.1 670.5,137.3 670.6,161.7 670.7,143.5 670.8,151.4 670.8,151.2 670.9,137.8 671.0,142.2 671.1,155.6 671.2,152.9 671.3,139.7 671.3,147.1 671.4,145.3 671.5,155.3 671.6,142.9 671.7,146.1 671.8,152.3 671.8,145.1 671.9,153.2 672.0,147.4 672.1,134.9 672.2,137.2 672.3,156.6 672.3,146.4 672.4,151.0 672.5,142.0 672.6,143.8 672.7,145.0 672.8,140.7 672.8,139.1 672.9,124.0 673.0,160.4 673.1,153.9 673.2,139.0 673.3,137.8 673.3,142.4 673.4,143.4 673.5,144.2 673.6,141.2 673.7,158.9 673.7,150.2 673.8,140.3 673.9,137.0 674.0,152.9 674.1,148.5 674.2,156.3 674.2,141.1 674.3,148.1 674.4,143.8 674.5,144.8 674.5,144.7 674.6,148.1 674.7,156.3 674.7,139.0 674.8,146.4 674.9,144.2 675.0,148.1 675.1,140.2 675.2,140.2 675.2,152.9 675.3,140.1 675.4,147.4 675.5,140.9 675.6,147.4 675.7,138.9 675.8,143.4 675.8,139.7 675.9,141.1 676.0,148.1 676.1,140.2 676.2,136.3 676.3,140.3 676.3,142.7 676.4,143.6 676.5,136.0 676.6,147.3 676.7,139.4 676.7,141.8 676.8,144.1 676.9,144.7 677.0,141.2 677.1,146.1 677.2,147.8 677.2,146.6 677.3,158.3 677.4,153.9 677.5,152.5 677.6,147.8 677.7,148.3 677.7,142.0 677.8,143.1 677.9,131.1 678.0,154.1 678.1,146.8 678.2,136.8 678.2,141.7 678.3,158.9 678.4,154.8 678.5,139.7 678.6,149.4 678.7,163.8 678.7,163.1 678.8,145.3 678.9,143.9 679.0,144.5 679.1,142.4 679.2,142.8 679.2,134.6 679.3,142.0 679.4,147.6 679.5,141.3 679.6,141.1 679.6,163.1 679.6,144.1 679.7,162.4 679.8,156.6 679.9,146.4 680.0,147.4 680.1,131.8 680.1,161.4 680.2,142.8 680.3,143.5 680.4,146.8 680.5,143.2 680.6,147.6 680.6,142.4 680.7,142.7 680.8,141.8 680.9,151.0 681.0,142.2 681.1,141.8 681.1,142.2 681.2,148.0 681.3,153.6 681.4,146.1 681.5,143.2 681.6,145.1 681.6,141.2 681.7,142.5 681.8,157.4 681.9,142.5 682.0,147.8 682.1,139.7 682.1,140.9 682.2,137.5 682.3,140.4 682.4,141.2 682.5,135.5 682.6,133.5 682.6,146.8 682.7,138.9 682.8,137.7 682.9,135.6 683.0,141.1 683.1,146.9 683.1,147.4 683.2,138.1 683.3,142.1 683.4,140.9 683.4,165.8 683.5,159.8 683.6,141.8 683.6,140.8 683.7,131.0 683.8,138.6 683.9,141.7 684.0,156.1 684.0,156.3 684.1,145.6 684.2,159.8 684.3,144.7 684.4,145.9 684.5,149.1 684.5,156.1 684.6,138.9 684.7,155.8 684.8,159.5 684.9,136.2 685.0,160.4 685.0,144.5 685.1,142.4 685.2,145.3 685.3,140.2 685.4,142.2 685.5,143.1 685.5,140.9 685.6,154.6 685.7,139.3 685.8,141.1 685.9,142.5 686.0,158.0 686.0,154.8 686.1,138.3 686.2,137.8 686.3,144.4 686.4,144.1 686.5,143.8 686.5,147.6 686.6,147.3 686.7,141.2 686.8,147.6 686.8,157.4 686.9,144.4 687.0,151.4 687.0,141.6 687.1,163.5 687.2,141.3 687.3,155.6 687.4,144.4 687.4,135.6 687.5,154.3 687.6,144.4 687.7,137.7 687.8,142.0 687.9,141.3 687.9,154.8 688.0,151.2 688.1,150.2 688.2,142.4 688.3,145.0 688.4,135.8 688.4,141.7 688.5,146.8 688.6,147.1 688.7,149.8 688.8,152.5 688.9,146.9 688.9,154.3 689.0,155.3 689.1,155.3 689.2,136.1 689.3,158.0 689.4,144.1 689.4,145.3 689.5,138.0 689.6,146.1 689.7,142.9 689.8,146.9 689.9,144.4 689.9,141.4 690.0,161.4 690.1,157.7 690.2,139.7 690.3,159.5 690.4,137.4 690.4,141.7 690.5,153.9 690.6,139.1 690.7,149.1 690.8,142.1 690.9,146.4 690.9,165.0 691.0,163.5 691.1,145.5 691.2,157.4 691.3,137.2 691.3,145.3 691.4,145.3 691.5,142.2 691.6,143.5 691.6,138.5 691.7,141.2 691.8,143.4 691.8,155.8 691.9,160.7 692.0,145.6 692.1,153.2 692.2,139.7 692.3,156.6 692.3,136.3 692.4,142.0 692.5,143.1 692.6,158.3 692.7,153.9 692.8,141.8 692.8,160.4 692.9,157.7 693.0,140.9 693.1,138.4 693.2,139.6 693.3,153.4 693.3,138.6 693.4,151.9 693.5,150.4 693.6,148.1 693.7,141.8 693.8,149.6 693.8,154.8 693.9,141.4 694.0,139.7 694.1,143.8 694.2,141.4 694.2,136.8 694.3,144.1 694.4,136.5 694.5,137.1 694.6,148.7 694.7,144.5 694.7,140.9 694.8,140.4 694.9,146.4 695.0,151.9 695.1,141.7 695.2,164.2 695.2,146.8 695.3,156.9 695.4,147.3 695.5,145.9 695.6,162.4 695.7,145.8 695.7,157.4 695.8,148.3 695.9,137.0 696.0,148.7 696.1,136.5 696.2,142.1 696.2,144.1 696.3,147.3 696.4,157.4 696.5,144.4 696.6,157.1 696.7,144.8 696.7,140.2 696.8,142.8 696.9,146.1 697.0,166.2 697.1,138.0 697.1,143.2 697.2,140.5 697.3,144.8 697.4,145.1 697.5,148.0 697.6,138.1 697.6,146.4 697.7,151.9 697.8,139.0 697.9,141.2 698.0,140.2 698.1,147.3 698.1,143.1 698.2,152.7 698.3,165.8 698.3,141.7 698.4,146.3 698.5,144.5 698.6,147.4 698.6,145.1 698.7,155.3 698.8,147.4 698.9,144.2 699.0,141.2 699.1,138.1 699.1,141.3 699.2,146.4 699.3,141.6 699.4,147.1 699.5,161.4 699.6,147.4 699.6,160.4 699.7,147.6 699.8,146.9 699.9,142.4 700.0,137.2 700.1,141.6 700.1,155.8 700.2,146.9 700.3,137.8 700.4,159.2 700.5,140.2 700.6,147.8 700.6,157.4 700.7,145.5 700.8,142.4 700.9,146.6 701.0,146.9 701.0,142.7 701.1,144.1 701.2,146.8 701.3,138.4 701.4,141.2 701.5,140.2 701.5,156.9 701.6,139.7 701.7,143.2 701.8,141.6 701.9,135.5 702.0,138.4 702.0,151.4 702.1,142.7 702.2,145.5 702.3,140.7 702.4,138.5 702.5,140.9 702.5,158.0 702.6,146.4 702.7,148.1 702.8,148.9 702.8,147.4 702.9,154.6 703.0,144.4 703.0,159.2 703.1,165.0 703.2,143.8 703.3,141.4 703.4,147.4 703.5,142.2 703.5,145.9 703.6,156.6 703.7,140.1 703.8,146.6 703.9,146.4 703.9,142.4 704.0,137.2 704.1,126.5 704.2,139.4 704.3,136.6 704.4,149.3 704.4,154.1 704.5,141.8 704.6,145.5 704.7,148.7 704.8,146.9 704.9,137.3 704.9,142.4 705.0,144.2 705.1,144.2 705.2,145.9 705.3,138.4 705.4,145.0 705.4,138.6 705.5,138.6 705.6,141.1 705.7,138.9 705.8,138.5 705.9,145.6 705.9,145.9 705.9,148.3 706.0,154.6 706.1,150.4 706.2,146.1 706.3,135.1 706.4,144.8 706.4,142.0 706.5,145.9 706.6,148.3 706.7,165.0 706.8,153.4 706.8,143.9 706.9,137.6 707.0,164.6 707.1,158.9 707.2,155.3 707.3,140.8 707.3,145.1 707.4,157.7 707.5,146.4 707.6,139.4 707.7,146.6 707.8,154.6 707.8,146.4 707.9,140.1 708.0,140.5 708.1,142.5 708.2,141.8 708.3,146.4 708.3,138.6 708.4,144.1 708.5,142.0 708.6,142.2 708.6,141.6 708.7,142.4 708.8,140.8 708.8,145.0 708.9,146.9 709.0,142.4 709.1,138.3 709.2,138.0 709.3,144.8 709.3,155.6 709.4,142.5 709.5,148.0 709.6,142.4 709.7,151.6 709.8,138.5 709.8,134.8 709.9,137.5 710.0,138.7 710.1,139.1 710.2,140.7 710.2,142.4 710.3,141.7 710.4,144.1 710.5,142.7 710.6,142.2 710.7,141.4 710.7,144.1 710.8,143.6 710.8,138.4 710.9,145.1 711.0,146.6 711.1,131.3 711.2,138.7 711.2,145.6 711.3,143.6 711.4,146.4 711.5,147.3 711.6,145.1 711.7,143.5 711.8,145.5 711.8,138.0 711.9,145.3 712.0,163.8 712.1,147.1 712.2,162.4 712.2,147.4 712.3,140.2 712.4,138.7 712.5,148.7 712.6,140.9 712.7,153.9 712.7,158.3 712.8,146.9 712.9,155.3 713.0,144.7 713.0,142.2 713.1,138.5 713.2,145.3 713.2,145.5 713.3,143.2 713.4,164.2 713.5,158.3 713.6,144.4 713.6,148.3 713.7,158.3 713.8,138.7 713.9,140.7 714.0,133.6 714.1,143.4 714.1,143.6 714.2,146.9 714.3,139.6 714.4,146.4 714.5,155.8 714.6,140.2 714.6,140.4 714.7,143.6 714.8,144.1 714.9,146.3 715.0,139.6 715.1,139.3 715.1,144.2 715.2,146.4 715.3,144.5 715.4,149.6 715.5,142.4 715.6,139.6 715.6,143.1 715.7,140.8 715.8,146.3 715.9,154.1 716.0,139.9 716.1,152.9 716.1,147.1 716.2,148.0 716.3,145.5 716.4,140.8 716.5,146.6 716.5,151.6 716.6,145.5 716.7,140.4 716.8,141.1 716.9,137.7 716.9,152.9 717.0,147.3 717.0,147.3 717.1,162.0 717.2,164.6 717.3,144.7 717.4,157.1 717.5,144.2 717.6,147.6 717.6,144.7 717.7,140.5 717.8,139.3 717.9,137.2 718.0,144.5 718.0,154.1 718.1,144.8 718.2,148.3 718.3,138.1 718.4,139.8 718.5,148.0 718.5,147.1 718.6,163.5 718.7,147.8 718.8,160.4 718.9,157.7 719.0,139.2 719.0,143.6 719.1,143.5 719.2,154.1 719.3,142.4 719.4,144.7 719.5,146.3 719.5,139.9 719.6,147.8 719.7,164.6 719.8,145.8 719.9,139.0 719.9,146.4 720.2,151.4 720.4,158.9 720.4,139.2 720.6,148.3 720.7,138.3 720.8,137.8 720.9,139.1 720.9,157.1 721.0,142.0 721.1,145.0 721.2,157.7 721.3,154.6 721.4,150.0 721.4,146.3 721.5,147.8 721.6,155.8 721.7,163.5 721.8,144.4 721.8,141.1 721.9,146.1 721.9,145.9 722.0,147.1 722.1,149.3 722.2,149.3 722.3,146.3 722.4,138.9 722.4,143.2 722.5,139.3 722.6,155.3 722.7,140.7 722.8,143.6 722.9,138.1 722.9,159.5 723.0,142.0 723.1,161.0 723.2,141.3 723.3,152.5 723.3,139.3 723.4,150.8 723.5,157.7 723.6,144.7 723.7,157.1 723.8,153.2 723.8,156.6 723.9,145.9 724.0,142.7 724.1,155.3 724.2,138.9 724.3,163.8 724.3,146.1 724.4,144.2 724.5,143.5 724.6,149.4 724.8,161.4 725.1,146.4 725.3,147.3 725.4,147.3 725.4,145.8 725.5,141.1 725.6,145.5 725.7,151.2 725.8,165.4 725.8,150.6 725.9,143.4 726.0,145.1 726.1,141.8 726.2,139.7 726.3,144.4 726.3,148.7 726.4,149.1 726.5,143.5 726.6,163.8 726.7,141.4 726.8,145.0 726.8,149.6 726.9,143.2 727.0,138.0 727.1,138.7 727.2,159.8 727.3,147.4 727.3,154.1 727.4,147.4 727.4,148.5 727.5,147.4 727.6,143.5 727.7,153.9 727.8,147.1 727.8,145.8 727.9,152.5 728.0,148.5 728.1,145.0 728.2,140.2 728.2,141.7 728.3,149.8 728.4,144.5 728.5,145.3 728.6,151.9 728.7,140.4 728.7,154.3 728.8,144.4 728.9,143.6 729.0,146.9 729.1,140.5 729.2,140.4 729.2,143.8 729.3,146.9 729.4,137.4 729.5,142.2 729.6,151.4 729.7,146.4 729.7,158.3 729.8,146.8 729.9,156.3 730.0,146.6 730.1,159.5 730.2,157.1 730.2,162.0 730.3,146.1 730.4,148.7 730.5,140.8 730.6,165.8 730.6,145.8 730.7,142.2 730.8,157.4 730.8,142.8 730.9,156.6 731.0,154.8 731.1,140.2 731.1,163.8 731.2,148.7 731.3,155.3 731.4,144.7 731.5,150.0 731.6,145.0 731.6,144.4 731.7,140.2 731.8,138.4 731.9,146.1 732.0,157.1 732.1,156.6 732.1,130.1 732.2,144.5 732.3,152.3 732.4,157.1 732.5,140.3 732.6,155.1 732.6,138.7 732.7,138.9 732.8,136.2 732.9,135.9 733.0,155.6 733.1,141.1 733.1,139.7 733.2,139.2 733.3,143.2 733.4,140.5 733.5,165.4 733.6,150.6 733.6,139.7 733.7,162.4 733.8,139.8 733.9,142.4 733.9,138.3 734.0,145.0 734.0,138.7 734.1,140.7 734.2,145.0 734.3,139.7 734.4,145.9 734.5,139.1 734.5,146.9 734.6,138.9 734.7,143.9 734.8,138.0 734.9,152.1 735.0,141.1 735.0,167.9 735.1,146.6 735.2,147.8 735.3,146.6 735.4,142.5 735.5,144.7 735.5,145.0 735.6,143.5 735.7,145.0 735.8,138.7 735.9,148.9 736.0,134.8 736.0,143.1 736.1,156.1 736.2,158.6 736.3,140.4 736.4,154.1 736.5,110.1 736.5,142.5 736.5,162.7 736.6,143.8 736.7,139.2 736.8,137.3 736.9,137.4 736.9,144.8 737.0,158.3 737.1,139.4 737.2,140.3 737.3,145.3 737.4,142.9 737.4,143.9 737.5,146.6 737.6,139.1 737.7,139.6 737.8,141.2 737.9,148.7 737.9,144.8 738.0,139.6 738.1,143.9 738.2,140.4 738.3,147.1 738.4,138.6 738.4,145.9 738.5,146.4 738.6,137.5 738.6,146.1 738.7,143.9 738.8,144.4 738.9,157.1 738.9,158.9 739.0,157.7 739.1,144.4 739.2,146.4 739.3,150.8 739.4,153.9 739.4,139.6 739.5,156.6 739.6,131.6 739.7,142.8 739.8,138.2 739.9,153.4 739.9,138.0 740.0,142.4 740.1,145.0 740.2,147.3 740.3,142.2 740.3,144.4 740.4,148.3 740.5,146.6 740.6,135.9 740.6,134.4 740.7,146.1 740.8,145.3 740.8,146.3 740.9,108.4 741.0,148.1 741.1,156.1 741.2,127.4 741.3,152.5 741.3,150.2 741.4,157.7 741.5,144.2 741.6,138.6 741.7,166.6 741.8,148.9 741.8,135.8 741.9,143.4 742.0,139.6 742.1,141.7 742.2,148.3 742.3,140.9 742.3,145.8 742.4,144.4 742.5,143.9 742.6,146.3 742.7,140.4 742.8,138.0 742.8,136.9 742.9,140.1 743.0,149.8 743.1,158.3 743.2,155.8 743.3,144.2 743.3,140.9 743.4,145.8 743.5,145.9 743.6,144.5 743.7,158.3 743.8,140.9 743.8,146.3 743.9,145.0 744.0,140.3 744.1,147.6 744.2,140.3 744.2,143.9 744.3,132.2 744.4,144.8 744.5,136.2 744.6,140.7 744.7,145.6 744.7,146.9 744.8,160.4 744.9,142.9 745.0,145.3 745.1,160.7 745.2,139.0 745.2,145.8 745.3,140.9 745.4,150.8 745.5,153.2 745.6,131.5 745.7,147.1 745.7,149.4 745.8,139.1 745.9,146.3 746.0,139.8 746.1,148.1 746.2,151.4 746.2,139.6 746.3,145.5 746.4,144.4 746.5,141.6 746.6,162.7 746.7,156.1 746.7,150.0 746.8,146.6 746.9,151.6 747.0,140.7 747.1,147.1 747.2,150.4 747.2,142.5 747.3,140.1 747.4,154.6 747.5,145.5 747.6,142.7 747.6,154.8 747.7,142.5 747.8,139.6 747.9,162.4 748.0,147.1 748.1,146.4 748.1,155.6 748.2,140.4 748.3,146.6 748.4,145.1 748.5,147.1 748.6,139.1 748.6,139.3 748.7,138.3 748.8,139.2 748.9,147.4 749.0,141.1 749.1,139.6 749.1,147.6 749.2,148.3 749.3,139.7 749.4,146.6 749.5,133.8 749.6,157.4 749.6,141.2 749.7,134.4 749.8,137.1 749.9,142.2 750.0,160.7 750.1,143.2 750.1,146.3 750.2,148.1 750.3,139.0 750.4,155.6 750.5,155.3 750.6,138.7 750.6,158.9 750.7,139.9 750.8,140.2 750.9,141.4 751.0,145.8 751.0,147.8 751.1,153.2" fill="none" stroke="#4ecdc4" stroke-width="1.5" opacity="0.6"/>
<polyline points="752.9,40.0 753.0,146.4 753.0,140.7 753.1,146.3 753.2,141.8 753.3,145.6 753.5,138.6 753.5,128.4 753.6,145.8 753.7,153.2 753.8,154.1 753.9,138.4 754.0,138.7 754.0,134.7 754.1,139.6 754.2,136.1 754.3,146.4 754.4,139.1 754.5,161.4 754.5,140.9 754.6,143.6 754.7,143.5 754.8,140.3 754.9,143.5 754.9,145.1 755.0,146.3 755.1,145.9 755.2,149.8 755.3,144.7 755.4,155.8 755.4,145.1 755.5,131.9 755.6,138.9 755.7,153.9 755.8,139.0 755.9,151.4 755.9,145.0 756.0,137.8 756.1,137.7 756.2,162.4 756.3,139.3 756.4,163.1 756.4,146.3 756.5,142.8 756.6,139.6 756.7,151.2 756.8,146.4 756.9,151.4 756.9,140.8 757.0,143.1 757.1,138.6 757.2,144.2 757.3,136.9 757.4,162.4 757.4,144.2 757.5,134.7 757.6,144.1 757.7,147.3 757.7,139.2 757.8,146.3 757.9,139.4 757.9,141.2 758.0,143.9 758.1,144.2 758.2,153.4 758.3,137.6 758.4,151.4 758.4,136.1 758.5,146.1 758.6,157.1 758.7,162.0 758.8,139.6 758.8,142.9 758.9,157.1 759.0,159.5 759.1,139.9 759.2,141.3 759.3,133.6 759.3,139.1 759.4,137.6 759.5,156.9 759.6,142.2 759.7,148.3 759.8,136.9 759.8,147.1 759.9,145.6 760.0,163.5 760.1,138.7 760.2,140.1 760.3,138.1 760.3,148.0 760.4,147.6 760.5,154.6 760.6,145.0 760.7,142.1 760.8,145.9 760.8,148.0 760.9,145.6 761.0,138.6 761.1,139.0 761.2,145.0 761.2,137.6 761.3,152.9 761.3,144.2 761.4,165.4 761.5,136.9 761.6,138.7 761.7,142.2 761.8,144.7 761.8,140.3 761.9,139.4 762.0,140.9 762.1,140.2 762.2,156.3 762.2,138.9 762.3,152.3 762.4,148.9 762.5,145.8 762.6,155.1 762.7,139.8 762.7,144.2 762.8,146.1 762.9,153.4 763.0,142.4 763.1,145.5 763.2,124.3 763.2,148.3 763.3,139.7 763.4,140.4 763.5,144.1 763.6,152.1 763.7,145.9 763.7,144.8 763.7,145.3 763.8,147.8 763.9,139.4 764.0,139.8 764.1,138.3 764.2,142.2 764.2,146.4 764.3,153.2 764.4,148.1 764.5,142.1 764.6,142.9 764.7,150.4 764.7,139.8 764.8,141.8 764.9,140.5 765.0,157.7 765.1,161.4 765.2,141.8 765.2,145.0 765.3,139.8 765.4,142.0 765.5,144.5 765.6,144.5 765.6,160.1 765.7,142.9 765.8,148.1 765.9,141.4 766.0,140.7 766.1,139.2 766.1,142.2 766.2,137.6 766.3,138.7 766.4,136.1 766.5,143.5 766.6,146.3 766.6,141.3 766.7,144.5 766.8,141.3 766.9,138.0 767.0,140.4 767.1,148.3 767.1,142.7 767.2,151.6 767.3,146.1 767.4,139.1 767.5,149.1 767.6,153.6 767.6,165.4 767.7,153.9 767.8,153.2 767.9,154.8 768.0,143.2 768.1,145.5 768.1,147.4 768.2,161.7 768.3,158.6 768.4,163.1 768.4,143.1 768.5,138.1 768.6,165.8 768.6,142.4 768.7,141.6 768.8,160.1 768.9,145.9 769.0,154.6 769.0,136.8 769.1,137.7 769.2,138.4 769.3,147.4 769.4,157.1 769.5,142.2 769.5,146.3 769.6,156.6 769.7,140.9 769.8,146.9 769.9,143.8 770.0,160.1 770.0,124.0 770.1,148.3 770.2,141.2 770.3,147.1 770.4,146.1 770.5,140.1 770.5,153.4 770.6,113.7 770.7,153.6 770.8,144.2 770.9,158.0 771.0,146.3 771.0,146.9 771.1,156.6 771.2,139.3 771.3,139.2 771.4,150.8 771.5,147.3 771.5,161.7 771.6,138.4 771.7,143.2 771.8,144.5 771.9,145.9 772.0,138.9 772.0,135.9 772.1,151.2 772.2,156.9 772.3,152.7 772.4,142.9 772.5,156.3 772.5,155.8 772.6,141.2 772.7,141.6 772.8,138.1 772.9,150.8 772.9,160.1 773.0,139.7 773.1,146.6 773.2,145.0 773.3,140.4 773.3,148.1 773.4,139.9 773.4,146.6 773.5,109.6 773.6,145.0 773.7,136.7 773.8,145.0 773.9,135.9 773.9,162.0 774.0,139.1 774.1,147.6 774.2,144.8 774.3,146.8 774.4,153.6 774.4,139.7 774.5,142.9 774.6,144.1 774.7,142.2 774.8,137.1 774.9,144.5 774.9,142.7 775.0,139.9 775.1,149.8 775.2,141.6 775.3,143.5 775.4,152.7 775.4,145.8 775.5,151.4 775.6,146.6 775.7,141.4 775.8,156.9 775.8,147.3 775.9,139.1 776.0,145.5 776.1,143.1 776.2,142.8 776.3,147.3 776.3,144.2 776.4,155.6 776.5,156.6 776.6,146.8 776.7,145.3 776.8,143.4 776.8,139.3 776.9,142.7 777.0,155.1 777.1,143.2 777.2,143.9 777.3,141.7 777.3,153.2 777.4,139.6 777.5,158.6 777.6,145.6 777.7,140.4 777.8,144.7 777.8,145.6 777.9,140.2 778.0,157.1 778.1,149.4 778.1,146.3 778.2,142.4 778.3,139.2 778.3,156.1 778.4,153.9 778.5,138.9 778.6,148.9 778.7,145.3 778.8,138.9 778.8,152.9 778.9,147.6 779.0,139.1 779.1,152.5 779.2,157.7 779.3,142.8 779.3,142.4 779.4,142.7 779.5,144.1 779.6,152.3 779.7,147.8 779.8,142.1 779.8,145.1 779.9,153.2 780.0,138.9" fill="none" stroke="#4ecdc4" stroke-width="1.5" opacity="0.6"/>
<polyline points="631.3,148.5 631.5,129.6 632.7,150.2 633.0,134.1 633.1,149.4 633.5,128.7 633.6,128.7 633.7,141.4 633.8,127.5 633.8,147.8 633.9,136.2 634.0,130.4 634.1,150.8 634.1,148.9 634.2,137.6 634.3,135.1 634.3,137.6 634.4,131.8 634.5,147.6 634.6,148.9 634.7,136.1 634.7,135.2 634.8,151.2 634.9,145.9 635.0,128.1 635.1,117.7 635.2,149.3 635.2,141.1 635.3,149.3 635.4,147.4 635.5,149.4 635.6,150.8 635.6,150.8 635.7,136.3 635.7,132.6 635.8,126.6 635.9,130.6 636.0,133.1 636.1,126.5 636.2,133.8 636.2,132.0 636.3,146.9 636.4,140.9 636.5,125.9 636.6,127.9 636.7,150.4 636.7,148.9 636.8,149.6 636.9,128.0 637.0,137.8 637.1,147.6 637.2,127.7 637.2,127.6 637.3,136.2 637.4,148.1 637.5,124.6 637.6,133.6 637.7,127.9 637.7,149.4 637.8,128.2 637.9,146.3 638.0,129.8 638.1,142.0 638.2,150.4 638.2,150.8 638.3,150.6 638.4,128.3 638.5,138.4 638.6,133.5 638.7,133.6 638.7,132.6 638.8,136.1 638.9,129.6 639.0,127.7 639.0,152.5 639.1,142.7 639.1,127.5 639.2,128.9 639.3,142.0 639.4,128.7 639.5,126.6 639.6,150.4 639.6,148.7 639.7,136.8 639.8,149.4 639.9,133.9 640.0,130.9 640.1,149.8 640.1,127.5 640.2,137.6 640.3,127.9 640.4,148.9 640.5,124.6 640.6,151.4 640.6,130.5 640.7,132.3 640.8,147.3 640.9,127.4 641.0,148.1 641.1,151.0 641.1,141.6 641.2,138.1 641.3,130.3 641.4,130.7 641.5,145.5 641.6,128.6 641.6,129.8 641.7,130.5 641.8,142.4 641.9,147.4 641.9,134.4 643.9,131.2 645.9,148.0 648.5,136.9 650.6,128.7 650.7,129.0 650.8,134.1 650.9,148.7 650.9,129.8 651.0,128.7 651.1,129.8 651.2,129.7 651.3,137.5 651.4,138.4 651.4,141.6 651.5,152.3 651.6,127.8 651.7,143.4 651.8,127.1 651.9,120.4 651.9,145.5 652.0,150.6 652.1,130.1 652.2,125.8 652.3,148.5 652.3,134.7 652.4,143.9 652.5,143.8 652.6,135.7 652.7,148.7 652.8,126.8 652.9,126.6 653.0,119.0 653.1,143.2 653.2,129.2 653.3,137.1 653.3,136.8 653.4,138.2 653.5,126.0 653.6,134.3 653.7,147.4 653.8,131.1 653.8,129.5 653.9,149.3 654.0,131.9 654.1,151.4 654.2,136.3 654.3,142.5 654.3,147.6 654.4,126.8 654.5,130.0 654.6,151.2 654.7,148.5 654.8,148.3 654.8,128.7 654.9,127.7 655.0,132.0 655.1,135.1 655.2,147.1 655.3,147.6 655.3,149.8 655.4,141.3 655.5,142.1 655.6,138.2 655.7,137.2 655.7,136.0 655.8,153.4 655.8,151.2 655.9,126.3 656.0,128.2 656.1,147.1 656.2,125.4 656.2,127.7 656.3,148.9 656.4,114.7 656.5,142.4 656.6,149.1 656.7,148.0 656.7,126.7 656.8,129.8 656.9,134.1 657.0,148.1 657.1,145.0 657.2,127.3 657.2,130.5 657.3,133.0 657.4,127.7 657.5,126.9 657.6,127.4 657.7,125.7 657.7,147.4 657.8,120.3 657.9,132.4 658.0,137.4 658.1,127.6 658.2,140.4 658.2,151.6 658.3,136.3 658.4,131.2 658.5,126.0 658.6,128.3 658.7,145.6 658.7,140.4 658.8,135.0 658.9,132.2 659.0,137.5 659.1,148.3 659.2,129.7 659.2,131.2 659.3,129.3 659.4,126.6 659.5,127.6 659.6,130.0 659.6,128.8 659.7,130.5 659.7,149.1 659.8,150.6 659.9,148.1 660.0,146.9 660.1,141.2 660.1,150.8 660.2,141.1 660.3,127.6 660.4,141.2 660.5,151.0 660.6,132.2 660.6,127.5 660.7,147.6 660.8,127.3 660.9,148.7 661.0,127.9 661.1,148.0 661.1,149.3 661.2,126.7 661.3,129.8 661.4,140.1 661.5,129.4 661.6,148.1 661.6,151.2 661.7,149.3 661.8,142.7 661.9,134.9 662.0,133.2 662.1,131.2 662.1,127.9 662.2,133.1 662.3,129.1 662.4,141.1 662.5,129.7 662.6,120.5 662.6,130.5 662.7,128.7 662.8,137.0 662.9,131.3 663.0,127.5 663.0,141.6 663.0,150.2 663.1,127.3 663.2,147.1 663.3,131.1 663.4,127.1 663.5,127.8 663.5,134.4 663.6,135.3 663.7,144.7 663.8,129.2 663.9,137.0 664.0,126.6 664.0,125.6 664.1,146.8 664.2,127.3 664.3,130.1 664.4,135.1 664.5,148.7 664.5,131.7 664.6,138.2 664.7,146.4 664.8,129.2 664.9,136.6 665.0,129.9 665.0,132.3 665.1,127.3 665.2,132.5 665.3,130.8 665.4,128.0 665.5,149.4 665.5,148.5 665.6,138.6 665.7,149.6 665.7,148.3 665.8,151.4 665.9,138.2 666.0,130.6 666.0,151.4 666.1,140.8 666.2,140.9 666.3,140.7 666.4,128.8 666.5,130.0 666.5,149.3 666.6,151.2 666.7,147.1 666.8,138.9 666.9,142.1 666.9,149.4 667.0,128.7 667.1,134.9 667.2,149.4 667.3,129.9 667.4,142.2 667.4,126.7 667.5,131.8 667.6,150.8 667.7,130.1 667.7,148.9 667.8,148.9 667.9,150.4 667.9,143.1 668.0,150.6 668.1,127.4 668.2,129.7 668.3,151.6 668.4,146.4 668.4,147.1 668.5,123.5 668.6,114.2 668.7,131.7 668.8,133.2 668.9,150.0 668.9,129.1 669.0,130.1 669.1,137.6 669.2,130.4 669.3,128.9 669.4,126.9 669.4,137.6 669.5,148.7 669.6,115.7 669.7,126.2 669.8,126.8 669.9,148.3 669.9,128.0 670.0,147.1 670.1,148.9 670.2,129.2 670.3,136.6 670.3,150.4 670.4,141.6 670.5,132.2 670.6,146.1 670.7,140.7 670.8,142.4 670.8,147.1 670.9,129.3 671.0,128.4 671.1,146.9 671.2,146.8 671.3,129.5 671.3,149.4 671.4,126.8 671.5,147.4 671.6,135.7 671.7,150.0 671.8,147.3 671.8,127.8 671.9,150.8 672.0,149.4 672.1,127.6 672.2,136.7 672.3,143.1 672.3,124.1 672.4,147.6 672.5,131.3 672.6,129.4 672.7,126.6 672.8,127.8 672.8,132.3 672.9,126.0 673.0,147.3 673.1,148.3 673.2,130.3 673.3,136.0 673.3,136.8 673.4,138.4 673.5,147.6 673.6,130.0 673.7,149.1 673.7,143.1 673.8,129.2 673.9,150.8 674.0,137.6 674.1,151.9 674.2,151.6 674.2,130.5 674.3,128.4 674.4,128.7 674.5,127.9 674.5,137.1 674.6,147.8 674.7,149.3 674.7,133.6 674.8,141.8 674.9,127.6 675.0,136.7 675.1,129.8 675.2,130.1 675.2,148.3 675.3,129.8 675.4,137.2 675.5,129.9 675.6,128.8 675.7,131.0 675.8,128.4 675.8,130.6 675.9,129.4 676.0,147.4 676.1,130.7 676.2,125.3 676.3,129.1 676.3,125.2 676.4,126.4 676.5,124.5 676.6,150.4 676.7,128.0 676.7,129.8 676.8,136.7 676.9,127.8 677.0,130.2 677.1,142.0 677.2,149.3 677.2,137.1 677.3,149.4 677.4,150.2 677.5,143.5 677.6,150.0 677.7,151.4 677.7,130.1 677.8,150.0 677.9,132.8 678.0,150.2 678.1,143.5 678.2,128.1 678.2,129.8 678.3,147.8 678.4,151.4 678.5,127.8 678.6,142.5 678.7,147.1 678.7,151.4 678.8,150.2 678.9,136.1 679.0,136.1 679.1,130.9 679.2,129.1 679.2,126.0 679.3,133.4 679.4,149.6 679.5,130.9 679.6,130.2 679.6,150.2 679.6,135.5 679.7,150.4 679.8,149.4 679.9,148.5 680.0,149.6 680.1,130.7 680.1,151.0 680.2,130.6 680.3,137.6 680.4,151.0 680.5,126.4 680.6,138.6 680.6,132.4 680.7,130.5 680.8,130.8 680.9,141.4 681.0,133.3 681.1,136.7 681.1,147.6 681.2,147.8 681.3,140.8 681.4,128.2 681.5,148.3 681.6,126.9 681.6,129.7 681.7,132.3 681.8,149.4 681.9,150.6 682.0,139.2 682.1,130.1 682.1,129.2 682.2,131.1 682.3,130.0 682.4,130.0 682.5,119.9 682.6,138.1 682.6,127.5 682.7,116.9 682.8,132.8 682.9,133.6 683.0,131.7 683.1,147.1 683.1,128.0 683.2,132.4 683.3,129.8 683.4,130.8 683.4,149.4 683.5,146.6 683.6,130.1 683.6,126.0 683.7,148.3 683.8,127.9 683.9,131.2 684.0,138.1 684.0,147.4 684.1,150.8 684.2,151.0 684.3,146.1 684.4,128.6 684.5,133.5 684.5,148.7 684.6,127.1 684.7,150.6 684.8,147.3 684.9,127.4 685.0,143.9 685.0,127.5 685.1,129.2 685.2,131.2 685.3,129.2 685.4,129.4 685.5,135.1 685.5,137.7 685.6,139.6 685.7,128.0 685.8,136.3 685.9,136.8 686.0,152.1 686.0,146.3 686.1,131.2 686.2,132.1 686.3,135.1 686.4,143.8 686.5,127.6 686.5,127.4 686.6,137.3 686.7,137.8 686.8,141.1 686.8,151.9 686.9,135.2 687.0,141.7 687.0,137.2 687.1,150.6 687.2,130.5 687.3,149.3 687.4,127.5 687.4,131.1 687.5,149.3 687.6,137.0 687.7,132.2 687.8,129.2 687.9,135.3 687.9,147.6 688.0,142.5 688.1,148.9 688.2,128.9 688.3,128.5 688.4,129.8 688.4,130.5 688.5,145.9 688.6,136.2 688.7,140.9 688.8,151.2 688.9,152.1 688.9,147.1 689.0,142.4 689.1,151.9 689.2,126.3 689.3,148.7 689.4,128.4 689.4,138.9 689.5,133.1 689.6,128.4 689.7,133.9 689.8,127.9 689.9,136.6 689.9,132.1 690.0,152.5 690.1,140.7 690.2,138.3 690.3,152.7 690.4,126.9 690.4,131.0 690.5,140.7 690.6,127.9 690.7,141.7 690.8,129.2 690.9,128.2 690.9,150.2 691.0,143.8 691.1,148.1 691.2,149.4 691.3,133.7 691.3,151.4 691.4,127.1 691.5,137.0 691.6,128.9 691.6,130.5 691.7,132.2 691.8,121.0 691.8,147.8 691.9,149.4 692.0,152.3 692.1,145.9 692.2,130.9 692.3,149.3 692.3,132.5 692.4,137.3 692.5,127.5 692.6,150.2 692.7,146.9 692.8,135.4 692.8,149.1 692.9,141.6 693.0,133.0 693.1,127.8 693.2,130.5 693.3,146.4 693.3,127.3 693.4,148.1 693.5,143.2 693.6,128.7 693.7,127.9 693.8,149.1 693.8,139.7 693.9,130.8 694.0,133.6 694.1,138.6 694.2,139.1 694.2,132.2 694.3,142.7 694.4,124.4 694.5,133.6 694.6,150.0 694.7,127.1 694.7,135.9 694.8,125.1 694.9,151.9 695.0,143.4 695.1,130.9 695.2,150.0 695.2,139.4 695.3,147.8 695.4,146.3 695.5,124.3 695.6,148.9 695.7,142.7 695.7,147.4 695.8,148.9 695.9,127.0 696.0,128.7 696.1,127.9 696.2,139.6 696.2,121.2 696.3,127.5 696.4,145.5 696.5,127.7 696.6,134.6 696.7,124.5 696.7,130.1 696.8,136.5 696.9,150.0 697.0,150.2 697.1,132.8 697.1,137.3 697.2,130.8 697.3,128.9 697.4,126.6 697.5,150.4 697.6,149.6 697.6,149.8 697.7,149.1 697.8,125.4 697.9,130.8 698.0,133.0 698.1,138.2 698.1,128.3 698.2,145.6 698.3,149.4 698.3,130.4 698.4,149.3 698.5,128.4 698.6,127.0 698.6,139.0 698.7,147.4 698.8,128.9 698.9,137.3 699.0,130.1 699.1,133.2 699.1,128.9 699.2,136.9 699.3,131.1 699.4,146.8 699.5,149.3 699.6,127.7 699.6,148.9 699.7,138.7 699.8,148.3 699.9,137.1 700.0,133.0 700.1,125.2 700.1,151.4 700.2,151.6 700.3,133.7 700.4,151.6 700.5,130.5 700.6,127.7 700.6,141.1 700.7,146.3 700.8,133.0 700.9,128.2 701.0,149.3 701.0,129.3 701.1,127.9 701.2,128.7 701.3,127.4 701.4,129.5 701.5,131.7 701.5,151.6 701.6,130.0 701.7,127.1 701.8,137.4 701.9,131.8 702.0,126.9 702.0,143.4 702.1,137.3 702.2,128.3 702.3,129.6 702.4,132.1 702.5,129.5 702.5,150.4 702.6,128.4 702.7,147.8 702.8,139.2 702.8,142.4 702.9,148.0 703.0,130.8 703.0,149.8 703.1,151.0 703.2,136.7 703.3,131.7 703.4,143.6 703.5,137.0 703.5,128.1 703.6,146.8 703.7,131.2 703.8,128.2 703.9,128.2 703.9,138.3 704.0,126.7 704.1,130.5 704.2,132.5 704.3,123.8 704.4,142.1 704.4,151.4 704.5,126.2 704.6,143.6 704.7,128.5 704.8,129.4 704.9,133.2 704.9,129.8 705.0,129.9 705.1,135.9 705.2,136.7 705.3,133.4 705.4,127.7 705.4,132.5 705.5,125.8 705.6,136.0 705.7,129.6 705.8,129.8 705.9,127.9 705.9,139.6 705.9,150.2 706.0,152.9 706.1,142.4 706.2,129.0 706.3,126.5 706.4,138.3 706.4,130.5 706.5,126.6 706.6,140.1 706.7,149.3 706.8,148.9 706.8,136.1 706.9,125.2 707.0,152.1 707.1,151.4 707.2,152.3 707.3,129.9 707.3,150.6 707.4,151.9 707.5,123.8 707.6,130.2 707.7,128.2 707.8,150.6 707.8,124.8 707.9,129.5 708.0,130.8 708.1,137.8 708.2,134.6 708.3,128.2 708.3,131.8 708.4,136.3 708.5,138.0 708.6,136.9 708.6,138.2 708.7,135.1 708.8,133.6 708.8,129.1 708.9,128.2 709.0,122.2 709.1,126.8 709.2,134.1 709.3,128.9 709.3,150.4 709.4,143.1 709.5,146.6 709.6,137.8 709.7,143.8 709.8,126.0 709.8,131.8 709.9,126.9 710.0,131.2 710.1,126.1 710.2,130.5 710.2,136.8 710.3,130.6 710.4,137.5 710.5,133.0 710.6,142.1 710.7,130.8 710.7,129.2 710.8,137.6 710.8,132.3 710.9,150.2 711.0,149.6 711.1,136.7 711.2,130.8 711.2,127.8 711.3,127.5 711.4,138.4 711.5,127.7 711.6,128.0 711.7,134.5 711.8,137.7 711.8,126.8 711.9,148.3 712.0,152.1 712.1,127.2 712.2,150.0 712.2,128.9 712.3,126.5 712.4,132.3 712.5,127.7 712.6,129.5 712.7,146.3 712.7,149.8 712.8,147.1 712.9,147.3 713.0,131.0 713.0,129.6 713.1,126.2 713.2,133.8 713.2,128.2 713.3,128.2 713.4,149.1 713.5,149.6 713.6,128.8 713.6,128.9 713.7,152.5 713.8,127.5 713.9,126.7 714.0,128.0 714.1,146.6 714.1,148.7 714.2,147.8 714.3,129.5 714.4,143.1 714.5,143.4 714.6,131.6 714.6,130.8 714.7,127.1 714.8,133.8 714.9,148.3 715.0,129.8 715.1,133.3 715.1,138.3 715.2,138.4 715.3,128.7 715.4,148.1 715.5,136.1 715.6,127.3 715.6,138.6 715.7,130.5 715.8,128.2 715.9,149.6 716.0,128.8 716.1,150.2 716.1,148.0 716.2,144.5 716.3,145.5 716.4,137.6 716.5,136.6 716.5,140.2 716.6,128.7 716.7,129.4 716.8,128.8 716.9,129.8 716.9,149.3 717.0,138.3 717.0,148.0 717.1,151.9 717.2,151.0 717.3,146.9 717.4,150.8 717.5,127.5 717.6,150.6 717.6,141.7 717.7,130.1 717.8,129.6 717.9,139.7 718.0,128.1 718.0,142.5 718.1,135.6 718.2,138.5 718.3,132.6 718.4,130.1 718.5,149.1 718.5,148.0 718.6,150.8 718.7,143.5 718.8,152.1 718.9,139.8 719.0,132.2 719.0,128.0 719.1,129.1 719.2,148.3 719.3,128.0 719.4,127.6 719.5,128.2 719.5,127.3 719.6,127.3 719.7,149.6 719.8,128.9 719.9,132.7 719.9,143.8 720.2,149.4 720.4,151.9 720.4,132.0 720.6,127.9 720.7,133.2 720.8,129.2 720.9,133.4 720.9,148.3 721.0,137.0 721.1,128.7 721.2,149.6 721.3,144.1 721.4,148.1 721.4,129.1 721.5,149.6 721.6,149.6 721.7,150.6 721.8,139.0 721.8,130.9 721.9,128.8 721.9,135.7 722.0,133.8 722.1,148.5 722.2,151.2 722.3,129.2 722.4,129.9 722.4,142.7 722.5,126.2 722.6,141.4 722.7,130.0 722.8,137.6 722.9,128.6 722.9,149.8 723.0,148.5 723.1,151.2 723.2,136.6 723.3,145.9 723.3,121.9 723.4,142.0 723.5,151.4 723.6,127.9 723.7,142.1 723.8,146.9 723.8,147.4 723.9,128.7 724.0,138.1 724.1,143.2 724.2,129.3 724.3,150.4 724.3,152.1 724.4,144.2 724.5,137.6 724.6,142.7 724.8,147.6 725.1,135.9 725.3,128.3 725.4,142.9 725.4,149.3 725.5,129.6 725.6,150.8 725.7,142.0 725.8,150.4 725.8,148.1 725.9,120.9 726.0,136.7 726.1,130.1 726.2,121.3 726.3,130.0 726.3,138.9 726.4,138.7 726.5,131.1 726.6,150.0 726.7,137.8 726.8,129.2 726.8,150.0 726.9,126.3 727.0,126.8 727.1,134.7 727.2,150.6 727.3,148.9 727.3,150.4 727.4,128.2 727.4,141.2 727.5,128.7 727.6,130.8 727.7,148.7 727.8,129.0 727.8,127.5 727.9,141.1 728.0,152.7 728.1,126.7 728.2,148.7 728.2,136.8 728.3,139.4 728.4,137.6 728.5,147.4 728.6,150.2 728.7,138.4 728.7,148.3 728.8,126.1 728.9,138.1 729.0,138.6 729.1,130.5 729.2,133.6 729.2,130.1 729.3,128.9 729.4,127.2 729.5,135.6 729.6,142.7 729.7,150.0 729.7,143.9 729.8,149.1 729.9,152.3 730.0,128.3 730.1,150.0 730.2,151.0 730.2,149.4 730.3,130.7 730.4,151.2 730.5,137.4 730.6,150.4 730.6,148.9 730.7,123.1 730.8,148.1 730.8,129.2 730.9,148.9 731.0,149.1 731.1,132.5 731.1,148.1 731.2,150.6 731.3,142.2 731.4,128.4 731.5,107.8 731.6,128.3 731.6,138.1 731.7,133.4 731.8,129.4 731.9,129.2 732.0,146.6 732.1,152.1 732.1,128.3 732.2,148.5 732.3,146.8 732.4,151.6 732.5,138.0 732.6,142.0 732.6,125.3 732.7,129.7 732.8,126.9 732.9,117.0 733.0,150.4 733.1,130.8 733.1,130.2 733.2,128.4 733.3,131.5 733.4,129.7 733.5,148.7 733.6,146.4 733.6,132.8 733.7,146.8 733.8,130.6 733.9,129.6 733.9,140.8 734.0,128.7 734.0,127.5 734.1,133.1 734.2,128.6 734.3,129.6 734.4,145.1 734.5,132.3 734.5,141.3 734.6,132.2 734.7,133.3 734.8,126.2 734.9,140.8 735.0,129.4 735.0,151.6 735.1,149.6 735.2,151.2 735.3,137.4 735.4,128.2 735.5,128.7 735.5,135.8 735.6,134.6 735.7,141.8 735.8,130.9 735.9,142.2 736.0,127.7 736.0,135.8 736.1,148.5 736.2,150.0 736.3,130.3 736.4,150.6 736.5,137.0 736.5,128.7 736.5,150.6 736.6,128.4 736.7,129.6 736.8,127.5 736.9,127.4 736.9,139.9 737.0,148.3 737.1,119.9 737.2,139.3 737.3,149.1 737.4,127.2 737.4,138.9 737.5,127.5 737.6,138.9 737.7,133.4 737.8,130.2 737.9,150.0 737.9,136.7 738.0,132.3 738.1,127.5 738.2,130.7 738.3,142.8 738.4,132.7 738.4,136.8 738.5,140.7 738.6,126.7 738.6,128.2 738.7,139.1 738.8,127.1 738.9,149.6 738.9,145.3 739.0,151.9 739.1,145.9 739.2,127.5 739.3,142.9 739.4,137.3 739.4,126.0 739.5,148.7 739.6,130.5 739.7,136.6 739.8,127.6 739.9,138.6 739.9,126.1 740.0,129.8 740.1,128.9 740.2,138.9 740.3,138.7 740.3,147.1 740.4,151.0 740.5,127.8 740.6,138.3 740.6,134.5 740.7,146.3 740.8,138.2 740.8,149.8 740.9,130.1 741.0,127.7 741.1,148.3 741.2,130.7 741.3,146.6 741.3,142.5 741.4,149.6 741.5,134.1 741.6,130.0 741.7,151.4 741.8,149.4 741.8,120.6 741.9,133.7 742.0,129.2 742.1,128.8 742.2,128.0 742.3,128.5 742.3,141.7 742.4,137.4 742.5,128.6 742.6,151.0 742.7,131.7 742.8,130.3 742.8,128.4 742.9,125.9 743.0,149.4 743.1,151.4 743.2,148.5 743.3,137.8 743.3,130.3 743.4,128.2 743.5,149.3 743.6,127.6 743.7,150.2 743.8,132.4 743.8,150.6 743.9,128.3 744.0,135.4 744.1,135.6 744.2,134.2 744.2,140.3 744.3,131.0 744.4,128.5 744.5,125.7 744.6,131.7 744.7,141.6 744.7,143.1 744.8,149.6 744.9,147.8 745.0,143.6 745.1,150.4 745.2,127.3 745.2,128.5 745.3,133.9 745.4,141.2 745.5,147.6 745.6,131.1 745.7,141.3 745.7,151.6 745.8,132.8 745.9,138.3 746.0,124.7 746.1,149.6 746.2,148.1 746.2,132.7 746.3,136.0 746.4,151.2 746.5,130.0 746.6,147.4 746.7,149.8 746.7,148.7 746.8,139.9 746.9,142.2 747.0,130.4 747.1,128.5 747.2,140.3 747.2,138.9 747.3,132.0 747.4,150.4 747.5,137.5 747.6,138.0 747.6,151.6 747.7,129.7 747.8,129.5 747.9,148.7 748.0,141.8 748.1,146.1 748.1,147.6 748.2,128.7 748.3,127.9 748.4,123.0 748.5,143.5 748.6,134.2 748.6,139.2 748.7,126.6 748.8,137.4 748.9,138.5 749.0,128.9 749.1,133.0 749.1,143.2 749.2,138.3 749.3,133.3 749.4,129.2 749.5,135.3 749.6,148.9 749.6,138.6 749.7,140.1 749.8,125.3 749.9,137.4 750.0,149.6 750.1,142.5 750.1,149.8 750.2,148.9 750.3,124.9 750.4,152.5 750.5,144.5 750.6,129.7 750.6,150.6 750.7,132.8 750.8,127.4 750.9,131.6 751.0,135.7 751.0,150.0 751.1,151.0 751.2,129.7 751.3,148.9 751.4,149.3 751.5,128.3 751.6,129.9 751.6,131.0 751.7,128.7 751.8,128.7 751.9,128.4 752.0,132.8 752.1,130.8 752.1,126.3 752.2,133.7 752.3,136.7 752.3,147.8 752.4,140.9 752.6,127.1 752.6,148.3 752.7,129.5 752.8,150.2 752.9,128.1 753.0,127.8 753.0,124.7 753.1,126.9 753.2,134.4 753.3,152.3 753.5,126.7 753.5,129.1 753.6,151.6 753.7,148.3 753.8,151.6 753.9,130.1 754.0,133.8 754.0,126.3 754.1,132.4 754.2,149.1 754.3,129.1 754.4,127.9 754.5,151.2 754.5,129.9 754.6,145.8 754.7,137.5 754.8,127.6 754.9,137.0 754.9,149.8 755.0,149.1 755.1,127.7 755.2,141.2 755.3,143.6 755.4,148.1 755.4,142.0 755.5,129.5 755.6,131.0 755.7,142.0 755.8,132.9 755.9,142.0 755.9,142.8 756.0,128.2 756.1,130.0 756.2,151.0 756.3,132.0 756.4,147.1 756.4,145.5 756.5,137.1 756.6,137.8 756.7,140.5 756.8,149.1 756.9,143.4 756.9,129.6 757.0,134.9 757.1,132.7 757.2,130.2 757.3,129.3 757.4,148.0 757.4,137.2 757.5,134.4 757.6,126.1 757.7,149.6 757.7,133.6 757.8,126.3 757.9,131.5 757.9,135.1 758.0,130.1 758.1,128.1 758.2,151.6 758.3,130.5 758.4,144.5 758.4,126.4 758.5,142.4 758.6,142.0 758.7,147.8 758.8,126.7 758.8,130.5 758.9,149.6 759.0,150.2 759.1,130.9 759.2,127.3 759.3,133.0 759.3,125.4 759.4,132.7 759.5,148.1 759.6,127.3 759.7,137.3 759.8,132.9 759.8,140.4 759.9,128.2 760.0,148.9 760.1,126.7 760.2,137.0 760.3,133.4 760.3,139.2 760.4,147.4 760.5,138.7 760.6,140.9 760.7,132.1 760.8,136.2 760.8,125.8 760.9,153.2 761.0,133.7 761.1,130.7 761.2,128.1 761.2,133.0 761.3,147.8 761.3,145.9 761.4,150.6 761.5,132.6 761.6,131.3 761.7,130.8 761.8,137.2 761.8,128.2 761.9,133.0 762.0,125.1 762.1,136.8 762.2,146.1 762.2,131.0 762.3,147.1 762.4,151.2 762.5,128.4 762.6,150.4 762.7,125.5 762.7,147.8 762.8,142.2 762.9,141.3 763.0,135.1 763.1,149.8 763.2,132.5 763.2,128.8 763.3,131.2 763.4,130.7 763.5,130.3 763.6,140.8 763.7,136.2 763.7,139.8 763.7,140.1 763.8,136.6 763.9,127.1 764.0,130.3 764.1,129.4 764.2,128.1 764.2,127.8 764.3,151.9 764.4,137.0 764.5,127.8 764.6,136.6 764.7,146.3 764.7,136.3 764.8,126.1 764.9,127.8 765.0,148.7 765.1,149.3 765.2,131.0 765.2,148.9 765.3,129.7 765.4,135.1 765.5,137.7 765.6,126.7 765.6,148.9 765.7,137.8 765.8,128.3 765.9,126.7 766.0,129.8 766.1,128.5 766.1,126.3 766.2,129.2 766.3,130.1 766.4,133.3 766.5,135.1 766.6,125.8 766.6,138.2 766.7,128.7 766.8,131.1 766.9,128.0 767.0,128.7 767.1,127.6 767.1,128.1 767.2,141.4 767.3,127.3 767.4,132.4 767.5,152.3 767.6,142.0 767.6,151.0 767.7,139.0 767.8,141.1 767.9,146.6 768.0,141.7 768.1,148.9 768.1,152.1 768.2,133.3 768.3,149.6 768.4,151.9 768.4,131.8 768.5,129.7 768.6,128.9 768.6,132.6 768.7,130.3 768.8,151.4 768.9,135.1 769.0,142.4 769.0,126.7 769.1,129.8 769.2,129.1 769.3,142.5 769.4,150.2 769.5,126.0 769.5,141.7 769.6,140.8 769.7,133.4 769.8,141.4 769.9,127.8 770.0,150.2 770.0,132.9 770.1,137.6 770.2,130.7 770.3,150.6 770.4,150.2 770.5,129.8 770.5,151.2 770.6,149.8 770.7,150.2 770.8,147.6 770.9,142.4 771.0,138.2 771.0,152.1 771.1,138.0 771.2,130.1 771.3,130.1 771.4,136.2 771.5,147.6 771.5,150.6 771.6,129.3 771.7,133.9 771.8,126.9 771.9,128.6 772.0,126.4 772.0,151.9 772.1,142.0 772.2,151.0 772.3,141.2 772.4,127.4 772.5,143.1 772.5,151.6 772.6,130.1 772.7,130.5 772.8,126.3 772.9,148.3 772.9,151.4 773.0,134.1 773.1,127.5 773.2,126.3 773.3,132.0 773.3,143.1 773.4,138.9 773.4,124.7 773.5,129.5 773.6,150.0 773.7,127.7 773.8,130.6 773.9,128.7 773.9,148.3 774.0,133.3 774.1,128.4 774.2,127.3 774.3,138.2 774.4,141.8 774.4,138.2 774.5,149.8 774.6,136.9 774.7,136.7 774.8,127.1 774.9,136.1 774.9,128.4 775.0,126.9 775.1,147.4 775.2,130.5 775.3,137.7 775.4,151.2 775.4,142.0 775.5,139.4 775.6,127.1 775.7,137.1 775.8,139.8 775.8,149.4 775.9,131.2 776.0,127.1 776.1,125.8 776.2,126.6 776.3,134.0 776.3,139.1 776.4,150.8 776.5,150.2 776.6,137.8 776.7,148.9 776.8,136.9 776.8,126.9 776.9,135.7 777.0,151.4 777.1,124.4 777.2,150.6 777.3,130.3 777.3,141.7 777.4,125.4 777.5,149.1 777.6,148.9 777.7,131.4 777.8,148.9 777.8,150.4 777.9,130.8 778.0,148.5 778.1,140.5 778.1,140.7 778.2,146.8 778.3,130.8 778.3,143.6 778.4,148.3 778.5,129.0 778.6,148.0 778.7,138.3 778.8,132.3 778.8,149.8 778.9,149.6 779.0,132.8 779.1,147.4 779.2,150.4 779.3,128.2 779.3,147.3 779.4,131.1 779.5,129.9 779.6,140.7 779.7,147.4 779.8,137.5 779.8,147.3 779.9,151.0 780.0,126.3" fill="none" stroke="#ff6b6b" stroke-width="1.5" opacity="0.6"/>
<line x1="751.2" y1="40" x2="751.2" y2="250" stroke="#4ecdc4" stroke-width="1.5" stroke-dasharray="4,3" opacity="0.7"/>
<line x1="751.3" y1="40" x2="751.3" y2="250" stroke="#4ecdc4" stroke-width="1.5" stroke-dasharray="4,3" opacity="0.7"/>
<line x1="751.4" y1="40" x2="751.4" y2="250" stroke="#4ecdc4" stroke-width="1.5" stroke-dasharray="4,3" opacity="0.7"/>
<line x1="751.5" y1="40" x2="751.5" y2="250" stroke="#4ecdc4" stroke-width="1.5" stroke-dasharray="4,3" opacity="0.7"/>
<line x1="751.6" y1="40" x2="751.6" y2="250" stroke="#4ecdc4" stroke-width="1.5" stroke-dasharray="4,3" opacity="0.7"/>
<line x1="751.6" y1="40" x2="751.6" y2="250" stroke="#4ecdc4" stroke-width="1.5" stroke-dasharray="4,3" opacity="0.7"/>
<line x1="751.7" y1="40" x2="751.7" y2="250" stroke="#4ecdc4" stroke-width="1.5" stroke-dasharray="4,3" opacity="0.7"/>
<line x1="751.8" y1="40" x2="751.8" y2="250" stroke="#4ecdc4" stroke-width="1.5" stroke-dasharray="4,3" opacity="0.7"/>
<line x1="751.9" y1="40" x2="751.9" y2="250" stroke="#4ecdc4" stroke-width="1.5" stroke-dasharray="4,3" opacity="0.7"/>
<line x1="752.0" y1="40" x2="752.0" y2="250" stroke="#4ecdc4" stroke-width="1.5" stroke-dasharray="4,3" opacity="0.7"/>
<line x1="752.1" y1="40" x2="752.1" y2="250" stroke="#4ecdc4" stroke-width="1.5" stroke-dasharray="4,3" opacity="0.7"/>
<line x1="752.1" y1="40" x2="752.1" y2="250" stroke="#4ecdc4" stroke-width="1.5" stroke-dasharray="4,3" opacity="0.7"/>
<line x1="752.2" y1="40" x2="752.2" y2="250" stroke="#4ecdc4" stroke-width="1.5" stroke-dasharray="4,3" opacity="0.7"/>
<line x1="752.3" y1="40" x2="752.3" y2="250" stroke="#4ecdc4" stroke-width="1.5" stroke-dasharray="4,3" opacity="0.7"/>
<line x1="752.3" y1="40" x2="752.3" y2="250" stroke="#4ecdc4" stroke-width="1.5" stroke-dasharray="4,3" opacity="0.7"/>
<line x1="752.4" y1="40" x2="752.4" y2="250" stroke="#4ecdc4" stroke-width="1.5" stroke-dasharray="4,3" opacity="0.7"/>
<line x1="752.6" y1="40" x2="752.6" y2="250" stroke="#4ecdc4" stroke-width="1.5" stroke-dasharray="4,3" opacity="0.7"/>
<line x1="752.6" y1="40" x2="752.6" y2="250" stroke="#4ecdc4" stroke-width="1.5" stroke-dasharray="4,3" opacity="0.7"/>
<line x1="752.7" y1="40" x2="752.7" y2="250" stroke="#4ecdc4" stroke-width="1.5" stroke-dasharray="4,3" opacity="0.7"/>
<line x1="752.8" y1="40" x2="752.8" y2="250" stroke="#4ecdc4" stroke-width="1.5" stroke-dasharray="4,3" opacity="0.7"/>
<circle cx="660" cy="50" r="4" fill="#4ecdc4"/><text x="670" y="50" fill="#e0e0e0" dominant-baseline="middle">Hub API</text>
<circle cx="660" cy="68" r="4" fill="#ff6b6b"/><text x="670" y="68" fill="#e0e0e0" dominant-baseline="middle">Registry</text>
<line x1="656" y1="82" x2="664" y2="82" stroke="#e0e0e0" stroke-width="1.5" stroke-dasharray="4,3" opacity="0.7"/><text x="670" y="86" fill="#e0e0e0" dominant-baseline="middle">Timeout</text>
<text x="70" y="288" fill="#4ecdc4" font-size="11">min: 47ms  max: 19027ms  avg: 152ms  timeouts: 20  first: Sep 14 11:47  last: Sep 14 13:23</text>
<text x="70" y="304" fill="#ff6b6b" font-size="11">min: 93ms  max: 790ms  avg: 214ms  timeouts: 0</text>
</svg>
