<svg xmlns="http://www.w3.org/2000/svg" viewBox="0 0 800 340" font-family="monospace" font-size="12">
<rect width="800" height="340" fill="#1a1a2e"/>
<text x="400" y="24" fill="#e0e0e0" font-size="14" text-anchor="middle">Last 7 days</text>
<line x1="70" y1="40" x2="70" y2="250" stroke="#444" stroke-width="1"/>
<line x1="70" y1="250" x2="780" y2="250" stroke="#444" stroke-width="1"/>
<line x1="70" y1="250" x2="780" y2="250" stroke="#333" stroke-width="1" stroke-dasharray="4"/>
<text x="65" y="250" fill="#888" text-anchor="end" dominant-baseline="middle">1ms</text>
<line x1="70" y1="198" x2="780" y2="198" stroke="#333" stroke-width="1" stroke-dasharray="4"/>
<text x="65" y="198" fill="#888" text-anchor="end" dominant-baseline="middle">10ms</text>
<line x1="70" y1="146" x2="780" y2="146" stroke="#333" stroke-width="1" stroke-dasharray="4"/>
<text x="65" y="146" fill="#888" text-anchor="end" dominant-baseline="middle">100ms</text>
<line x1="70" y1="94" x2="780" y2="94" stroke="#333" stroke-width="1" stroke-dasharray="4"/>
<text x="65" y="94" fill="#888" text-anchor="end" dominant-baseline="middle">1s</text>
<line x1="70" y1="42" x2="780" y2="42" stroke="#333" stroke-width="1" stroke-dasharray="4"/>
<text x="65" y="42" fill="#888" text-anchor="end" dominant-baseline="middle">10s</text>
<text x="70" y="270" fill="#888" text-anchor="middle">Sep 27</text>
<text x="212" y="270" fill="#888" text-anchor="middle">Sep 28</text>
<text x="354" y="270" fill="#888" text-anchor="middle">Sep 29</text>
<text x="496" y="270" fill="#888" text-anchor="middle">Oct 01</text>
<text x="638" y="270" fill="#888" text-anchor="middle">Oct 02</text>
<text x="780" y="270" fill="#888" text-anchor="middle">Oct 04</text>
<polyline points="70.5,124.2 87.2,141.7 89.8,125.8 90.1,150.4 91.9,159.7 93.9,136.2 104.5,141.0 104.8,132.4 105.2,138.8 105.5,151.5 105.9,147.4 106.2,139.1 106.6,151.8 106.9,139.0 107.3,152.7 107.7,133.1 108.1,149.4 108.4,142.1 108.7,138.0 109.1,142.5 109.4,133.9 109.8,136.8 110.2,139.5 110.5,136.9 110.9,151.5 111.2,138.2 111.6,142.3 111.9,132.6 112.3,147.6 112.6,149.4 113.0,139.6 113.1,158.9 113.3,138.6 113.7,131.1 114.1,133.6 114.4,141.6 114.8,147.4 115.1,140.3 115.5,140.7 115.8,153.6 116.2,137.7 116.5,138.3 116.9,143.5 117.3,140.8 117.6,139.1 118.0,161.4 118.3,132.7 118.7,141.0 119.0,137.2 119.4,138.0 119.7,154.9 120.1,139.3 120.5,151.8 120.8,159.3 121.2,134.3 121.5,139.5 121.9,141.9 122.2,132.7 122.6,134.9 123.0,140.7 123.3,136.9 123.7,147.9 124.0,144.1 124.4,133.2 124.7,134.9 125.1,138.5 125.4,133.7 125.8,141.7 126.1,149.4 126.5,141.0 126.9,150.7 127.2,137.2 127.6,132.1 127.9,138.2 128.3,149.6 128.6,142.3 129.0,139.5 129.3,132.9 129.7,140.0 130.1,145.8 130.4,134.4 130.8,143.7 131.1,133.0 131.5,157.0 131.8,130.4 132.2,134.9 132.5,141.4 132.9,139.0 133.1,136.2 133.3,137.9 133.6,138.3 134.0,157.7 134.3,134.4 134.7,133.5 135.0,141.0 135.4,142.3 135.7,132.7 136.1,129.7 136.5,156.6 136.8,136.1 137.2,146.0 137.5,133.6 137.9,135.5 138.2,150.7 138.6,134.0 139.0,140.3 139.3,149.6 139.7,139.5 140.0,151.5 140.4,130.5 140.7,150.2 141.1,139.5 141.4,148.1 141.8,155.6 142.1,139.8 142.5,141.0 142.9,133.4 143.2,129.9 143.6,148.6 143.9,141.0 144.3,151.3 144.6,153.0 145.0,134.5 145.3,151.3 145.7,130.5 146.1,140.7 146.4,140.8 146.8,140.7 147.1,135.5 147.5,136.8 147.8,131.6 148.2,153.9 148.5,142.9 148.9,131.4 149.1,138.5 149.3,139.1 149.6,135.6 150.0,139.6 150.3,128.4 150.7,136.3 151.0,131.6 151.4,131.2 151.7,131.6 152.1,158.1 152.5,140.0 152.8,153.6 153.2,136.8 153.5,140.1 153.9,136.5 154.2,152.4 154.6,134.8 154.9,136.3 155.3,149.6 155.6,139.6 156.0,145.6 156.4,133.9 156.8,131.5 157.1,155.9 157.4,130.2 157.8,141.6 158.1,138.0 158.5,150.2 158.8,150.2 159.2,140.1 159.6,138.2 159.9,141.4 160.3,141.9 160.6,157.7 161.0,137.9 161.3,146.5 161.7,137.7 162.0,139.5 162.4,151.5 162.8,140.0 163.1,139.8 163.5,139.8 163.8,132.1 164.2,134.1 164.5,129.9 164.9,143.1 165.2,141.7 165.6,149.4 166.0,150.4 166.3,153.6 166.7,151.8 167.0,134.8 167.4,139.0 167.7,140.0 168.1,135.9 168.4,134.7 168.8,132.4 169.2,147.9 169.5,140.1 169.9,142.7 170.2,150.7 170.6,136.3 170.9,138.2 171.3,138.5 171.6,132.5 172.0,140.0 172.4,138.6 172.8,140.5 173.1,131.3 173.3,133.2 173.4,151.3 173.8,140.1 174.1,137.9 174.5,139.1 174.8,137.4 175.2,131.6 175.5,133.7 175.9,141.4 176.3,139.0 176.6,132.7 177.0,151.5 177.3,136.5 177.7,137.9 178.0,140.5 178.4,143.9 178.8,135.1 179.1,139.5 179.5,135.1 179.8,138.0 180.2,131.4 180.5,135.2 180.9,137.4 181.2,137.2 181.6,138.2 181.9,154.6 182.3,150.7 182.7,133.4 183.0,132.9 183.4,121.8 183.7,151.3 184.1,148.9 184.4,139.8 184.8,137.2 185.1,150.2 185.5,128.1 185.8,143.7 186.2,136.5 186.6,140.3 186.9,141.9 187.3,139.3 187.6,141.4 188.0,139.3 188.3,135.5 188.7,129.4 189.1,136.8 189.4,158.1 189.8,135.4 190.1,153.9 190.5,139.8 190.8,136.1 191.2,130.6 191.5,138.3 191.9,138.8 192.2,139.1 192.6,149.9 193.0,138.0 193.3,157.7 193.7,158.9 194.0,138.0 194.4,149.9 194.7,138.5 195.1,140.1 195.4,132.5 195.5,134.4 195.8,148.1 196.2,142.1 196.5,141.9 196.9,134.1 197.2,139.6 197.6,140.1 197.9,111.1 198.3,133.0 198.6,140.8 199.0,134.1 199.4,138.0 199.7,141.6 200.1,151.5 200.4,139.0 200.8,134.9 201.1,140.8 201.5,139.1 201.8,142.5 202.2,139.0 202.6,134.1 202.9,141.2 203.3,132.5 203.6,134.8 204.0,152.4 204.3,135.1 204.7,132.6 205.0,141.4 205.4,139.1 205.8,131.6 206.1,139.1 206.5,142.1 206.8,151.8 207.2,149.9 207.5,132.6 207.9,139.0 208.2,159.3 208.6,138.3 209.0,130.0 209.3,139.0 209.7,137.2 210.0,140.3 210.4,134.0 210.7,140.1 211.1,132.6 211.5,135.5 211.8,140.5 212.2,139.0 212.5,138.3 212.9,139.0 213.2,157.0 213.6,144.7 213.9,150.4 214.3,135.1 214.7,137.5 215.0,132.9 215.4,147.4 215.7,135.1 216.1,159.3 216.4,137.5 216.8,140.5 217.2,141.9 217.5,158.1 217.9,150.4 218.2,134.5 218.6,158.9 218.9,130.0 219.3,152.1 219.6,140.8 220.0,132.7 220.4,136.2 220.7,139.8 221.1,137.9 221.4,129.7 221.8,157.7 222.1,151.8 222.5,139.5 222.9,133.5 223.2,154.6 223.6,132.4 228.1,88.7 232.5,129.4 232.9,138.6 233.2,133.0 233.6,142.9 233.9,143.9 234.3,139.6 234.7,147.1 235.0,146.5 235.4,131.8 235.7,136.8 236.1,140.0 236.4,136.6 236.8,139.6 237.1,146.2 237.5,136.1 237.9,135.6 238.2,135.6 238.6,140.8 238.9,144.5 239.3,137.1 239.6,136.1 240.0,131.8 240.4,140.1 240.7,137.4 241.1,152.1 241.4,124.0 241.8,137.9 242.1,143.9 242.5,136.8 242.8,135.2 243.2,135.2 243.6,140.1 243.9,151.3 244.3,129.2 244.6,133.1 245.0,137.7 245.3,140.3 245.7,136.1 246.0,136.6 246.4,131.6 246.8,133.7 247.1,140.3 247.5,153.6 247.8,157.4 248.2,161.8 248.5,151.3 248.9,138.5 249.2,136.9 249.6,138.8 250.0,152.7 250.3,135.5 250.7,142.5 251.0,140.5 251.4,148.6 251.7,139.8 252.1,136.6 252.5,135.9 252.8,139.6 253.2,138.2 253.5,152.1 253.9,149.6 254.2,152.7 254.6,133.9 254.9,148.6 255.3,137.2 255.6,147.6 255.7,140.3 256.0,148.6 256.4,148.6 256.7,153.9 257.1,148.9 257.4,141.0 257.8,138.3 258.1,135.2 258.5,147.6 258.9,139.6 259.2,128.9 259.6,156.6 259.9,156.3 260.3,146.0 260.6,139.0 261.0,151.3 261.3,139.3 261.7,137.7 262.1,138.5 262.4,151.0 262.8,139.1 263.1,135.8 263.5,142.5 263.8,152.1 264.2,135.8 264.5,142.7 264.9,138.0 265.3,134.5 265.6,131.3 266.0,139.8 266.3,136.5 266.7,141.7 267.0,133.4 267.4,156.3 267.8,139.8 268.1,140.7 268.5,139.3 268.8,146.9 269.2,138.6 269.5,136.9 269.9,158.5 270.2,139.3 270.6,132.9 271.0,153.0 271.3,122.0 271.7,138.5 272.0,136.2 272.4,152.1 272.7,134.5 273.1,137.4 273.2,140.0 273.4,157.7 273.8,141.6 274.1,141.4 274.5,140.1 274.9,137.2 275.2,153.9 275.6,132.5 275.9,137.7 276.3,155.6 276.6,138.2 277.0,157.0 277.3,137.2 277.7,133.2 278.1,150.7 278.4,134.3 278.8,160.5 279.1,134.4 279.5,134.3 279.8,134.8 280.2,152.1 280.5,138.2 280.9,136.9 281.3,139.1 281.6,138.0 282.0,141.2 282.3,138.5 282.7,135.8 283.0,135.2 283.4,132.2 283.8,139.8 284.1,133.0 284.5,140.5 284.8,160.1 285.2,134.8 285.5,149.4 285.9,138.8 286.2,138.6 286.6,140.0 286.9,158.9 287.3,144.5 287.7,133.6 288.0,143.5 288.4,135.5 288.7,151.3 289.1,151.8 289.4,139.8 289.8,140.0 290.1,144.1 290.5,163.7 290.9,133.6 291.2,133.1 291.6,140.0 291.9,143.1 292.3,134.1 292.6,138.2 293.0,134.4 293.4,140.1 293.7,123.8 294.1,149.1 294.4,135.8 294.8,133.0 295.1,139.3 295.5,93.8 295.8,132.6 296.2,138.5 296.6,131.8 296.9,132.6 297.1,134.9 297.3,160.5 297.7,160.1 298.0,153.6 298.3,132.7 298.7,136.8 299.0,136.6 299.4,150.2 299.8,138.3 300.1,134.9 300.5,138.2 300.8,153.9 301.2,154.3 301.5,140.3 301.9,142.1 302.2,159.3 302.6,159.7 303.0,141.2 303.3,136.9 303.7,143.5 304.0,136.9 304.4,151.8 304.7,132.2 305.1,149.1 305.4,129.5 305.8,132.1 306.2,160.5 306.5,138.0 306.9,141.2 307.2,141.0 307.6,151.8 307.9,141.6 308.3,142.9 308.7,136.9 309.0,139.6 309.4,133.6 309.7,139.6 310.1,141.2 310.4,135.4 310.8,138.2 311.1,142.3 311.5,137.1 311.8,157.0 312.2,141.4 312.6,158.5 312.9,140.8 313.3,144.3 313.6,134.3 314.0,131.8 314.3,134.4 314.7,138.0 315.1,122.9 315.4,133.4 315.8,137.5 316.1,133.6 316.5,140.7 316.8,142.3 317.2,135.5 317.5,141.7 317.9,134.9 318.3,139.1 318.6,152.4 319.0,137.5 319.3,153.3 319.7,141.7 320.0,144.7 320.4,144.3 320.7,153.3 321.1,136.8 321.4,151.8 321.8,156.3 325.5,134.3 332.8,138.6 342.2,136.2 349.1,142.7 352.1,159.7 352.4,131.4 352.8,149.4 353.2,139.1 353.5,140.3 353.9,138.6 354.2,146.2 354.6,146.0 354.9,131.2 355.3,148.9 355.6,157.0 356.0,135.4 356.4,150.2 356.7,137.7 357.1,135.4 357.4,134.3 357.8,142.5 358.1,141.6 358.5,133.4 358.9,133.7 359.2,149.1 359.6,139.5 359.9,132.4 360.3,142.5 360.6,134.8 361.0,132.5 361.3,133.9 361.7,143.3 362.1,141.0 362.4,139.1 362.8,148.9 363.1,135.6 363.5,154.6 363.8,136.3 364.2,132.6 364.5,131.5 364.9,142.7 365.3,138.6 365.6,136.3 366.0,141.7 366.3,131.4 366.5,135.6 366.7,135.1 367.0,131.6 367.4,153.0 367.7,134.3 368.1,137.5 368.5,150.2 368.8,146.7 369.2,140.3 369.5,132.9 369.9,139.0 370.2,138.0 370.6,141.2 370.9,138.8 371.3,135.6 371.7,139.0 372.0,137.5 372.4,136.8 372.7,116.2 373.1,136.2 373.4,130.5 373.8,136.9 374.1,131.9 374.5,148.1 374.9,136.1 375.2,134.3 375.6,140.8 375.9,154.6 376.3,134.4 376.6,123.0 377.0,130.3 377.4,133.6 377.7,135.4 378.1,139.0 378.4,136.2 378.8,136.2 379.1,154.6 379.2,133.1 379.5,136.3 379.8,130.6 380.2,141.7 380.5,138.5 380.9,154.3 381.3,134.0 381.6,151.3 382.0,136.6 382.3,145.1 382.7,129.9 383.0,139.0 383.4,138.8 383.7,138.5 384.1,145.3 384.5,139.8 384.8,138.8 385.2,155.6 385.5,134.8 385.9,151.3 386.2,136.9 386.6,140.0 386.9,139.0 387.3,138.8 387.7,134.0 388.0,138.6 388.4,134.7 388.7,125.3 389.1,142.7 389.4,130.9 389.8,148.1 390.2,130.3 390.5,139.1 390.9,139.8 391.2,141.0 391.6,152.1 391.9,152.4 392.3,151.5 392.6,143.1 393.0,83.1 393.3,133.0 393.7,161.4 394.1,134.7 394.4,142.5 394.8,129.1 395.1,137.1 395.5,151.0 395.8,132.5 396.2,145.6 396.5,152.4 396.9,134.4 397.3,159.3 397.6,142.1 398.0,143.7 398.3,137.1 398.7,153.6 399.0,129.9 399.4,142.7 399.7,140.7 400.1,132.9 400.5,141.0 400.8,141.2 401.2,143.7 401.5,138.2 401.9,130.5 402.2,149.9 402.6,140.0 403.0,137.1 403.3,154.3 403.7,142.3 403.9,152.1 404.0,145.1 404.4,141.6 404.7,148.3 405.1,137.9 405.4,137.7 405.8,142.1 406.1,141.0 406.5,138.6 406.9,141.9 407.2,154.3 407.6,140.7 407.9,139.6 408.3,138.2 408.6,133.6 409.0,146.5 409.4,150.7 409.7,158.1 410.1,141.2 410.4,155.2 410.8,142.1 411.1,139.3 411.5,131.6 411.9,141.6 412.2,140.5 412.6,136.9 412.9,132.5 413.3,143.3 413.6,142.3 414.0,136.2 414.3,141.4 414.7,153.3 415.0,149.1 415.4,141.4 415.8,134.9 416.1,140.3 416.5,151.3 416.8,90.6 417.2,141.0 417.5,145.3 417.9,146.9 418.3,149.6 418.6,134.4 419.0,143.1 419.3,138.5 419.7,142.1 420.0,139.1 420.4,134.1 420.7,139.1 421.1,146.0 421.5,146.0 421.8,140.7 422.2,121.0 422.5,136.5 422.9,149.1 423.2,125.3 423.6,137.5 423.9,152.4 424.3,153.0 424.9,146.7 425.0,138.3 425.4,136.5 425.8,150.4 426.1,146.9 426.5,141.9 426.8,137.1 427.2,150.7 427.5,119.4 427.9,135.4 428.3,142.3 428.6,127.8 428.9,154.3 429.3,141.4 429.7,138.5 430.0,151.8 430.4,137.9 430.7,140.0 431.1,131.6 431.4,136.3 431.8,133.0 432.1,155.2 432.3,156.6 432.5,129.3 432.9,138.5 433.2,136.9 433.6,135.2 433.9,143.3 434.3,136.1 434.6,136.3 435.0,149.6 435.4,136.9 435.7,136.6 436.1,138.3 436.4,145.6 436.8,132.9 437.1,130.0 437.5,137.4 437.8,156.6 438.2,138.2 438.6,136.5 438.9,138.5 439.3,160.1 439.6,140.5 440.0,145.1 440.3,127.0 440.7,153.3 441.0,145.1 441.4,135.5 441.8,144.7 442.1,152.4 442.5,134.0 442.8,160.1 443.2,148.1 443.5,136.6 443.9,136.3 444.3,146.5 444.6,130.5 445.0,123.3 445.3,138.0 445.7,134.4 446.0,135.2 446.4,139.6 446.7,134.7 447.1,138.6 447.5,151.8 447.8,139.0 448.2,143.9 448.5,137.4 448.9,101.9 449.2,81.6 449.6,100.3 450.0,131.9 450.3,143.1 450.7,140.1 451.0,151.5 451.4,149.4 451.7,91.4 452.1,139.3 452.4,139.6 452.8,135.8 453.2,135.4 453.5,139.1 453.9,148.9 454.2,144.1 454.2,150.4 454.6,134.7 454.9,136.1 455.3,134.1 455.6,147.4 456.0,137.9 456.4,137.5 456.7,134.0 457.1,129.7 457.4,138.2 457.8,150.4 458.1,139.8 458.5,136.1 458.8,133.9 459.2,138.3 459.6,128.7 459.9,137.7 460.3,140.0 460.6,121.5 461.0,150.2 461.3,139.3 461.7,134.5 462.0,131.3 462.4,133.0 462.8,157.4 463.1,134.5 463.5,148.9 463.8,134.1 464.2,137.9 464.5,152.7 464.9,152.4 465.2,153.9 465.6,144.1 466.0,148.3 466.4,134.3 466.7,155.2 467.0,143.7 467.4,161.0 467.7,150.7 468.1,159.3 468.4,137.7 468.8,139.1 469.2,135.2 469.5,134.5 469.9,136.8 470.2,40.0 470.3,102.9 470.6,143.9 470.9,135.9 471.3,143.3 471.7,139.5 472.0,133.0 472.4,133.7 472.7,137.1 473.1,131.8 473.4,141.9 473.8,140.7 474.1,139.6 474.5,152.4 474.8,133.9 475.2,138.3 475.6,147.1 475.9,136.1 476.3,144.1 476.6,130.9 477.0,134.4 477.3,139.3 477.7,134.1 478.1,131.4 478.4,137.2 478.8,148.6 479.1,133.9 479.5,134.7 479.8,160.1 480.2,155.9 480.5,140.5 480.9,139.3 481.2,133.1 481.6,140.8 482.0,131.9 482.3,134.7 482.7,129.4 483.0,141.4 483.2,131.1 483.4,142.5 483.7,142.9 484.1,149.6 484.4,144.9 484.8,150.7 485.2,141.0 485.5,134.4 485.9,133.2 486.2,133.7 486.6,132.6 486.9,139.1 487.3,138.6 487.7,149.1 488.0,131.5 488.4,136.8 488.7,130.4 489.1,149.1 489.4,131.9 489.8,149.1 490.1,148.1 490.5,134.8 490.8,133.0 491.2,142.3 491.6,151.3 491.9,143.3 492.3,154.9 492.6,134.7 493.0,133.9 493.3,136.3 493.7,147.9 494.0,139.8 494.4,139.8 494.8,139.0 495.1,153.9 495.5,140.7 495.8,138.6 496.2,136.6 496.5,135.9 496.9,134.4 497.2,132.9 497.6,140.3 498.0,131.2 498.3,134.9 498.7,156.3 499.0,140.1 499.4,132.5 499.7,144.7 500.1,141.0 500.5,138.3 500.8,140.0 501.2,134.3 501.5,157.7 501.9,139.0 502.2,137.7 502.6,132.6 502.9,136.5 503.3,141.4 503.6,138.8 504.0,139.0 504.4,135.5 504.7,133.4 505.1,146.7 505.4,141.0 505.8,137.5 506.1,72.1 506.5,55.8 506.8,135.8 507.2,152.7 507.6,140.5 507.9,148.6 508.3,139.5 508.6,153.6 509.0,158.5 509.3,136.2 509.7,136.8 510.0,141.6 510.4,142.1 510.8,151.0 511.1,139.3 511.5,139.0 511.8,138.6 512.1,136.8 512.2,135.1 512.5,140.3 512.9,139.3 513.2,141.2 513.6,151.0 514.0,157.7 514.3,136.5 514.7,133.1 515.0,132.0 515.4,141.2 515.7,140.3 516.1,145.6 516.5,67.0 516.8,140.3 517.2,136.9 517.5,136.2 517.9,135.2 518.3,157.0 518.6,138.2 518.9,145.1 519.3,149.6 519.7,136.5 520.0,142.3 520.4,138.5 520.8,150.2 521.1,151.0 521.4,145.3 521.8,140.1 522.1,136.6 522.5,141.6 522.9,122.0 523.2,134.7 523.6,133.0 523.9,134.4 524.3,158.1 524.6,135.6 525.0,122.9 525.3,141.9 525.7,134.0 526.1,137.4 526.4,133.7 526.8,139.5 527.1,136.2 527.5,128.9 527.8,141.6 528.2,139.1 528.5,137.7 528.9,137.4 529.3,135.1 529.7,74.5 530.0,141.4 530.3,157.7 530.7,138.8 531.1,149.4 531.4,134.5 531.7,133.5 532.1,148.9 532.5,135.9 532.8,148.9 533.2,137.5 533.5,139.5 533.9,151.3 534.3,135.4 534.6,134.7 535.0,142.3 535.3,136.6 535.7,136.5 536.0,141.6 536.4,141.4 536.7,133.0 537.1,144.1 537.4,139.6 537.8,132.0 538.2,133.2 538.5,151.0 538.9,140.0 539.2,134.8 539.6,143.1 539.9,133.6 540.3,135.1 540.7,141.6 541.0,141.2 541.4,137.4 541.7,134.3 542.1,148.9 542.4,136.5 542.8,157.0 543.1,137.4 543.5,137.1 543.9,138.3 544.2,150.4 544.6,138.0 544.9,134.8 545.3,154.9 545.6,130.8 546.0,140.5 546.3,133.9 546.7,133.0 547.1,134.3 547.4,141.4 547.8,135.6 548.1,145.3 548.5,150.2 548.8,137.2 549.2,143.1 549.5,145.1 549.9,134.5 550.3,134.1 550.6,133.7 551.0,141.9 551.3,134.1 551.7,141.4 552.0,140.0 552.4,142.1 552.8,145.3 553.1,140.1 553.5,144.1 553.8,136.1 554.2,134.8 554.5,136.2 554.9,148.3 555.2,155.2 555.6,131.9 556.0,146.0 556.3,161.8 556.7,141.9 557.0,138.5 557.4,145.6 557.8,131.4 558.1,154.9 558.4,138.2 558.8,139.1 559.2,139.3 559.5,131.6 559.9,137.9 560.3,134.9 560.6,130.8 561.0,133.7 561.3,139.3 561.7,142.9 562.0,135.5 562.4,136.6 562.7,132.6 563.1,139.5 563.4,136.5 563.6,140.8 563.8,139.1 564.1,149.6 564.5,153.6 564.9,148.1 565.2,141.2 565.6,130.6 565.9,133.5 566.3,151.5 566.6,139.8 567.0,144.3 567.4,138.6 567.7,137.7 568.1,133.7 568.4,138.0 568.8,144.7 569.1,132.0 569.5,152.7 569.8,140.3 570.2,137.7 570.5,137.2 570.9,135.6 571.3,142.5 571.6,147.1 572.0,138.3 572.3,139.6 572.7,130.2 573.0,150.7 573.4,150.7 573.8,140.3 574.1,134.1 574.5,139.5 574.8,147.1 575.2,138.5 575.5,150.4 575.9,133.5 576.2,136.3 576.6,136.8 576.9,133.0 577.3,135.5 577.7,125.5 578.0,138.6 578.4,137.1 578.7,143.5 579.1,134.3 579.4,132.5 579.8,137.2 580.1,140.1 580.5,134.7 580.9,143.9 581.2,158.1 581.6,130.8 581.9,135.1 582.3,147.6 582.6,137.5 583.0,138.6 583.3,133.6 583.7,130.5 584.1,123.4 584.4,152.4 584.8,147.1 585.1,138.2 585.5,135.2 585.8,138.2 586.2,134.7 586.6,133.6 586.9,132.2 587.3,136.9 587.6,139.1 588.0,155.2 588.3,127.0 588.7,131.4 589.0,143.5 589.4,136.5 589.7,131.3 590.1,134.5 590.5,144.7 590.8,141.2 591.2,140.8 591.5,147.6 591.9,138.8 592.2,161.4 592.6,154.9 592.9,158.9 593.3,136.5 593.7,135.8 594.0,139.1 594.4,136.8 594.7,140.8 595.1,137.7 595.4,135.1 595.8,138.2 596.1,139.6 596.5,49.1 596.9,152.1 597.2,154.3 597.6,133.6 597.9,104.4 598.3,104.3 598.6,151.3 599.0,134.7 599.4,141.7 599.7,137.7 600.1,137.7 600.4,132.6 600.8,139.0 601.1,140.0 601.5,139.0 601.8,137.4 602.2,133.2 602.6,141.4 602.9,134.7 603.0,141.6 603.3,139.8 603.6,115.3 604.0,153.6 604.3,137.7 604.7,139.5 605.0,135.9 605.4,136.6 605.7,140.5 606.1,153.0 606.5,142.3 606.9,138.0 607.2,140.8 607.5,135.4 607.9,153.9 608.2,149.1 608.6,139.6 609.0,145.8 609.3,138.3 609.7,141.4 610.0,133.6 610.4,133.2 610.7,139.1 611.1,153.0 611.4,134.4 611.8,146.2 612.2,132.7 612.5,139.0 612.9,133.5 613.2,132.7 613.6,140.1 614.0,154.6 614.3,141.9 614.6,140.1 615.0,137.4 615.4,134.1 615.7,138.6 616.1,141.7 616.4,138.2 616.8,139.1 617.1,153.9 617.5,155.6 617.9,134.7 618.2,152.7 618.6,140.3 618.9,140.5 619.3,130.8 619.6,140.3 620.0,43.6 620.3,142.3 620.7,153.9 621.0,139.1 621.4,147.6 621.8,141.4 622.1,151.0 622.5,153.0 622.8,140.7 623.2,135.5 623.5,142.1 623.9,160.5 624.2,154.9 624.6,140.8 625.0,133.5 625.4,141.6 625.7,135.1 626.0,141.6 626.4,132.7 626.7,151.5 627.1,141.7 627.4,151.3 627.8,157.4 628.2,133.5 628.5,137.5 628.9,140.7 629.2,154.6 629.6,138.0 629.9,137.1 630.3,146.2 630.7,135.9 631.0,138.2 631.0,144.5 631.4,137.5 631.7,137.7 632.1,142.7 632.4,140.1 632.8,153.3 633.1,135.6 633.5,133.6 633.9,141.2 634.2,137.2 634.6,139.1 635.0,140.0 635.3,133.9 635.6,146.7 636.0,141.9 636.3,158.1 636.7,139.0 637.1,134.5 637.4,144.7 637.8,147.9 638.1,139.3 638.5,137.4 638.9,140.0 639.2,155.9 639.6,134.5 639.9,130.0 640.3,137.9 640.6,137.9 641.0,141.0 641.3,141.7 641.7,135.5 642.0,149.6 642.4,136.1 642.8,140.7 643.1,134.1 643.5,140.5 643.8,141.4 644.2,133.5 644.5,140.0 644.9,148.1 645.2,141.2 645.6,130.8 646.0,140.8 646.3,135.8 646.7,140.8 647.0,140.3 647.4,158.1 647.7,134.4 648.1,141.0 648.5,133.2 648.8,136.8 649.2,132.5 649.5,133.1 649.9,139.0 650.2,137.5 650.6,142.1 650.9,123.9 651.3,129.8 651.7,129.4 652.0,137.7 652.4,158.9 652.7,132.5 653.1,145.1 653.4,140.5 653.4,136.3 653.8,136.6 654.2,138.2 654.5,145.8 654.9,135.2 655.2,137.2 655.6,150.2 655.9,148.9 656.3,154.9 656.6,141.6 657.0,140.3 657.4,138.2 657.7,140.7 658.1,136.8 658.4,136.2 658.8,140.1 659.1,144.3 659.5,131.3 659.8,136.5 660.2,150.4 660.6,137.5 660.9,133.2 661.3,143.9 661.6,143.1 662.0,141.4 662.3,135.6 662.7,135.5 663.0,140.8 663.4,157.4 663.8,152.7 664.1,148.3 664.5,136.1 664.8,135.1 665.2,138.2 665.5,63.3 665.9,141.2 666.2,139.1 666.6,138.6 667.0,130.7 667.3,142.1 667.7,138.8 668.0,138.2 668.4,142.5 668.7,139.0 669.1,141.4 669.4,139.6 669.8,139.0 670.2,136.3 670.5,136.3 670.9,131.4 671.2,141.6 671.6,141.4 671.9,136.3 672.3,142.5 672.6,135.2 673.0,142.3 673.4,136.3 673.7,147.4 674.1,140.5 674.4,136.8 674.8,155.2 675.1,139.6 675.5,152.1 675.8,137.2 676.2,138.5 676.6,142.3 676.9,136.8 677.3,134.7 677.6,136.2 678.0,142.1 678.3,140.8 678.7,140.3 679.0,140.7 679.4,151.0 679.8,158.9 680.1,157.4 680.5,141.9 680.8,132.4 681.2,133.7 681.5,140.7 681.9,132.0 682.3,138.8 682.6,131.6 682.9,131.1 683.0,133.2 683.3,137.7 683.7,130.5 684.0,147.4 684.4,143.9 684.7,133.6 685.1,138.2 685.4,132.1 685.8,142.7 686.2,129.3 686.5,141.6 686.9,138.5 687.2,146.5 687.6,129.8 687.9,135.9 688.3,134.9 688.6,141.7 689.0,137.1 689.4,123.9 689.7,128.8 690.1,141.4 690.4,138.5 690.8,139.1 691.1,155.2 691.5,147.6 691.8,140.8 692.2,152.1 692.6,154.6 692.9,161.0 693.3,135.5 693.6,141.4 694.0,140.0 694.3,136.6 694.7,140.3 695.1,134.0 695.4,147.9 695.8,133.6 696.1,141.7 696.5,130.5 696.8,145.1 697.2,138.3 697.5,140.7 697.9,133.1 698.2,144.3 698.6,135.6 699.0,133.6 699.3,135.1 699.7,151.5 700.0,153.6 700.4,137.7 700.7,136.2 701.1,151.3 701.4,150.7 701.8,130.6 702.2,134.3 702.5,147.4 702.9,138.8 703.2,140.7 703.6,140.0 703.9,141.0 704.3,154.6 704.6,145.1 705.0,142.5 705.4,140.8 705.7,144.3 706.1,145.6 706.2,141.2 706.4,154.9 706.8,145.1 707.1,137.1 707.5,151.8 707.8,142.7 708.2,133.6 708.6,136.8 708.9,139.5 709.3,135.5 709.6,134.1 710.0,153.6 710.3,140.0 710.7,140.1 711.1,150.4 711.4,158.5 711.8,136.3 712.1,150.4 712.5,161.8 712.8,143.1 713.2,139.1 713.5,142.1 713.9,134.9 714.2,135.4 714.6,157.4 715.0,154.6 715.3,143.3 715.7,67.4 716.0,136.5 716.4,140.3 716.7,137.5 717.1,155.2 717.4,135.4 717.8,130.6 718.2,136.9 718.5,141.4 718.9,142.5 719.2,157.7 719.6,133.4 719.9,103.8 720.3,150.7 720.6,142.5 721.0,139.8 721.4,140.1 721.7,139.3 722.1,148.3 722.4,143.5 722.8,154.3 723.1,135.9 723.5,140.0 723.8,139.0 724.2,134.9 724.5,144.5 724.9,129.9 725.3,134.5 725.6,140.8 726.0,136.3 726.3,141.4 726.7,134.3 727.1,138.5 727.4,138.3 727.8,131.2 728.2,133.9 728.5,134.4 728.8,138.3 729.2,149.6 729.2,158.1 729.5,135.5 729.9,131.1 730.2,131.5 730.6,141.2 731.0,144.9 731.3,156.6 731.7,146.9 732.0,89.7 732.4,130.6 732.7,141.7 733.1,153.3 733.4,139.5 733.8,158.9 734.2,139.3 734.5,139.0 734.9,144.9 735.2,132.5 735.6,147.1 735.9,137.9 736.3,134.7 736.6,156.6 737.0,159.3 737.4,147.4 737.7,141.2 738.1,156.6 738.4,132.5 738.8,141.4 739.1,141.2 739.5,135.9 739.8,139.5 740.2,150.2 740.5,138.0 740.9,144.9 741.3,134.5 741.6,135.1 742.0,141.2 742.3,145.3 742.7,137.2 743.0,143.1 743.4,139.0 743.7,134.9 744.1,136.8 744.5,131.2 744.8,141.7 745.2,152.1 745.5,156.6 745.9,147.9 746.2,149.9 746.6,136.5 747.0,139.5 747.1,137.5 747.3,133.4 747.7,139.5 748.0,133.4 748.4,135.5 748.7,137.7 749.1,147.4 749.4,133.2 749.8,137.7 750.2,136.9 750.5,131.4 750.9,141.6 751.2,152.7 751.6,135.9 751.9,136.1 752.3,141.0 752.6,133.5 753.0,138.6 753.4,128.8 753.7,134.7 754.1,140.1 754.4,135.5 754.8,157.7 755.1,140.8 755.5,153.9 755.8,133.9 756.2,133.0 756.6,153.6 756.9,139.1 757.3,138.3 757.6,148.6 758.0,147.6 758.3,136.1 758.7,140.0 759.0,136.9 759.0,135.5 759.4,136.3 759.7,148.6 760.1,149.1 760.5,122.2 760.8,140.8 761.2,138.0 761.5,135.8 761.9,143.3 762.2,137.1 762.6,141.2 763.0,139.8 763.3,148.3 763.7,133.6 764.0,135.8 764.4,140.3 764.7,131.9 765.1,147.6 765.4,160.5 765.8,82.3 766.2,132.5 766.5,149.6 766.9,134.4 767.2,140.5 767.6,135.9 767.9,136.3 768.3,133.4 768.6,140.7 769.0,132.5 770.0,123.4 770.4,140.0 771.1,133.4 771.5,153.9 771.8,151.3 772.2,139.6 772.5,139.1 772.9,140.0 773.2,130.5 773.6,153.6 774.0,138.6 774.3,135.2 774.7,146.9 775.0,138.5 775.4,150.7 775.7,145.6 776.1,144.9 776.4,128.9 776.8,138.2 777.2,137.9 777.5,151.8 777.9,131.6 778.2,139.0 778.6,139.6 778.9,138.8 779.3,142.3 779.6,126.3 780.0,140.1" fill="none" stroke="#4ecdc4" stroke-width="1.5" opacity="0.6"/>
<polyline points="70.5,123.5 87.2,120.7 89.8,126.1 90.1,144.9 91.9,145.6 93.9,128.5 104.5,133.6 104.8,126.4 105.2,124.8 105.5,143.3 105.9,142.7 106.2,133.1 106.6,144.7 106.9,132.7 107.3,143.5 107.7,123.8 108.1,148.9 108.4,133.9 108.7,131.2 109.1,130.8 109.4,127.7 109.8,124.0 110.2,131.3 110.5,133.5 110.9,145.6 111.2,133.0 111.6,144.9 111.9,123.6 112.3,138.8 112.6,135.1 113.0,123.6 113.1,146.5 113.3,134.9 113.7,121.2 114.1,122.6 114.4,135.8 114.8,139.0 115.1,136.9 115.5,130.3 115.8,137.4 116.2,121.5 116.5,132.0 116.9,136.6 117.3,134.9 117.6,120.0 118.0,145.1 118.3,124.2 118.7,122.5 119.0,133.9 119.4,121.5 119.7,141.6 120.1,136.8 120.5,144.3 120.8,141.9 121.2,124.9 121.5,132.6 121.9,134.7 122.2,126.7 122.6,122.8 123.0,121.4 123.3,124.0 123.7,144.7 124.0,121.5 124.4,121.7 124.7,123.0 125.1,147.6 125.4,117.4 125.8,130.8 126.1,145.8 126.5,136.9 126.9,145.1 127.2,130.8 127.6,124.3 127.9,129.3 128.3,144.5 128.6,133.4 129.0,137.7 129.3,124.4 129.7,142.3 130.1,143.5 130.4,123.3 130.8,91.5 131.1,128.6 131.5,142.5 131.8,117.3 132.2,131.2 132.5,131.4 132.9,135.2 133.1,119.7 133.3,122.3 133.6,130.8 134.0,145.1 134.3,123.6 134.7,120.7 135.0,144.3 135.4,121.6 135.7,123.7 136.1,99.2 136.5,142.5 136.8,123.8 137.2,141.9 137.5,124.2 137.9,131.3 138.2,143.7 138.6,123.1 139.0,120.9 139.3,145.8 139.7,120.7 140.0,136.1 140.4,126.0 140.7,146.7 141.1,120.9 141.4,141.2 141.8,146.0 142.1,121.1 142.5,144.9 142.9,123.9 143.2,126.7 143.6,141.7 143.9,144.5 144.3,145.8 144.6,143.5 145.0,128.1 145.3,122.2 145.7,123.3 146.1,121.8 146.4,121.4 146.8,143.5 147.1,132.5 147.5,123.4 147.8,126.5 148.2,144.9 148.5,121.8 148.9,123.3 149.1,121.4 149.3,121.6 149.6,132.7 150.0,121.3 150.3,126.6 150.7,123.9 151.0,117.7 151.4,120.4 151.7,121.5 152.1,144.5 152.5,130.8 152.8,144.3 153.2,121.7 153.5,121.9 153.9,120.7 154.2,140.5 154.6,118.4 154.9,130.2 155.3,142.7 155.6,130.0 156.0,144.7 156.4,123.9 156.8,125.6 157.1,144.1 157.4,127.4 157.8,139.8 158.1,126.8 158.5,144.7 158.8,137.1 159.2,142.5 159.6,136.1 159.9,135.6 160.3,131.5 160.6,146.5 161.0,123.9 161.3,136.8 161.7,132.1 162.0,120.2 162.4,144.3 162.8,144.9 163.1,121.8 163.5,121.8 163.8,122.0 164.2,126.7 164.5,126.1 164.9,142.7 165.2,146.7 165.6,147.4 166.0,147.4 166.3,143.3 166.7,145.6 167.0,127.2 167.4,119.7 167.7,143.1 168.1,130.8 168.4,123.7 168.8,126.4 169.2,141.2 169.5,120.5 169.9,146.2 170.2,142.3 170.6,123.2 170.9,129.3 171.3,122.9 171.6,120.6 172.0,121.1 172.4,120.7 172.8,117.2 173.1,125.3 173.3,125.9 173.4,146.5 173.8,144.1 174.1,128.6 174.5,133.7 174.8,130.2 175.2,117.0 175.5,120.7 175.9,137.7 176.3,121.5 176.6,115.8 177.0,145.6 177.3,133.9 177.7,131.8 178.0,140.1 178.4,131.9 178.8,129.6 179.1,133.1 179.5,125.9 179.8,116.6 180.2,127.1 180.5,123.2 180.9,123.5 181.2,121.0 181.6,121.5 181.9,142.3 182.3,142.3 182.7,122.1 183.0,123.6 183.4,122.4 183.7,144.1 184.1,144.9 184.4,120.7 184.8,121.3 185.1,142.9 185.5,125.6 185.8,132.9 186.2,122.2 186.6,122.2 186.9,130.6 187.3,130.6 187.6,133.1 188.0,132.4 188.3,134.5 188.7,122.1 189.1,116.1 189.4,146.0 189.8,132.6 190.1,136.2 190.5,121.1 190.8,123.4 191.2,122.8 191.5,121.9 191.9,131.1 192.2,130.6 192.6,143.3 193.0,128.6 193.3,142.9 193.7,145.8 194.0,121.8 194.4,134.7 194.7,130.7 195.1,121.6 195.4,131.6 195.5,128.3 195.8,143.1 196.2,120.7 196.5,133.9 196.9,128.6 197.2,132.1 197.6,131.4 197.9,135.8 198.3,123.8 198.6,129.7 199.0,120.2 199.4,121.5 199.7,121.4 200.1,141.2 200.4,141.6 200.8,131.4 201.1,143.5 201.5,132.9 201.8,135.4 202.2,141.0 202.6,132.4 202.9,136.9 203.3,125.8 203.6,124.1 204.0,142.1 204.3,119.2 204.7,122.9 205.0,134.1 205.4,120.2 205.8,128.1 206.1,131.3 206.5,121.5 206.8,143.1 207.2,136.5 207.5,123.3 207.9,120.2 208.2,138.8 208.6,120.4 209.0,128.1 209.3,122.3 209.7,120.0 210.0,132.7 210.4,127.0 210.7,142.1 211.1,119.3 211.5,116.8 211.8,133.1 212.2,139.8 212.5,121.6 212.9,123.3 213.2,144.3 213.6,135.1 213.9,143.9 214.3,123.8 214.7,120.4 215.0,120.2 215.4,142.1 215.7,124.1 216.1,144.5 216.4,132.1 216.8,131.6 217.2,136.3 217.5,146.7 217.9,145.1 218.2,129.6 218.6,145.6 218.9,126.5 219.3,143.3 219.6,120.8 220.0,126.7 220.4,124.8 220.7,122.2 221.1,122.2 221.4,126.3 221.8,146.0 222.1,142.9 222.5,120.9 222.9,125.5 223.2,146.0 223.6,123.2 228.1,131.5 232.5,123.8 232.9,130.8 233.2,123.4 233.6,121.1 233.9,127.9 234.3,143.1 234.7,147.1 235.0,140.7 235.4,117.7 235.7,133.0 236.1,146.2 236.4,123.6 236.8,141.6 237.1,143.3 237.5,119.4 237.9,131.9 238.2,129.6 238.6,142.3 238.9,136.8 239.3,131.6 239.6,130.7 240.0,120.6 240.4,121.0 240.7,123.7 241.1,133.9 241.4,124.7 241.8,140.5 242.1,137.2 242.5,119.0 242.8,131.8 243.2,131.6 243.6,142.1 243.9,144.5 244.3,126.2 244.6,130.4 245.0,121.3 245.3,130.5 245.7,123.8 246.0,132.7 246.4,142.1 246.8,119.0 247.1,121.3 247.5,147.9 247.8,143.1 248.2,145.3 248.5,143.9 248.9,132.9 249.2,136.9 249.6,137.9 250.0,145.1 250.3,122.4 250.7,144.3 251.0,126.4 251.4,129.8 251.7,131.3 252.1,143.1 252.5,132.7 252.8,124.1 253.2,124.2 253.5,143.9 253.9,142.5 254.2,142.7 254.6,122.8 254.9,134.8 255.3,120.7 255.6,134.9 255.7,120.7 256.0,143.3 256.4,140.1 256.7,145.1 257.1,144.1 257.4,145.3 257.8,144.9 258.1,124.8 258.5,137.2 258.9,144.3 259.2,119.3 259.6,143.7 259.9,147.6 260.3,133.7 260.6,124.8 261.0,133.2 261.3,141.4 261.7,132.9 262.1,122.9 262.4,145.3 262.8,130.8 263.1,123.3 263.5,145.3 263.8,135.8 264.2,118.9 264.5,141.0 264.9,132.2 265.3,122.7 265.6,121.1 266.0,121.6 266.3,133.5 266.7,146.5 267.0,121.8 267.4,143.7 267.8,120.7 268.1,142.5 268.5,121.2 268.8,143.9 269.2,121.8 269.5,131.8 269.9,145.3 270.2,131.4 270.6,124.9 271.0,141.7 271.3,123.6 271.7,121.2 272.0,126.2 272.4,146.5 272.7,124.1 273.1,135.2 273.2,64.3 273.4,139.6 273.8,131.4 274.1,135.6 274.5,136.6 274.9,134.8 275.2,142.5 275.6,123.7 275.9,121.4 276.3,141.2 276.6,114.6 277.0,144.9 277.3,120.9 277.7,120.7 278.1,143.3 278.4,123.9 278.8,145.6 279.1,131.2 279.5,130.0 279.8,118.1 280.2,141.9 280.5,134.5 280.9,120.8 281.3,133.1 281.6,131.1 282.0,117.4 282.3,132.0 282.7,118.4 283.0,123.5 283.4,126.6 283.8,131.5 284.1,123.0 284.5,119.9 284.8,145.8 285.2,124.3 285.5,136.1 285.9,135.8 286.2,122.5 286.6,119.0 286.9,144.9 287.3,146.0 287.7,125.0 288.0,145.1 288.4,123.3 288.7,145.6 289.1,142.9 289.4,128.4 289.8,134.1 290.1,135.6 290.5,146.0 290.9,120.7 291.2,124.3 291.6,131.8 291.9,132.7 292.3,126.3 292.6,132.7 293.0,120.0 293.4,121.8 293.7,122.9 294.1,141.6 294.4,122.7 294.8,131.8 295.1,120.7 295.5,148.3 295.8,127.8 296.2,124.3 296.6,128.5 296.9,121.0 297.1,123.2 297.3,143.7 297.7,144.5 298.0,135.4 298.3,126.0 298.7,124.3 299.0,123.7 299.4,145.3 299.8,121.8 300.1,121.8 300.5,121.3 300.8,145.3 301.2,141.4 301.5,121.8 301.9,121.6 302.2,145.1 302.6,143.7 303.0,133.5 303.3,118.6 303.7,142.5 304.0,120.4 304.4,142.5 304.7,129.9 305.1,140.3 305.4,120.0 305.8,124.7 306.2,147.1 306.5,121.3 306.9,130.4 307.2,120.0 307.6,145.6 307.9,146.5 308.3,141.9 308.7,121.2 309.0,131.4 309.4,121.1 309.7,121.3 310.1,120.8 310.4,130.0 310.8,121.0 311.1,141.2 311.5,123.4 311.8,144.3 312.2,137.1 312.6,145.3 312.9,122.0 313.3,131.5 313.6,122.3 314.0,126.6 314.3,119.0 314.7,121.6 315.1,119.0 315.4,121.2 315.8,132.4 316.1,125.3 316.5,120.1 316.8,142.5 317.2,127.6 317.5,120.2 317.9,120.9 318.3,121.0 318.6,144.7 319.0,128.9 319.3,144.7 319.7,131.5 320.0,133.0 320.4,131.1 320.7,142.7 321.1,130.3 321.4,141.0 321.8,144.1 325.5,123.8 332.8,129.3 342.2,130.0 349.1,131.1 352.1,146.0 352.4,125.0 352.8,141.4 353.2,127.9 353.5,131.4 353.9,135.5 354.2,136.1 354.6,134.5 354.9,126.0 355.3,140.0 355.6,145.6 356.0,121.8 356.4,142.1 356.7,120.9 357.1,120.9 357.4,124.1 357.8,130.3 358.1,144.9 358.5,124.1 358.9,123.0 359.2,141.4 359.6,131.2 359.9,126.5 360.3,144.1 360.6,124.7 361.0,120.2 361.3,119.8 361.7,144.3 362.1,130.8 362.4,129.3 362.8,142.7 363.1,135.6 363.5,146.5 363.8,124.2 364.2,116.0 364.5,125.8 364.9,133.1 365.3,121.7 365.6,129.6 366.0,132.1 366.3,127.1 366.5,119.7 366.7,123.8 367.0,126.0 367.4,146.5 367.7,126.0 368.1,128.4 368.5,144.7 368.8,136.8 369.2,131.5 369.5,131.3 369.9,129.9 370.2,120.9 370.6,143.7 370.9,120.2 371.3,123.3 371.7,132.9 372.0,128.9 372.4,130.3 372.7,86.3 373.1,123.2 373.4,120.4 373.8,130.6 374.1,117.8 374.5,140.8 374.9,143.1 375.2,118.8 375.6,145.8 375.9,139.5 376.3,123.9 376.6,123.3 377.0,118.6 377.4,125.0 377.7,123.3 378.1,120.6 378.4,134.9 378.8,124.0 379.1,146.5 379.2,126.1 379.5,131.5 379.8,125.8 380.2,143.1 380.5,131.2 380.9,143.1 381.3,103.1 381.6,140.7 382.0,129.7 382.3,141.7 382.7,126.2 383.0,130.6 383.4,133.1 383.7,130.6 384.1,133.5 384.5,122.2 384.8,120.3 385.2,143.1 385.5,119.1 385.9,142.1 386.2,128.7 386.6,133.1 386.9,140.7 387.3,131.5 387.7,119.8 388.0,123.8 388.4,124.3 388.7,123.6 389.1,146.2 389.4,120.7 389.8,140.3 390.2,120.7 390.5,122.0 390.9,130.5 391.2,122.5 391.6,144.1 391.9,144.7 392.3,137.7 392.6,131.9 393.0,146.0 393.3,125.9 393.7,146.7 394.1,123.3 394.4,130.9 394.8,123.8 395.1,122.8 395.5,143.9 395.8,126.9 396.2,133.9 396.5,145.3 396.9,124.3 397.3,142.3 397.6,130.9 398.0,146.7 398.3,121.1 398.7,146.0 399.0,120.3 399.4,135.6 399.7,146.5 400.1,126.6 400.5,121.1 400.8,120.6 401.2,129.3 401.5,121.8 401.9,119.9 402.2,143.3 402.6,134.3 403.0,132.0 403.3,144.5 403.7,137.5 403.9,145.6 404.0,134.1 404.4,121.6 404.7,140.7 405.1,121.2 405.4,129.5 405.8,134.0 406.1,124.9 406.5,131.3 406.9,131.4 407.2,145.3 407.6,145.8 407.9,135.1 408.3,121.3 408.6,123.3 409.0,143.9 409.4,143.7 409.7,143.1 410.1,136.6 410.4,136.9 410.8,135.8 411.1,119.6 411.5,127.6 411.9,121.2 412.2,130.7 412.6,132.4 412.9,126.9 413.3,147.1 413.6,143.5 414.0,134.8 414.3,136.2 414.7,145.8 415.0,138.2 415.4,140.8 415.8,124.1 416.1,135.8 416.5,142.5 416.8,136.1 417.2,116.9 417.5,130.7 417.9,135.6 418.3,140.3 418.6,123.8 419.0,144.3 419.3,129.9 419.7,143.1 420.0,123.3 420.4,124.3 420.7,131.9 421.1,143.5 421.5,141.2 421.8,137.9 422.2,121.0 422.5,131.3 422.9,144.5 423.2,123.7 423.6,122.9 423.9,143.5 424.3,143.9 424.9,141.9 425.0,142.7 425.4,122.8 425.8,141.7 426.1,144.5 426.5,136.1 426.8,125.8 427.2,142.9 427.5,121.6 427.9,120.9 428.3,144.5 428.6,126.0 428.9,142.5 429.3,135.9 429.7,134.9 430.0,143.7 430.4,132.1 430.7,121.7 431.1,124.1 431.4,124.3 431.8,126.3 432.1,144.3 432.3,142.3 432.5,123.6 432.9,132.7 433.2,122.9 433.6,126.1 433.9,129.7 434.3,130.8 434.6,119.2 435.0,144.5 435.4,122.6 435.7,131.2 436.1,131.8 436.4,143.9 436.8,119.0 437.1,125.1 437.5,118.9 437.8,143.9 438.2,120.9 438.6,123.1 438.9,120.5 439.3,144.9 439.6,121.2 440.0,128.9 440.3,97.8 440.7,141.2 441.0,141.7 441.4,125.6 441.8,129.0 442.1,135.8 442.5,144.3 442.8,139.3 443.2,142.5 443.5,125.4 443.9,122.3 444.3,134.7 444.6,107.5 445.0,122.1 445.3,116.9 445.7,119.6 446.0,135.6 446.4,139.3 446.7,122.1 447.1,120.3 447.5,140.8 447.8,130.4 448.2,131.8 448.5,123.3 448.9,131.5 449.2,138.5 449.6,125.2 450.0,121.5 450.3,144.1 450.7,145.8 451.0,140.7 451.4,144.1 451.7,146.5 452.1,121.2 452.4,121.0 452.8,124.5 453.2,123.7 453.5,123.3 453.9,143.3 454.2,134.9 454.2,145.1 454.6,122.9 454.9,122.6 455.3,123.6 455.6,134.0 456.0,121.2 456.4,122.9 456.7,120.9 457.1,125.7 457.4,130.9 457.8,139.6 458.1,120.4 458.5,123.6 458.8,117.9 459.2,131.4 459.6,125.9 459.9,131.5 460.3,140.8 460.6,122.6 461.0,142.3 461.3,131.9 461.7,122.7 462.0,127.3 462.4,121.2 462.8,144.7 463.1,123.7 463.5,142.3 463.8,125.7 464.2,144.5 464.5,142.7 464.9,142.9 465.2,141.7 465.6,134.5 466.0,144.7 466.4,122.1 466.7,144.1 467.0,136.8 467.4,145.6 467.7,142.7 468.1,144.9 468.4,123.0 468.8,120.5 469.2,122.9 469.5,122.9 469.9,123.7 470.2,143.5 470.3,135.4 470.6,135.9 470.9,129.4 471.3,135.2 471.7,121.0 472.0,126.4 472.4,124.5 472.7,126.5 473.1,121.2 473.4,121.1 473.8,143.9 474.1,146.0 474.5,143.7 474.8,122.8 475.2,144.5 475.6,145.6 475.9,123.7 476.3,141.6 476.6,120.0 477.0,122.1 477.3,120.3 477.7,122.9 478.1,127.0 478.4,128.8 478.8,144.5 479.1,121.1 479.5,122.9 479.8,145.8 480.2,144.3 480.5,141.2 480.9,143.1 481.2,117.5 481.6,144.7 482.0,125.6 482.3,122.9 482.7,135.4 483.0,141.9 483.2,119.7 483.4,146.0 483.7,130.6 484.1,135.8 484.4,135.9 484.8,143.7 485.2,141.7 485.5,123.1 485.9,121.5 486.2,121.8 486.6,119.1 486.9,140.3 487.3,130.9 487.7,141.7 488.0,119.7 488.4,122.0 488.7,123.8 489.1,141.6 489.4,120.5 489.8,142.1 490.1,141.9 490.5,123.2 490.8,122.9 491.2,138.6 491.6,142.9 491.9,144.9 492.3,142.3 492.6,120.7 493.0,127.7 493.3,129.4 493.7,134.4 494.0,132.4 494.4,130.0 494.8,121.7 495.1,134.1 495.5,122.0 495.8,129.4 496.2,121.5 496.5,119.5 496.9,124.3 497.2,127.1 497.6,122.0 498.0,119.6 498.3,123.8 498.7,146.5 499.0,132.6 499.4,127.5 499.7,142.5 500.1,121.0 500.5,118.3 500.8,120.6 501.2,121.8 501.5,142.1 501.9,129.4 502.2,146.5 502.6,126.5 502.9,131.8 503.3,132.5 503.6,121.8 504.0,127.9 504.4,122.7 504.7,127.3 505.1,135.1 505.4,141.7 505.8,132.0 506.1,147.4 506.5,136.6 506.8,131.3 507.2,145.1 507.6,130.8 507.9,143.5 508.3,121.7 508.6,144.7 509.0,142.5 509.3,123.7 509.7,122.9 510.0,146.2 510.4,147.4 510.8,143.1 511.1,121.2 511.5,132.0 511.8,146.7 512.1,126.3 512.2,123.1 512.5,146.2 512.9,134.0 513.2,136.8 513.6,135.9 514.0,140.3 514.3,125.3 514.7,120.8 515.0,125.9 515.4,131.3 515.7,122.3 516.1,141.6 516.5,120.4 516.8,121.0 517.2,123.5 517.5,134.7 517.9,123.3 518.3,144.7 518.6,121.1 518.9,134.4 519.3,143.9 519.7,123.8 520.0,121.6 520.4,122.6 520.8,135.9 521.1,142.9 521.4,137.4 521.8,120.4 522.1,124.0 522.5,136.2 522.9,122.8 523.2,123.8 523.6,121.2 523.9,123.3 524.3,146.0 524.6,122.8 525.0,124.4 525.3,145.6 525.7,116.9 526.1,129.7 526.4,124.0 526.8,142.1 527.1,122.0 527.5,120.4 527.8,145.8 528.2,132.4 528.5,122.2 528.9,125.1 529.3,123.3 529.7,122.5 530.0,135.8 530.3,144.5 530.7,144.9 531.1,142.3 531.4,120.1 531.7,124.9 532.1,141.7 532.5,130.9 532.8,143.1 533.2,132.9 533.5,121.8 533.9,142.7 534.3,124.3 534.6,122.9 535.0,128.8 535.3,124.1 535.7,124.5 536.0,120.9 536.4,144.9 536.7,122.2 537.1,145.1 537.4,144.7 537.8,125.3 538.2,125.9 538.5,146.9 538.9,142.7 539.2,121.1 539.6,144.1 539.9,119.4 540.3,122.5 540.7,129.6 541.0,144.7 541.4,143.1 541.7,122.3 542.1,144.7 542.4,120.7 542.8,144.9 543.1,131.5 543.5,120.8 543.9,143.7 544.2,139.3 544.6,130.9 544.9,119.9 545.3,140.5 545.6,127.9 546.0,121.2 546.3,121.7 546.7,123.1 547.1,123.3 547.4,141.6 547.8,126.5 548.1,132.0 548.5,142.9 548.8,132.7 549.2,146.0 549.5,136.3 549.9,122.5 550.3,119.9 550.6,118.4 551.0,128.2 551.3,126.7 551.7,130.2 552.0,120.7 552.4,118.6 552.8,129.6 553.1,138.5 553.5,144.9 553.8,123.2 554.2,119.9 554.5,129.5 554.9,141.2 555.2,144.5 555.6,120.2 556.0,133.4 556.3,140.1 556.7,131.4 557.0,132.4 557.4,142.9 557.8,119.6 558.1,144.7 558.4,134.0 558.8,121.8 559.2,121.2 559.5,124.0 559.9,119.9 560.3,132.4 560.6,128.5 561.0,124.5 561.3,132.6 561.7,144.1 562.0,120.2 562.4,124.0 562.7,131.2 563.1,132.0 563.4,124.9 563.6,141.0 563.8,131.4 564.1,141.9 564.5,140.5 564.9,134.9 565.2,145.3 565.6,126.3 565.9,124.8 566.3,141.6 566.6,135.2 567.0,135.8 567.4,121.0 567.7,121.7 568.1,124.1 568.4,130.6 568.8,142.5 569.1,125.3 569.5,140.8 569.8,133.1 570.2,131.6 570.5,131.8 570.9,123.5 571.3,144.5 571.6,131.9 572.0,133.1 572.3,143.3 572.7,126.4 573.0,135.1 573.4,142.7 573.8,124.5 574.1,127.7 574.5,122.1 574.8,134.9 575.2,121.2 575.5,143.9 575.9,134.3 576.2,126.8 576.6,132.1 576.9,124.3 577.3,132.6 577.7,119.5 578.0,120.8 578.4,130.3 578.7,141.7 579.1,121.5 579.4,121.8 579.8,121.5 580.1,140.1 580.5,121.3 580.9,123.0 581.2,142.3 581.6,144.1 581.9,130.4 582.3,135.8 582.6,123.9 583.0,120.2 583.3,123.0 583.7,128.3 584.1,102.0 584.4,143.1 584.8,142.1 585.1,128.1 585.5,123.3 585.8,132.0 586.2,139.5 586.6,121.1 586.9,119.6 587.3,129.7 587.6,121.2 588.0,140.7 588.3,121.6 588.7,122.7 589.0,134.4 589.4,121.7 589.7,127.0 590.1,122.9 590.5,137.2 590.8,143.1 591.2,146.5 591.5,145.1 591.9,131.4 592.2,147.1 592.6,144.3 592.9,140.5 593.3,123.0 593.7,125.5 594.0,144.5 594.4,124.3 594.7,116.8 595.1,121.5 595.4,122.9 595.8,133.6 596.1,129.4 596.5,142.9 596.9,141.9 597.2,141.0 597.6,120.3 597.9,137.4 598.3,129.6 598.6,139.5 599.0,132.5 599.4,122.0 599.7,131.3 600.1,135.8 600.4,126.0 600.8,134.5 601.1,145.8 601.5,144.3 601.8,122.9 602.2,122.1 602.6,142.3 602.9,121.4 603.0,146.2 603.3,134.3 603.6,124.0 604.0,136.6 604.3,131.8 604.7,120.9 605.0,123.3 605.4,118.6 605.7,145.1 606.1,143.5 606.5,144.7 606.9,123.8 607.2,122.2 607.5,123.8 607.9,142.3 608.2,144.5 608.6,121.1 609.0,129.8 609.3,121.8 609.7,121.8 610.0,127.4 610.4,123.6 610.7,131.1 611.1,141.7 611.4,123.6 611.8,134.1 612.2,123.8 612.5,121.9 612.9,127.8 613.2,127.3 613.6,146.2 614.0,142.1 614.3,143.7 614.6,129.9 615.0,124.0 615.4,123.8 615.7,136.6 616.1,131.9 616.4,131.6 616.8,122.3 617.1,143.1 617.5,143.1 617.9,120.5 618.2,145.3 618.6,121.7 618.9,140.0 619.3,124.0 619.6,122.0 620.0,144.9 620.3,144.9 620.7,140.8 621.0,131.6 621.4,145.1 621.8,131.1 622.1,142.1 622.5,138.0 622.8,121.7 623.2,124.5 623.5,132.7 623.9,142.5 624.2,141.0 624.6,140.5 625.0,126.8 625.4,121.7 625.7,119.3 626.0,122.7 626.4,125.9 626.7,141.9 627.1,142.3 627.4,136.5 627.8,145.1 628.2,120.4 628.5,126.9 628.9,120.7 629.2,141.7 629.6,124.5 629.9,124.3 630.3,134.9 630.7,128.0 631.0,124.6 631.0,135.4 631.4,133.2 631.7,129.7 632.1,129.7 632.4,123.5 632.8,143.9 633.1,123.6 633.5,120.8 633.9,119.7 634.2,129.4 634.6,134.9 635.0,119.3 635.3,119.1 635.6,137.9 636.0,143.7 636.3,143.5 636.7,121.3 637.1,123.3 637.4,142.7 637.8,135.6 638.1,123.9 638.5,131.1 638.9,119.0 639.2,144.9 639.6,132.7 639.9,117.2 640.3,120.9 640.6,122.7 641.0,130.9 641.3,132.9 641.7,126.0 642.0,142.7 642.4,123.0 642.8,132.6 643.1,126.7 643.5,121.2 643.8,129.0 644.2,123.1 644.5,125.9 644.9,132.7 645.2,122.2 645.6,123.6 646.0,120.4 646.3,118.8 646.7,142.3 647.0,143.5 647.4,144.1 647.7,124.1 648.1,119.4 648.5,122.6 648.8,124.2 649.2,123.3 649.5,123.5 649.9,145.3 650.2,121.0 650.6,122.4 650.9,122.9 651.3,125.4 651.7,113.7 652.0,120.4 652.4,146.9 652.7,127.0 653.1,141.2 653.4,116.6 653.4,124.5 653.8,133.2 654.2,121.5 654.5,142.3 654.9,127.8 655.2,121.3 655.6,144.9 655.9,109.9 656.3,145.8 656.6,122.4 657.0,131.9 657.4,121.1 657.7,131.6 658.1,128.8 658.4,131.5 658.8,121.5 659.1,143.5 659.5,119.6 659.8,130.9 660.2,130.0 660.6,120.2 660.9,126.1 661.3,141.0 661.6,142.9 662.0,131.4 662.3,124.1 662.7,125.2 663.0,120.9 663.4,141.6 663.8,147.4 664.1,136.9 664.5,123.8 664.8,122.8 665.2,130.7 665.5,134.7 665.9,144.5 666.2,130.9 666.6,124.1 667.0,125.5 667.3,144.7 667.7,125.0 668.0,119.2 668.4,140.5 668.7,119.9 669.1,140.7 669.4,144.3 669.8,121.2 670.2,123.4 670.5,124.5 670.9,122.7 671.2,137.9 671.6,121.2 671.9,129.7 672.3,143.7 672.6,123.9 673.0,128.1 673.4,118.3 673.7,141.9 674.1,113.3 674.4,121.2 674.8,140.1 675.1,121.2 675.5,143.5 675.8,131.9 676.2,131.5 676.6,121.7 676.9,124.1 677.3,121.9 677.6,132.4 678.0,121.2 678.3,136.6 678.7,143.1 679.0,148.1 679.4,146.0 679.8,145.1 680.1,142.7 680.5,121.8 680.8,130.5 681.2,132.7 681.5,142.3 681.9,127.6 682.3,134.7 682.6,126.2 682.9,119.2 683.0,125.1 683.3,130.5 683.7,122.1 684.0,143.7 684.4,144.3 684.7,122.3 685.1,119.0 685.4,127.6 685.8,132.5 686.2,127.9 686.5,141.9 686.9,139.3 687.2,142.5 687.6,119.9 687.9,120.9 688.3,121.9 688.6,132.6 689.0,121.2 689.4,125.0 689.7,114.2 690.1,140.8 690.4,121.7 690.8,131.4 691.1,144.9 691.5,143.9 691.8,133.7 692.2,144.3 692.6,144.5 692.9,145.3 693.3,121.2 693.6,146.2 694.0,130.4 694.3,121.5 694.7,130.8 695.1,122.7 695.4,141.4 695.8,124.1 696.1,146.0 696.5,126.9 696.8,134.9 697.2,132.0 697.5,145.3 697.9,131.1 698.2,131.3 698.6,123.0 699.0,124.0 699.3,123.9 699.7,144.3 700.0,137.4 700.4,145.6 700.7,124.0 701.1,147.4 701.4,145.6 701.8,121.2 702.2,131.4 702.5,143.7 702.9,132.7 703.2,132.1 703.6,139.6 703.9,133.9 704.3,143.9 704.6,142.5 705.0,121.9 705.4,121.5 705.7,133.6 706.1,141.6 706.2,137.9 706.4,146.0 706.8,132.5 707.1,127.0 707.5,136.8 707.8,131.8 708.2,124.2 708.6,118.7 708.9,131.3 709.3,130.2 709.6,123.3 710.0,138.5 710.3,137.2 710.7,121.7 711.1,144.7 711.4,142.5 711.8,128.3 712.1,135.2 712.5,146.0 712.8,130.0 713.2,132.2 713.5,131.3 713.9,118.0 714.2,125.2 714.6,146.9 715.0,138.3 715.3,121.7 715.7,136.6 716.0,125.0 716.4,135.9 716.7,132.1 717.1,146.5 717.4,127.9 717.8,122.8 718.2,121.3 718.5,147.6 718.9,129.3 719.2,146.2 719.6,122.3 719.9,134.5 720.3,145.6 720.6,142.5 721.0,134.1 721.4,131.4 721.7,133.4 722.1,145.3 722.4,121.3 722.8,141.4 723.1,122.2 723.5,136.8 723.8,120.8 724.2,125.8 724.5,136.3 724.9,121.7 725.3,124.6 725.6,131.9 726.0,124.5 726.3,131.6 726.7,120.9 727.1,120.6 727.4,121.9 727.8,114.6 728.2,127.1 728.5,124.3 728.8,132.6 729.2,136.5 729.2,145.8 729.5,124.4 729.9,120.8 730.2,120.7 730.6,133.1 731.0,137.2 731.3,146.2 731.7,137.5 732.0,122.0 732.4,124.1 732.7,100.6 733.1,145.3 733.4,121.7 733.8,145.1 734.2,132.5 734.5,121.4 734.9,135.9 735.2,123.0 735.6,135.4 735.9,147.9 736.3,121.6 736.6,144.5 737.0,144.1 737.4,137.9 737.7,135.1 738.1,143.7 738.4,121.5 738.8,121.6 739.1,132.7 739.5,122.9 739.8,144.7 740.2,145.6 740.5,129.0 740.9,135.8 741.3,114.2 741.6,122.7 742.0,120.9 742.3,135.5 742.7,132.6 743.0,144.9 743.4,132.5 743.7,130.2 744.1,123.6 744.5,119.9 744.8,142.5 745.2,141.4 745.5,143.7 745.9,136.8 746.2,136.2 746.6,145.8 747.0,131.9 747.1,120.8 747.3,124.8 747.7,132.9 748.0,126.6 748.4,120.2 748.7,120.2 749.1,136.2 749.4,122.2 749.8,131.1 750.2,123.8 750.5,119.9 750.9,142.5 751.2,145.1 751.6,124.5 751.9,124.1 752.3,119.8 752.6,126.1 753.0,121.5 753.4,120.2 753.7,120.3 754.1,121.0 754.4,120.7 754.8,141.6 755.1,130.6 755.5,142.3 755.8,120.4 756.2,120.6 756.6,141.0 756.9,132.6 757.3,143.9 757.6,146.0 758.0,146.5 758.3,124.0 758.7,120.5 759.0,133.5 759.0,121.7 759.4,123.5 759.7,144.3 760.1,135.1 760.5,121.5 760.8,141.7 761.2,124.4 761.5,125.9 761.9,145.1 762.2,120.4 762.6,135.8 763.0,120.4 763.3,143.7 763.7,122.2 764.0,133.9 764.4,121.5 764.7,126.1 765.1,141.2 765.4,103.7 765.8,121.0 766.2,119.2 766.5,143.7 766.9,124.3 767.2,121.7 767.6,123.9 767.9,123.8 768.3,127.8 768.6,146.2 769.0,127.7 770.0,102.1 770.4,136.6 771.1,125.9 771.5,145.6 771.8,146.0 772.2,121.2 772.5,129.1 772.9,132.0 773.2,124.7 773.6,144.5 774.0,131.1 774.3,125.3 774.7,135.9 775.0,134.7 775.4,143.7 775.7,136.1 776.1,141.7 776.4,120.6 776.8,133.0 777.2,133.4 777.5,144.7 777.9,108.1 778.2,133.0 778.6,146.5 778.9,131.3 779.3,121.9 779.6,125.8 780.0,144.7" fill="none" stroke="#ff6b6b" stroke-width="1.5" opacity="0.6"/>
<circle cx="660" cy="50" r="4" fill="#4ecdc4"/><text x="670" y="50" fill="#e0e0e0" dominant-baseline="middle">Hub API</text>
<circle cx="660" cy="68" r="4" fill="#ff6b6b"/><text x="670" y="68" fill="#e0e0e0" dominant-baseline="middle">Registry</text>
<line x1="656" y1="82" x2="664" y2="82" stroke="#e0e0e0" stroke-width="1.5" stroke-dasharray="4,3" opacity="0.7"/><text x="670" y="86" fill="#e0e0e0" dominant-baseline="middle">Timeout</text>
<text x="70" y="288" fill="#4ecdc4" font-size="11">min: 46ms  max: 11148ms  avg: 168ms  timeouts: 0</text>
<text x="70" y="304" fill="#ff6b6b" font-size="11">min: 89ms  max: 3794ms  avg: 214ms  timeouts: 0</text>
</svg>
