<svg xmlns="http://www.w3.org/2000/svg" viewBox="0 0 800 340" font-family="monospace" font-size="12">
<rect width="800" height="340" fill="#1a1a2e"/>
<text x="400" y="24" fill="#e0e0e0" font-size="14" text-anchor="middle">Last 7 days</text>
<line x1="70" y1="40" x2="70" y2="250" stroke="#444" stroke-width="1"/>
<line x1="70" y1="250" x2="780" y2="250" stroke="#444" stroke-width="1"/>
<line x1="70" y1="250" x2="780" y2="250" stroke="#333" stroke-width="1" stroke-dasharray="4"/>
<text x="65" y="250" fill="#888" text-anchor="end" dominant-baseline="middle">1ms</text>
<line x1="70" y1="204" x2="780" y2="204" stroke="#333" stroke-width="1" stroke-dasharray="4"/>
<text x="65" y="204" fill="#888" text-anchor="end" dominant-baseline="middle">10ms</text>
<line x1="70" y1="158" x2="780" y2="158" stroke="#333" stroke-width="1" stroke-dasharray="4"/>
<text x="65" y="158" fill="#888" text-anchor="end" dominant-baseline="middle">100ms</text>
<line x1="70" y1="112" x2="780" y2="112" stroke="#333" stroke-width="1" stroke-dasharray="4"/>
<text x="65" y="112" fill="#888" text-anchor="end" dominant-baseline="middle">1s</text>
<line x1="70" y1="66" x2="780" y2="66" stroke="#333" stroke-width="1" stroke-dasharray="4"/>
<text x="65" y="66" fill="#888" text-anchor="end" dominant-baseline="middle">10s</text>
<text x="70" y="270" fill="#888" text-anchor="middle">Oct 03</text>
<text x="212" y="270" fill="#888" text-anchor="middle">Oct 05</text>
<text x="354" y="270" fill="#888" text-anchor="middle">Oct 06</text>
<text x="496" y="270" fill="#888" text-anchor="middle">Oct 08</text>
<text x="638" y="270" fill="#888" text-anchor="middle">Oct 09</text>
<text x="780" y="270" fill="#888" text-anchor="middle">Oct 10</text>
<polyline points="70.1,160.7 70.5,136.9 70.8,153.3 71.2,150.8 71.6,148.9 71.9,155.5 72.3,150.0 72.6,153.7 73.0,152.4 73.4,160.0 73.7,146.9 74.1,148.9 74.4,152.9 74.8,145.4 75.1,159.3 75.5,170.8 75.8,101.5 76.2,145.9 76.5,161.1 76.9,147.6 77.3,153.0 77.6,149.0 78.0,149.4 78.3,146.7 78.7,153.2 79.0,145.9 80.0,137.9 80.5,152.6 81.1,146.7 81.5,164.9 81.9,162.6 82.2,152.3 82.6,151.8 82.9,152.6 83.3,144.2 83.6,164.7 84.0,151.4 84.3,148.4 84.7,158.7 85.1,151.3 85.4,162.1 85.8,157.5 86.1,157.0 86.5,142.7 86.8,151.0 87.2,150.7 87.5,163.1 87.9,145.2 88.3,151.7 88.6,152.3 89.0,151.5 89.3,154.6 89.7,140.5 90.0,152.7 90.4,146.8 90.8,162.8 91.1,147.6 91.5,160.7 91.8,165.5 92.2,152.9 92.5,163.1 92.9,153.5 93.2,151.7 93.6,163.1 93.9,150.2 94.3,152.7 94.7,153.5 95.0,153.8 95.4,149.6 95.7,143.8 96.0,144.5 96.1,145.4 96.4,148.5 96.8,148.7 97.1,153.8 97.5,157.1 97.9,147.8 98.2,170.0 98.6,150.6 98.9,150.3 99.3,168.3 99.6,152.6 100.0,151.4 100.3,146.6 100.7,155.9 101.1,153.0 101.4,166.4 101.8,166.1 102.1,168.3 102.5,145.7 102.9,159.6 103.2,155.3 103.5,162.8 103.9,148.6 104.3,144.3 104.6,153.5 105.0,155.2 105.3,147.6 105.7,163.1 106.0,152.3 106.4,147.1 106.7,149.5 107.1,162.8 107.4,152.3 107.8,155.5 108.2,152.3 108.5,153.5 108.9,158.9 109.2,152.0 109.6,163.6 109.9,154.1 110.3,164.7 110.7,145.6 111.0,153.5 111.4,169.0 111.7,149.1 112.1,146.3 112.4,171.9 112.8,146.4 113.1,144.4 113.5,149.6 113.9,142.8 114.2,158.1 114.6,148.4 114.9,147.9 115.3,155.0 115.6,170.0 116.0,160.9 116.3,154.8 116.7,151.7 117.0,154.6 117.4,146.7 117.8,153.3 118.1,159.6 118.5,154.6 118.8,155.0 119.2,151.8 119.5,152.7 119.9,149.1 120.1,146.8 120.2,163.6 120.6,155.3 121.0,152.1 121.3,152.6 142.1,164.4 142.5,152.6 142.8,157.9 143.2,145.9 143.5,153.0 143.9,149.5 144.8,152.7 145.2,156.0 145.5,148.5 145.9,155.9 146.3,153.0 146.7,153.8 147.0,148.6 147.4,151.4 147.8,143.9 148.1,147.9 148.5,152.9 148.8,173.2 149.2,145.1 149.5,157.7 149.9,148.1 150.2,158.5 150.6,154.6 151.0,151.8 151.3,159.3 151.7,152.3 152.0,149.2 152.4,155.3 152.7,150.4 153.1,162.1 153.4,152.4 153.8,150.2 154.2,164.4 154.5,153.2 154.9,147.5 155.2,147.5 155.6,163.3 155.9,154.8 156.3,162.1 156.6,155.5 157.0,153.0 157.4,144.4 157.7,118.6 158.1,147.3 158.4,147.6 158.8,154.0 159.1,154.1 159.5,119.3 159.8,144.3 160.2,149.5 160.5,162.8 160.9,144.6 161.3,146.4 161.6,148.0 162.0,149.6 162.4,153.8 162.7,163.6 163.0,152.1 163.4,163.9 163.6,154.0 163.7,166.1 164.1,143.0 164.5,148.4 164.8,139.8 165.2,152.7 165.5,149.0 165.9,152.4 166.2,169.3 166.6,153.8 167.0,150.3 167.3,155.7 167.7,144.8 168.0,158.1 168.4,160.4 168.7,156.0 169.1,144.2 169.4,146.5 169.8,149.8 170.1,171.6 170.5,153.8 170.9,151.1 171.2,151.4 171.6,154.3 171.9,152.6 172.3,148.4 172.6,161.1 173.0,116.8 173.4,146.5 173.7,162.8 174.1,147.8 174.4,152.1 174.8,149.6 175.1,147.2 175.2,148.6 175.5,147.1 175.8,153.2 176.2,153.3 176.6,149.0 176.9,153.8 177.3,152.6 177.6,148.6 178.0,117.5 178.3,153.2 178.7,147.6 179.0,144.6 179.4,150.0 179.8,151.7 180.1,145.1 180.5,160.9 180.8,154.0 188.1,149.1 200.0,146.3 200.9,144.5 219.0,153.3 230.1,144.0 232.1,149.9 240.7,151.7 244.7,146.9 245.0,145.1 245.4,148.1 245.7,161.1 246.1,166.1 246.4,153.8 246.8,144.9 247.1,146.3 247.5,163.3 247.9,151.7 248.2,150.7 248.6,153.5 248.9,154.8 249.3,154.1 249.6,147.8 250.0,146.6 250.4,167.7 250.7,151.0 251.1,165.8 251.4,153.0 251.8,155.3 252.1,164.7 252.5,151.8 252.8,161.6 253.2,157.7 253.6,155.5 254.0,160.7 254.3,149.5 254.6,146.7 255.0,152.7 255.3,147.6 255.7,149.2 256.0,154.0 256.4,149.4 256.8,146.6 257.1,148.6 257.5,162.3 257.8,146.2 258.2,156.8 258.5,145.4 258.9,149.9 259.3,152.7 259.6,147.1 260.0,147.4 260.3,155.3 260.7,146.8 261.0,145.1 261.4,162.1 261.7,136.4 262.1,154.3 262.5,143.1 262.8,147.6 263.2,147.4 263.5,151.4 263.9,151.7 264.2,154.3 264.6,155.3 265.0,154.0 265.3,146.2 265.7,161.6 266.0,151.0 266.4,149.2 266.7,149.2 267.1,152.3 267.5,148.9 267.8,154.3 268.2,146.1 268.5,151.7 268.9,157.7 269.2,151.8 269.4,149.0 269.6,160.9 269.9,155.2 270.7,151.7 271.0,151.1 271.4,153.0 271.7,149.4 272.1,143.1 273.9,148.9 275.3,161.8 276.0,157.7 276.7,149.9 277.4,149.2 278.5,154.5 279.2,150.4 279.9,151.7 280.3,143.2 280.6,154.3 281.0,154.1 281.3,156.8 281.7,145.5 282.0,151.7 282.4,148.0 282.7,150.7 283.1,151.3 283.5,152.0 283.8,148.5 284.2,148.1 284.5,156.6 284.9,144.9 285.2,148.2 285.6,151.3 285.9,152.3 286.3,149.5 286.7,165.2 287.0,153.3 287.4,147.5 287.7,152.0 288.1,155.2 288.4,155.0 288.8,151.1 289.1,155.7 289.5,144.2 289.9,159.6 290.2,158.3 290.6,157.3 290.9,147.1 291.3,170.4 291.6,150.8 292.0,161.4 292.3,146.4 292.7,142.4 293.1,149.1 293.3,150.0 293.4,153.2 293.8,154.3 294.1,145.2 294.5,146.6 294.8,142.0 295.2,163.1 295.5,146.7 295.9,147.4 296.3,164.4 296.6,143.9 297.0,148.9 297.3,154.0 297.7,147.1 298.0,150.6 298.4,151.0 298.7,149.0 299.1,151.7 299.5,159.3 299.8,144.3 300.2,161.1 300.5,162.6 300.9,152.1 301.2,146.7 301.6,154.8 301.9,152.6 302.3,144.7 302.7,151.8 303.0,160.0" fill="none" stroke="#4ecdc4" stroke-width="1.5" opacity="0.6"/>
<polyline points="303.7,157.3 304.1,154.6 304.4,101.9 304.8,164.9 305.1,146.7 305.5,152.7 305.9,153.2 306.2,151.5 306.6,146.4 306.9,150.4 307.3,146.3 307.6,147.8 308.0,152.3 308.3,146.9 308.7,149.1 309.1,152.3 309.4,164.7 309.8,154.3 310.1,152.3 310.5,148.6 310.8,158.1 311.2,152.1 311.5,149.9 311.9,146.3 312.3,152.0 312.6,160.9 313.0,160.4 313.3,150.8 313.7,148.7 314.0,172.3 314.4,150.4 314.7,155.0 315.1,143.9 315.5,146.7 315.8,154.1 316.2,155.9 316.5,149.9 316.9,153.5 317.2,151.4 317.6,146.7 317.9,167.0 318.3,155.5 318.7,147.8 319.0,150.3 319.4,153.8 319.7,152.3 320.1,154.0 320.4,148.6 320.8,163.9 321.1,152.4 321.5,144.1 321.9,154.1 322.2,149.2 322.6,153.8 322.9,146.8 323.3,145.8 323.6,153.3 324.0,152.4 324.3,145.3 324.7,148.5 325.1,159.3 325.4,146.5 325.8,152.0 326.1,146.4 326.5,157.0 326.8,154.6 327.2,147.8 327.5,153.5 327.9,150.8 328.3,151.8 328.6,169.0 329.0,164.1 329.3,139.6 329.7,153.3 330.0,149.8 330.4,150.6 330.7,144.9 331.1,153.0 331.5,155.7 331.8,154.5 332.2,153.7 332.6,151.7 332.9,160.9 333.2,147.8 333.6,143.9 333.9,151.8 334.3,152.9 334.7,151.3 335.0,150.2 335.4,151.5 335.7,155.3 336.1,150.6 336.4,144.5 336.8,150.3 337.2,146.7 337.5,150.4 337.9,143.7 338.2,160.7 338.6,151.0 338.9,159.1 339.3,153.8 339.6,158.3 340.0,162.6 340.4,150.2 340.7,156.2 341.1,150.7 341.4,150.0 341.8,154.5 342.1,157.9 342.5,149.6 342.8,147.9 343.2,166.1 343.6,152.9 343.9,148.9 344.3,151.3 344.6,153.8 345.0,140.7 345.3,145.7 345.7,162.6 346.0,147.8 346.4,151.7 346.8,146.3 347.1,145.9 347.5,167.0 347.8,137.7 348.2,148.2 348.5,159.1 348.9,155.2 349.3,118.3 349.4,146.2 349.6,146.1 350.0,142.5 350.3,145.6 350.7,146.7 351.0,147.2 351.4,155.2 351.7,151.8 352.1,151.4 352.5,146.1 352.8,161.1 353.2,146.2 353.5,148.1 353.9,162.1 354.2,155.3 354.6,157.7 354.9,151.1 355.3,158.5 355.7,151.8 356.0,157.0 356.4,160.4 356.7,162.1 357.1,163.9 357.4,147.2 357.8,147.8 358.1,152.7 358.5,145.3 358.9,150.3 359.2,146.1 359.6,144.8 359.9,149.6 360.3,147.5 360.6,145.2 361.0,154.0 361.3,162.1 361.7,149.6 362.1,146.5 362.4,148.0 362.8,148.5 363.1,144.8 363.5,150.4 363.8,146.4 364.2,165.8 364.5,151.5 364.9,147.1 365.3,161.1 365.6,146.7 366.0,64.6 366.3,148.7 366.7,151.7 367.0,161.6 367.5,149.0 367.8,148.9 368.1,145.2 368.5,162.3 368.8,142.0 369.2,161.6 369.5,148.9 369.9,149.4 370.2,149.4 370.6,146.8 371.0,155.3 371.3,150.7 371.7,104.1 372.0,145.5 372.2,161.6 372.4,150.6 372.7,152.3 373.1,150.6 373.4,155.5 373.8,147.2 374.2,152.0 374.5,150.0 374.9,150.3 375.2,147.1 375.6,165.2 375.9,125.4 376.3,151.3 376.6,147.9 377.0,145.5 377.4,172.8 377.7,146.6 378.1,144.8 378.4,147.1 378.8,157.1 379.1,151.1 379.5,147.8 379.8,148.4 380.2,141.8 380.6,147.4 380.9,151.7 381.3,148.7 381.6,145.5 382.0,144.2 382.3,153.7 382.7,148.0 383.0,150.6 383.4,145.5 383.8,152.6 384.1,157.1 384.5,144.2 384.8,163.1 385.2,148.7 385.5,152.7 385.9,156.0 386.2,154.0 386.6,153.5 387.0,144.9 387.3,152.4 387.7,153.5 388.0,147.5 388.4,152.1 388.7,148.6 388.8,154.0 389.1,149.1 389.4,167.3 389.8,150.7 390.2,152.3 390.5,152.3 390.9,151.3 391.2,151.3 391.6,146.9 391.9,157.1 392.3,147.4 392.6,150.2 393.0,155.3 393.4,148.4 393.8,151.1 394.1,152.3 394.4,152.6 394.8,142.7 395.1,161.1 395.5,159.3 395.8,162.6 396.2,151.3 396.6,149.8 396.9,148.7 397.3,149.0 397.6,148.5 398.0,148.9 398.3,148.0 398.7,153.7 399.0,157.9 399.4,148.9 399.8,152.3 400.1,153.8 400.5,144.1 400.8,158.5 401.2,145.8 401.5,150.4 401.9,166.4 402.2,149.2 402.6,142.0 402.7,147.1 403.0,169.3 403.3,150.4 403.7,160.2 404.0,163.3 404.4,150.8 404.7,145.7 405.1,153.2 405.4,142.2 405.8,154.8 406.2,144.2 406.5,166.7 406.9,162.3 407.2,153.8 407.6,150.8 407.9,149.1 408.3,164.7 408.6,152.9 409.0,148.7 409.4,151.8 409.7,148.0 410.1,167.7 410.4,158.1 410.8,154.0 411.1,149.9 411.5,155.3 411.8,148.5 412.2,163.9 412.6,164.4 412.9,152.7 413.3,152.1 413.6,156.4 414.0,144.7 414.3,153.7 414.7,146.4 415.0,159.1 415.4,161.6 415.8,143.9 416.1,146.9 416.5,154.0 416.8,163.3 417.2,159.1 417.5,148.2 417.9,160.9 418.2,146.5 418.6,145.5 419.0,142.4 419.3,163.9 419.7,146.1 420.0,155.2 420.4,151.8 420.7,151.7 421.1,149.9 421.4,151.3 421.8,167.3 422.2,148.1 422.5,170.0 422.9,150.3 423.2,159.6 423.6,158.1 423.9,153.8 424.3,150.6 424.6,148.7 425.0,154.5 425.4,150.0 425.7,159.1 426.1,150.0 426.4,149.4 426.8,163.6 427.1,151.7 427.5,161.8 427.9,148.0 428.2,161.8 428.6,159.8 428.9,144.6 429.3,151.4 429.6,167.7 430.0,154.3 430.3,150.8 430.7,150.3 430.9,151.0 431.1,148.6 431.4,145.0 431.8,164.4 432.1,147.5 432.5,155.0 432.8,146.3 433.2,49.1 433.5,161.4 433.9,163.1 434.3,155.0 434.6,144.8 435.0,139.9 435.3,149.9 435.7,161.6 436.0,148.5 436.4,144.5 436.7,151.5 437.1,148.1 437.5,152.9 437.8,152.1 438.2,155.5 438.5,151.3 438.9,155.7 439.2,150.2 439.6,157.0 439.9,151.4 440.3,149.1 440.7,145.3 441.0,170.4 441.4,149.1 441.7,148.4 442.1,160.0 442.5,146.1 442.8,143.9 443.1,162.1 443.5,134.6 443.9,154.3 444.2,149.4 444.6,151.5 444.9,167.0 445.3,153.0 445.6,148.0 446.0,148.0 446.3,153.3 446.7,147.3 447.1,156.2 447.4,146.1 447.8,143.9 448.1,162.1 448.5,170.8 448.8,154.0 449.2,153.5 449.6,153.7 449.9,163.1 450.3,150.3 450.6,145.0 451.0,147.6 451.3,153.0 451.7,148.5 452.0,147.8 452.4,164.9 452.8,164.4 453.1,119.4 453.5,162.6 453.8,156.6 454.2,151.0 454.5,162.6 454.9,152.4 455.2,150.8 455.6,146.6 456.0,153.2 456.3,145.1 457.4,151.3 457.7,148.2 458.1,145.7 458.4,160.2 458.8,169.3 459.2,158.5 459.5,160.0 459.9,147.2 460.2,146.2 460.6,148.4 460.9,140.3 461.8,166.1 462.0,146.2 462.2,146.8 462.6,149.0 462.9,153.7 463.3,145.0 463.6,146.2 464.0,148.1 465.0,151.4 465.4,138.8 465.8,145.4 466.1,149.8 466.5,144.0 466.9,146.2 467.2,152.4 467.5,150.4 467.9,146.6 468.2,139.2 468.6,153.8 469.0,144.1 469.3,165.5 469.7,162.8 470.0,150.0 470.4,140.1 470.7,155.2 471.1,151.5 471.4,150.3 471.8,151.7 472.2,145.3 472.5,148.9 472.9,152.9 473.2,164.1 473.6,154.5 473.9,164.1 474.3,149.9 474.6,146.8 475.0,147.6 475.4,168.0 475.7,153.0 476.1,147.1 476.4,164.4 476.8,149.2 477.1,152.3 477.5,168.3 477.9,151.4 478.2,168.0 478.6,153.2 478.9,149.4 479.3,153.2 479.6,148.5 480.0,149.9 480.3,148.9 480.7,149.1 481.0,165.2 482.8,150.6 483.1,151.1 483.5,153.3 483.6,152.4 483.8,153.2 484.2,149.9 484.5,162.6 484.9,155.9 485.3,147.2 485.6,153.7 486.0,147.8 486.3,141.2 486.7,155.9 487.0,161.6 487.4,152.4 487.7,152.0 488.1,157.5 488.5,167.7 488.8,154.6 489.2,163.9 489.5,161.8 489.9,154.1 490.2,156.4 490.6,148.7 490.9,149.6 491.3,147.6 491.7,145.8 492.0,165.2 492.4,157.9 492.7,154.5 493.1,150.0 493.4,145.8 493.8,148.5 494.1,169.3 494.5,168.3 494.9,164.9 495.2,162.8 495.6,148.9 495.9,167.7 496.3,145.3 496.6,150.0 497.0,151.3 497.3,148.1 497.7,145.5 498.1,149.0 498.4,144.2 498.8,149.6 499.1,147.6 499.5,154.8 499.5,159.6 526.1,152.6 557.3,148.0 581.5,161.8 598.5,136.8 624.4,146.9 633.6,145.4 633.9,152.7 634.3,155.5 634.6,149.2 634.9,162.6 635.3,154.1 635.6,148.9 636.0,150.0 636.3,149.1 636.7,150.4 637.1,146.4 637.4,144.8 637.8,145.9 638.1,146.8 638.5,154.1 638.8,146.2 639.2,153.7 639.5,160.4 639.9,147.9 640.3,161.4 640.6,147.1 641.0,147.5 641.3,145.4 641.7,148.4 642.0,162.1 642.4,145.6 642.7,150.3 643.1,140.3 643.5,148.5 643.8,162.1 644.2,145.9 644.5,151.1 644.9,149.4 645.2,155.3 645.6,150.2 645.9,148.6 646.3,147.8 646.7,147.1 647.0,149.0 647.4,149.1 647.7,99.7 648.1,171.2 648.4,138.7 648.8,161.1 649.1,159.6 649.5,146.6 649.9,150.7 650.2,146.7 650.6,150.7 650.9,152.1 651.3,162.1 651.6,148.7 652.0,146.1 652.3,153.5 652.7,150.6 653.1,150.3 653.4,158.7 653.8,152.1 654.1,152.9 654.5,140.2 654.6,145.1 654.8,143.2 655.2,152.6 655.6,160.7 655.9,154.3 656.3,148.4 656.6,149.1 657.0,157.5 657.3,143.8 657.7,146.2 658.0,162.1 658.4,155.3 658.8,149.0 659.1,153.7 659.5,143.3 659.8,153.3 660.2,145.0 660.5,149.0 660.9,151.1 661.2,144.2 661.6,146.6 662.0,145.1 662.3,144.2 662.7,146.4 663.0,148.5 663.4,163.3 663.7,152.3 664.1,155.3 664.4,148.6 664.8,150.0 665.2,153.5 665.5,153.2 665.9,151.1 666.2,153.5 666.6,154.3 666.9,148.1 667.3,160.2 667.7,152.4 668.0,148.9 668.4,147.9 668.7,150.3 669.1,161.8 669.4,143.9 669.8,148.0 670.1,144.4 670.5,164.7 670.8,159.8 671.2,164.9 671.6,146.5 671.9,152.0 672.3,156.2 672.6,169.0 673.0,74.4 673.3,157.5 673.7,154.0 674.1,147.5 674.4,153.3 674.8,155.5 675.1,163.3 675.5,151.3 675.8,143.1 676.2,146.1 676.5,147.6 676.9,153.7 677.3,148.9 677.6,146.6 677.9,152.1 678.0,145.3 678.3,158.5 678.7,152.9 679.0,160.9 679.4,146.4 679.7,150.6 680.1,144.6 680.5,141.5 680.8,153.0 681.2,148.5 681.5,147.8 681.9,149.2 682.2,165.8 682.6,144.8 682.9,161.8 683.3,148.2 683.7,154.8 684.0,144.9 684.4,146.8 684.7,152.0 685.1,145.5 685.5,147.4 685.9,145.3 686.3,147.6 687.0,149.8 687.2,155.9 687.9,149.8 688.3,148.1 688.6,154.8 689.0,148.7 689.3,155.2 689.7,164.7 690.1,152.0 690.4,149.8 690.8,158.5 691.1,154.3 691.5,161.4 691.8,165.2 692.2,149.1 692.6,152.3 692.9,148.9 693.3,151.8 693.6,162.3 694.0,151.1 694.3,157.5 694.7,155.0 695.0,148.5 695.4,152.6 695.7,152.3 696.1,145.7 696.5,154.1 696.8,148.4 697.2,154.6 697.5,152.7 697.9,147.6 698.2,151.5 698.6,153.2 698.9,153.7 699.3,164.1 699.7,149.5 700.0,163.3 700.4,168.3 700.7,152.4 701.1,155.7 701.4,142.1 701.8,164.7 702.1,157.3 702.5,149.0 702.9,157.3 703.2,143.9 703.6,147.5 703.9,148.4 704.3,146.3 704.6,157.1 705.0,148.4 705.3,152.1 705.7,138.2 706.1,150.3 706.4,157.7 706.8,157.5 707.1,154.1 707.5,162.3 707.8,152.0 708.2,149.8 708.2,137.4 708.5,151.5 708.9,171.9 709.3,168.6 709.6,165.8 710.0,153.7 710.3,162.8 710.7,98.9 711.0,161.8 711.4,149.2 711.7,148.5 712.1,164.9 712.5,169.7 712.8,152.9 713.2,136.8 713.5,154.3 713.9,152.0 714.2,151.8 714.6,148.4 714.9,146.8 715.3,149.6 715.6,145.7 716.0,159.6 716.4,152.0 716.7,164.7 717.1,148.5 717.4,163.6 717.8,146.4 718.1,147.3 718.5,149.6 718.9,149.9 719.2,144.5 719.6,153.5 719.9,163.9 720.3,152.4 720.6,146.5 721.0,148.7 721.3,149.9 721.7,147.5 722.0,156.8 722.4,147.8 722.8,146.8 723.1,159.3 723.5,151.5 723.8,151.4 724.2,161.1 724.5,157.3 724.9,149.8 725.3,144.9 725.6,150.0 726.0,145.3 726.3,164.9 726.7,154.3 727.0,151.7 727.4,152.7 727.7,150.0 728.1,157.9 728.4,151.3 728.8,150.8 729.2,152.9 729.5,152.1 729.9,168.6 730.2,89.5 730.6,148.9 730.9,147.2 731.3,148.4 731.6,165.5 732.0,147.6 732.4,147.4 732.7,164.4 733.1,150.8 733.4,150.2 733.8,149.8 734.1,157.0 734.5,162.8 734.8,151.3 735.2,163.6 735.3,153.2 735.6,151.1 735.9,120.6 736.3,145.6 736.6,148.7 737.0,151.0 737.3,158.9 737.7,150.0 738.0,157.0 738.4,153.5 738.8,165.5 739.1,160.4 739.5,149.8 739.8,145.9 740.2,156.6 740.5,148.0 740.9,154.0 741.2,145.5 741.6,145.3 742.0,149.8 742.3,145.7 742.7,149.5 743.0,147.8 743.4,168.6 743.7,167.0 744.1,148.9 744.5,150.4 744.8,119.3 745.2,158.7 745.5,163.6 745.9,150.8 746.2,150.4 746.6,157.0 746.9,162.6 747.3,152.6 747.6,151.5 748.0,150.0 748.4,157.9 748.7,153.3 749.1,152.1 749.4,151.5 749.8,148.4 750.1,145.9 750.5,152.7 750.8,152.9 751.2,161.6 751.6,163.1 751.9,146.2 752.3,150.2 752.6,155.3 753.0,163.6 753.3,163.6 753.7,169.0 754.0,151.7 754.4,149.6 754.8,163.6 755.1,147.4 755.5,166.4 755.8,145.8 756.2,143.8 756.5,168.0 756.9,169.0 757.2,149.5 757.6,146.1 757.9,163.3 758.3,146.5 758.7,145.7 759.0,152.3 759.4,146.5 759.7,146.2 760.1,145.3 760.4,146.2 760.8,146.3 761.2,151.3 761.5,162.1 761.8,148.4 762.2,148.0 762.6,147.1 762.9,151.1 763.3,149.6 763.6,149.2 764.0,145.5 764.4,161.4 764.7,152.3 765.1,168.3 765.4,149.4 765.8,151.4 766.1,150.6 766.5,154.5 766.8,158.1 767.2,151.1 767.6,167.7 767.9,152.9 768.3,136.9 768.6,147.8 769.0,150.3 769.3,140.8 769.7,147.2 770.0,158.3 770.4,155.7 770.7,145.5 771.1,151.5 771.5,162.3 771.8,151.7 772.2,155.3 772.5,149.5 772.9,169.3 773.2,165.8 773.6,161.1 774.0,164.4 774.3,164.4 774.7,157.7 775.0,145.6 775.4,169.3 775.7,158.7 776.1,147.8 776.4,152.6 776.8,152.7 777.2,170.8 777.5,149.1 777.9,148.7 778.2,148.5 778.6,78.2 778.9,65.1 779.1,57.5 779.3,159.1 779.6,149.2 780.0,152.3" fill="none" stroke="#4ecdc4" stroke-width="1.5" opacity="0.6"/>
<polyline points="70.1,148.2 70.5,136.3 70.8,154.1 71.2,138.8 71.6,140.2 71.9,157.1 72.3,135.3 72.6,148.9 73.0,135.2 73.4,155.9 73.7,136.9 74.1,147.2 74.4,136.2 74.8,140.3 75.1,153.7 75.5,120.5 75.8,135.8 76.2,134.2 76.5,155.9 76.9,138.7 77.3,136.4 77.6,138.4 78.0,138.2 78.3,141.8 78.7,158.1 79.0,141.7 80.0,119.1 80.5,149.6 81.1,140.2 81.5,157.5 81.9,157.9 82.2,135.9 82.6,142.9 82.9,145.5 83.3,139.1 83.6,156.6 84.0,144.7 84.3,139.6 84.7,149.0 85.1,147.9 85.4,155.9 85.8,149.1 86.1,154.1 86.5,135.4 86.8,146.4 87.2,146.7 87.5,156.8 87.9,124.4 88.3,146.4 88.6,158.3 89.0,144.9 89.3,136.6 89.7,140.1 90.0,156.8 90.4,136.6 90.8,157.9 91.1,141.1 91.5,149.1 91.8,153.5 92.2,157.7 92.5,157.9 92.9,148.9 93.2,146.6 93.6,157.0 93.9,145.7 94.3,157.1 94.7,136.1 95.0,149.2 95.4,139.1 95.7,141.3 96.0,136.7 96.1,138.4 96.4,137.9 96.8,139.1 97.1,143.7 97.5,149.0 97.9,138.5 98.2,155.5 98.6,132.5 98.9,145.7 99.3,157.0 99.6,143.7 100.0,145.3 100.3,140.8 100.7,155.9 101.1,143.5 101.4,157.3 101.8,156.2 102.1,156.2 102.5,155.9 102.9,155.9 103.2,157.9 103.5,157.7 103.9,137.6 104.3,141.4 104.6,146.1 105.0,147.2 105.3,138.4 105.7,157.3 106.0,145.6 106.4,141.8 106.7,137.0 107.1,156.2 107.4,144.7 107.8,145.7 108.2,136.5 108.5,145.6 108.9,156.0 109.2,137.8 109.6,150.0 109.9,149.6 110.3,158.9 110.7,135.1 111.0,145.0 111.4,154.8 111.7,135.9 112.1,141.0 112.4,156.0 112.8,141.8 113.1,141.6 113.5,139.1 113.9,133.8 114.2,145.8 114.6,139.2 114.9,136.9 115.3,156.6 115.6,158.9 116.0,155.3 116.3,156.6 116.7,136.0 117.0,148.7 117.4,140.1 117.8,143.4 118.1,129.1 118.5,153.8 118.8,157.9 119.2,145.9 119.5,153.8 119.9,138.9 120.1,138.4 120.2,148.6 120.6,146.5 121.0,155.7 121.3,136.2 142.1,155.7 142.5,155.5 142.8,150.4 143.2,135.0 143.5,154.8 143.9,138.2 144.8,147.2 145.2,147.9 145.5,146.7 145.9,146.5 146.3,120.8 146.7,144.4 147.0,137.9 147.4,135.3 147.8,134.9 148.1,138.7 148.5,147.6 148.8,158.1 149.2,135.7 149.5,157.7 149.9,137.7 150.2,148.9 150.6,150.3 151.0,145.8 151.3,149.8 151.7,145.5 152.0,138.2 152.4,157.5 152.7,144.5 153.1,148.1 153.4,149.2 153.8,144.8 154.2,157.9 154.5,154.0 154.9,143.4 155.2,136.1 155.6,155.5 155.9,159.3 156.3,157.3 156.6,143.0 157.0,136.1 157.4,141.3 157.7,136.5 158.1,136.4 158.4,139.8 158.8,137.1 159.1,145.6 159.5,145.0 159.8,135.4 160.2,146.3 160.5,156.2 160.9,141.3 161.3,140.4 161.6,137.9 162.0,138.2 162.4,136.1 162.7,157.3 163.0,145.9 163.4,159.1 163.6,143.6 163.7,156.8 164.1,135.6 164.5,138.8 164.8,138.1 165.2,136.5 165.5,134.4 165.9,143.9 166.2,157.1 166.6,149.1 167.0,136.3 167.3,147.1 167.7,139.2 168.0,150.6 168.4,157.1 168.7,146.2 169.1,141.6 169.4,141.7 169.8,145.3 170.1,156.4 170.5,145.4 170.9,142.5 171.2,149.9 171.6,144.0 171.9,135.5 172.3,146.6 172.6,154.1 173.0,130.7 173.4,139.4 173.7,154.6 174.1,136.1 174.4,147.5 174.8,148.7 175.1,134.6 175.2,144.3 175.5,134.6 175.8,144.4 176.2,136.0 176.6,136.1 176.9,137.2 177.3,140.2 177.6,138.0 178.0,136.9 178.3,136.5 178.7,136.1 179.0,126.7 179.4,143.5 179.8,135.7 180.1,138.0 180.5,154.8 180.8,156.2 188.1,136.3 200.0,140.3 200.9,140.6 219.0,149.4 230.1,142.0 232.1,146.3 240.7,157.3 244.7,138.4 245.0,141.2 245.4,154.8 245.7,158.3 246.1,157.9 246.4,157.7 246.8,140.2 247.1,135.1 247.5,157.3 247.9,136.2 248.2,144.7 248.6,156.6 248.9,146.8 249.3,155.7 249.6,135.2 250.0,138.4 250.4,156.6 250.7,143.8 251.1,155.2 251.4,136.2 251.8,145.4 252.1,157.1 252.5,145.3 252.8,150.7 253.2,149.5 253.6,150.8 254.0,153.8 254.3,145.2 254.6,136.6 255.0,150.4 255.3,138.8 255.7,133.9 256.0,147.1 256.4,138.9 256.8,136.7 257.1,142.8 257.5,154.0 257.8,140.2 258.2,144.4 258.5,150.8 258.9,145.8 259.3,154.3 259.6,139.9 260.0,136.6 260.3,149.9 260.7,133.9 261.0,139.8 261.4,157.1 261.7,128.0 262.1,154.8 262.5,134.4 262.8,136.2 263.2,138.3 263.5,142.6 263.9,154.1 264.2,136.1 264.6,146.3 265.0,143.8 265.3,135.8 265.7,158.5 266.0,141.2 266.4,136.5 266.7,137.6 267.1,138.4 267.5,138.2 267.8,135.7 268.2,137.8 268.5,153.0 268.9,155.0 269.2,156.2 269.4,138.3 269.6,155.2 269.9,147.9 270.7,145.2 271.0,154.3 271.4,144.3 271.7,138.2 272.1,134.5 273.9,137.1 275.3,151.7 276.0,148.1 276.7,140.7 277.4,135.1 278.5,156.2 279.2,136.3 279.9,136.6 280.3,134.8 280.6,136.6 281.0,147.8 281.3,156.2 281.7,137.7 282.0,136.5 282.4,138.2 282.7,136.7 283.1,146.2 283.5,136.2 283.8,137.1 284.2,135.2 284.5,144.6 284.9,135.3 285.2,127.2 285.6,135.0 285.9,144.0 286.3,144.2 286.7,154.3 287.0,142.7 287.4,138.1 287.7,135.5 288.1,148.5 288.4,145.7 288.8,143.9 289.1,157.1 289.5,140.8 289.9,148.1 290.2,149.8 290.6,146.3 290.9,137.9 291.3,152.7 291.6,147.1 292.0,149.6 292.3,140.9 292.7,143.9 293.1,135.2 293.3,146.5 293.4,157.1 293.8,144.9 294.1,139.6 294.5,137.7 294.8,137.7 295.2,158.5 295.5,137.2 295.9,137.7 296.3,155.9 296.6,139.9 297.0,136.1 297.3,145.8 297.7,142.3 298.0,136.1 298.4,145.2 298.7,146.1 299.1,134.5 299.5,149.5 299.8,137.4 300.2,155.0 300.5,155.5 300.9,136.9 301.2,141.6 301.6,155.9 301.9,135.9 302.3,135.9 302.7,154.3 303.0,157.7 303.4,157.0 303.7,148.1 304.1,154.3 304.4,155.5 304.8,158.7 305.1,142.3 305.5,146.8 305.9,136.8 306.2,145.5 306.6,136.5 306.9,140.5 307.3,138.2 307.6,138.2 308.0,145.1 308.3,135.3 308.7,138.4 309.1,154.1 309.4,156.6 309.8,136.9 310.1,146.6 310.5,148.1 310.8,147.8 311.2,155.7 311.5,145.1 311.9,138.4 312.3,136.7 312.6,151.8 313.0,154.8 313.3,136.7 313.7,134.9 314.0,157.7 314.4,144.8 314.7,140.8 315.1,134.2 315.5,141.2 315.8,148.5 316.2,148.0 316.5,144.3 316.9,157.9 317.2,138.0 317.6,135.6 317.9,157.9 318.3,150.3 318.7,124.4 319.0,136.3 319.4,147.8 319.7,144.6 320.1,156.4 320.4,138.6 320.8,157.3 321.1,145.2 321.5,141.5 321.9,143.8 322.2,137.7 322.6,137.5 322.9,141.0 323.3,126.5 323.6,135.4 324.0,145.8 324.3,135.9 324.7,135.2 325.1,149.1 325.4,137.4 325.8,136.1 326.1,137.9 326.5,143.9 326.8,158.1 327.2,141.6 327.5,155.7 327.9,143.9 328.3,145.0 328.6,157.9 329.0,151.7 329.3,138.3 329.7,145.5 330.0,138.2 330.4,135.9 330.7,141.2 331.1,144.3 331.5,150.6 331.8,146.9 332.2,135.7 332.6,136.9 332.9,154.6 333.2,137.9 333.6,134.2 333.9,155.9 334.3,136.9 334.7,143.7 335.0,145.3 335.4,146.6 335.7,148.5 336.1,136.4 336.4,135.9 336.8,135.5 337.2,136.2 337.5,138.3 337.9,136.6 338.2,149.5 338.6,146.5 338.9,157.5 339.3,158.5 339.6,144.9 340.0,154.6 340.4,136.8 340.7,155.0 341.1,151.0 341.4,137.6 341.8,157.7 342.1,154.5 342.5,144.4 342.8,137.8 343.2,156.0 343.6,155.3 343.9,137.7 344.3,144.8 344.6,142.6 345.0,136.9 345.3,139.5 345.7,148.0 346.0,139.1 346.4,136.3 346.8,138.3 347.1,137.8 347.5,153.0 347.8,136.2 348.2,138.2 348.5,142.9 348.9,144.2 349.3,134.5 349.4,134.2 349.6,134.0 350.0,135.6 350.3,135.2 350.7,138.2 351.0,142.1 351.4,142.0 351.7,142.0 352.1,136.2 352.5,135.7 352.8,155.9 353.2,137.0 353.5,143.3 353.9,158.3 354.2,146.1 354.6,149.4 354.9,144.7 355.3,157.9 355.7,135.3 356.0,155.3 356.4,155.5 356.7,154.6 357.1,155.9 357.4,137.9 357.8,141.8 358.1,136.4 358.5,133.7 358.9,134.7 359.2,139.7 359.6,136.1 359.9,144.8 360.3,141.5 360.6,138.2 361.0,150.4 361.3,157.1 361.7,137.4 362.1,134.9 362.4,132.7 362.8,135.9 363.1,137.3 363.5,146.1 363.8,140.3 364.2,157.7 364.5,146.6 364.9,136.6 365.3,156.8 365.6,143.7 366.0,141.2 366.3,143.4 366.7,142.8 367.0,157.7 367.5,137.8 367.8,137.9 368.1,140.2 368.5,157.3 368.8,136.1 369.2,156.8 369.5,135.8 369.9,144.2 370.2,143.2 370.6,145.3 371.0,142.9 371.3,136.0 371.7,132.8 372.0,138.0 372.2,154.8 372.4,138.3 372.7,147.5 373.1,136.9 373.4,145.3 373.8,145.3 374.2,136.6 374.5,136.2 374.9,138.7 375.2,141.1 375.6,154.8 375.9,132.6 376.3,141.1 376.6,137.1 377.0,137.1 377.4,156.0 377.7,136.3 378.1,132.9 378.4,141.0 378.8,146.9 379.1,142.8 379.5,140.5 379.8,143.5 380.2,139.0 380.6,138.0 380.9,155.5 381.3,135.9 381.6,139.4 382.0,135.8 382.3,136.3 382.7,137.7 383.0,135.5 383.4,135.1 383.8,147.1 384.1,154.8 384.5,134.9 384.8,155.3 385.2,142.7 385.5,136.5 385.9,145.6 386.2,135.5 386.6,135.8 387.0,140.2 387.3,128.9 387.7,145.0 388.0,138.2 388.4,135.7 388.7,144.9 388.8,152.4 389.1,143.0 389.4,157.9 389.8,145.9 390.2,132.2 390.5,145.2 390.9,139.1 391.2,135.7 391.6,137.0 391.9,155.2 392.3,136.7 392.6,146.1 393.0,148.5 393.4,138.4 393.8,134.8 394.1,145.6 394.4,149.4 394.8,134.1 395.1,149.4 395.5,156.6 395.8,155.3 396.2,142.4 396.6,135.1 396.9,145.9 397.3,138.2 397.6,137.6 398.0,138.2 398.3,141.2 398.7,154.8 399.0,152.3 399.4,138.5 399.8,136.5 400.1,156.8 400.5,138.0 400.8,148.7 401.2,137.8 401.5,138.3 401.9,158.1 402.2,138.6 402.6,134.7 402.7,138.4 403.0,156.4 403.3,146.3 403.7,150.6 404.0,154.0 404.4,135.9 404.7,137.2 405.1,151.4 405.4,134.1 405.8,157.5 406.2,134.5 406.5,154.6 406.9,157.3 407.2,136.5 407.6,137.6 407.9,136.9 408.3,154.5 408.6,149.4 409.0,143.6 409.4,143.6 409.7,134.7 410.1,157.7 410.4,146.1 410.8,156.2 411.1,138.4 411.5,158.3 411.8,144.6 412.2,157.3 412.6,158.3 412.9,144.2 413.3,136.9 413.6,148.1 414.0,133.2 414.3,146.4 414.7,127.8 415.0,155.5 415.4,119.8 415.8,142.5 416.1,139.4 416.5,135.9 416.8,156.2 417.2,148.4 417.5,137.3 417.9,146.5 418.2,137.1 418.6,141.3 419.0,134.2 419.3,158.9 419.7,140.7 420.0,146.8 420.4,144.1 420.7,145.0 421.1,135.9 421.4,146.1 421.8,154.5 422.2,129.8 422.5,157.3 422.9,143.7 423.2,151.0 423.6,155.2 423.9,136.0 424.3,137.5 424.6,146.6 425.0,148.5 425.4,138.8 425.7,155.3 426.1,144.9 426.4,145.9 426.8,157.3 427.1,149.2 427.5,155.5 427.9,143.4 428.2,156.6 428.6,153.3 428.9,140.6 429.3,144.5 429.6,157.1 430.0,142.9 430.3,147.2 430.7,143.8 430.9,144.9 431.1,138.2 431.4,137.5 431.8,156.4 432.1,144.1 432.5,145.2 432.8,139.8 433.2,153.0 433.5,157.0 433.9,157.9 434.3,149.6 434.6,137.8 435.0,141.9 435.3,134.3 435.7,157.1 436.0,145.5 436.4,140.7 436.7,144.5 437.1,134.4 437.5,136.1 437.8,145.7 438.2,145.7 438.5,135.3 438.9,138.3 439.2,145.5 439.6,148.6 439.9,144.0 440.3,137.4 440.7,134.7 441.0,156.0 441.4,138.0 441.7,139.8 442.1,144.1 442.5,137.4 442.8,139.1 443.1,153.5 443.5,151.4 443.9,146.1 444.2,137.9 444.6,145.0 444.9,155.2 445.3,135.0 445.6,144.7 446.0,139.6 446.3,158.5 446.7,134.4 447.1,147.2 447.4,146.6 447.8,153.5 448.1,155.9 448.5,154.1 448.8,157.1 449.2,136.7 449.6,144.0 449.9,155.9 450.3,141.6 450.6,143.2 451.0,135.0 451.3,147.2 451.7,141.8 452.0,137.9 452.4,142.2 452.8,154.3 453.1,144.1 453.5,153.3 453.8,155.7 454.2,136.2 454.5,154.6 454.9,157.7 455.2,134.4 455.6,137.2 456.0,149.8 456.3,139.4 457.4,144.6 457.7,137.8 458.1,136.9 458.4,156.2 458.8,156.0 459.2,147.6 459.5,148.4 459.9,138.4 460.2,140.2 460.6,145.5 460.9,149.1 461.8,150.8 462.0,135.0 462.2,137.8 462.6,135.6 462.9,153.0 463.3,135.0 463.6,134.5 464.0,136.5 465.0,136.1 465.4,143.5 465.8,134.4 466.1,145.4 466.5,138.5 466.9,131.2 467.2,133.3 467.5,143.6 467.9,134.9 468.2,135.5 468.6,147.8 469.0,135.2 469.3,155.9 469.7,149.1 470.0,144.9 470.4,146.2 470.7,145.0 471.1,134.9 471.4,143.2 471.8,142.0 472.2,136.5 472.5,138.4 472.9,136.2 473.2,154.0 473.6,150.3 473.9,155.7 474.3,145.3 474.6,148.0 475.0,138.9 475.4,155.2 475.7,135.4 476.1,141.3 476.4,149.6 476.8,144.3 477.1,135.8 477.5,156.8 477.9,146.1 478.2,155.5 478.6,149.0 478.9,139.6 479.3,137.1 479.6,135.0 480.0,157.3 480.3,142.7 480.7,137.9 481.0,154.3 482.8,135.7 483.1,136.1 483.5,142.0 483.6,155.7 483.8,135.6 484.2,136.3 484.5,154.8 484.9,153.7 485.3,143.2 485.6,135.5 486.0,129.9 486.3,124.5 486.7,143.5 487.0,156.2 487.4,158.7 487.7,142.4 488.1,151.8 488.5,158.1 488.8,143.0 489.2,155.9 489.5,157.3 489.9,140.8 490.2,148.2 490.6,136.9 490.9,136.0 491.3,137.1 491.7,135.8 492.0,156.4 492.4,147.4 492.7,145.7 493.1,135.6 493.4,134.7 493.8,142.0 494.1,155.9 494.5,156.4 494.9,156.4 495.2,147.4 495.6,137.3 495.9,157.7 496.3,141.0 496.6,138.6 497.0,146.6 497.3,136.1 497.7,136.1 498.1,143.6 498.4,135.9 498.8,145.6 499.1,131.5 499.5,135.8 499.5,149.2 526.1,136.5 557.3,140.2 581.5,154.5 598.5,138.1 624.4,138.7 633.6,134.7 633.9,136.1 634.3,157.3 634.6,144.3 634.9,153.5 635.3,150.0 635.6,137.6 636.0,141.5 636.3,155.0 636.7,136.9 637.1,138.1 637.4,133.9 637.8,140.9 638.1,138.3 638.5,156.4 638.8,139.4 639.2,157.1 639.5,147.2 639.9,138.1 640.3,157.3 640.6,141.7 641.0,141.2 641.3,142.8 641.7,144.7 642.0,157.5 642.4,139.0 642.7,142.7 643.1,135.2 643.5,142.3 643.8,157.9 644.2,138.8 644.5,139.1 644.9,147.8 645.2,141.8 645.6,138.2 645.9,137.4 646.3,145.2 646.7,134.5 647.0,136.6 647.4,139.1 647.7,143.3 648.1,156.2 648.4,137.6 648.8,147.1 649.1,155.3 649.5,145.1 649.9,138.0 650.2,142.2 650.6,137.0 650.9,138.4 651.3,153.8 651.6,143.6 652.0,138.0 652.3,154.3 652.7,137.9 653.1,136.2 653.4,143.7 653.8,148.9 654.1,154.5 654.5,138.0 654.6,135.3 654.8,137.7 655.2,136.9 655.6,157.3 655.9,136.1 656.3,142.0 656.6,142.7 657.0,154.6 657.3,137.8 657.7,140.0 658.0,158.7 658.4,158.1 658.8,135.9 659.1,142.0 659.5,138.7 659.8,157.0 660.2,145.4 660.5,141.4 660.9,135.1 661.2,131.3 661.6,134.0 662.0,135.5 662.3,134.0 662.7,137.8 663.0,137.6 663.4,154.3 663.7,133.4 664.1,132.7 664.4,137.2 664.8,133.9 665.2,155.7 665.5,135.5 665.9,152.0 666.2,157.1 666.6,144.3 666.9,137.1 667.3,146.9 667.7,156.0 668.0,144.7 668.4,137.9 668.7,142.0 669.1,156.6 669.4,142.3 669.8,143.9 670.1,138.3 670.5,151.5 670.8,156.2 671.2,155.9 671.6,138.4 671.9,142.2 672.3,148.6 672.6,156.8 673.0,137.0 673.3,148.7 673.7,143.9 674.1,138.8 674.4,135.3 674.8,136.1 675.1,156.2 675.5,134.4 675.8,138.1 676.2,144.1 676.5,143.0 676.9,134.8 677.3,137.9 677.6,137.6 677.9,135.8 678.0,135.0 678.3,155.2 678.7,154.5 679.0,152.6 679.4,138.4 679.7,148.2 680.1,144.0 680.5,155.7 680.8,152.6 681.2,144.1 681.5,138.2 681.9,143.8 682.2,158.1 682.6,144.7 682.9,156.6 683.3,139.8 683.7,156.0 684.0,155.9 684.4,120.4 684.7,149.9 685.1,104.1 685.5,40.0" fill="none" stroke="#ff6b6b" stroke-width="1.5" opacity="0.6"/>
<polyline points="687.2,43.5 687.9,155.9 688.3,138.6 688.6,151.4 689.0,141.8 689.3,136.5 689.7,152.7 690.1,143.5 690.4,138.7 690.8,156.4 691.1,142.4 691.5,155.7 691.8,153.8 692.2,142.4 692.6,136.0 692.9,142.8 693.3,139.4 693.6,154.8 694.0,149.8 694.3,149.0 694.7,157.9 695.0,145.8 695.4,149.2 695.7,141.4 696.1,135.8 696.5,141.5 696.8,141.8 697.2,154.5 697.5,134.2 697.9,134.8 698.2,138.5 698.6,146.7 698.9,137.6 699.3,154.3 699.7,136.0 700.0,153.8 700.4,156.4 700.7,148.2 701.1,149.8 701.4,128.0 701.8,156.4 702.1,154.0 702.5,143.5 702.9,149.8 703.2,141.8 703.6,141.2 703.9,139.4 704.3,134.5 704.6,153.5 705.0,132.9 705.3,142.9 705.7,134.0 706.1,141.2 706.4,147.5 706.8,148.7 707.1,135.5 707.5,158.3 707.8,138.3 708.2,145.6 708.2,136.4 708.5,140.5 708.9,158.5 709.3,156.6 709.6,145.6 710.0,143.5 710.3,156.4 710.7,138.6 711.0,157.5 711.4,141.5 711.7,137.1 712.1,157.1 712.5,157.3 712.8,136.7 713.2,140.3 713.5,154.6 713.9,145.3 714.2,135.2 714.6,138.5 714.9,142.8 715.3,155.7 715.6,143.6 716.0,155.5 716.4,142.2 716.7,155.9 717.1,136.2 717.4,157.0 717.8,138.5 718.1,145.1 718.5,145.5 718.9,136.7 719.2,139.1 719.6,148.5 719.9,156.2 720.3,136.6 720.6,137.9 721.0,137.0 721.3,144.1 721.7,138.4 722.0,155.9 722.4,135.3 722.8,133.3 723.1,148.4 723.5,142.3 723.8,135.3 724.2,153.8 724.5,154.1 724.9,137.9 725.3,135.0 725.6,143.3 726.0,135.3 726.3,153.0 726.7,141.7 727.0,142.1 727.4,143.7 727.7,137.1 728.1,155.9 728.4,153.5 728.8,144.1 729.2,145.4 729.5,145.6 729.9,158.5 730.2,138.5 730.6,144.5 730.9,135.2 731.3,143.5 731.6,156.8 732.0,139.4 732.4,138.3 732.7,155.5 733.1,142.7 733.4,138.9 733.8,144.2 734.1,149.8 734.5,157.0 734.8,156.0 735.2,157.3 735.3,142.6 735.6,144.7 735.9,147.9 736.3,141.8 736.6,137.5 737.0,145.1 737.3,154.6 737.7,138.0 738.0,144.3 738.4,136.3 738.8,155.7 739.1,148.0 739.5,142.3 739.8,141.2 740.2,142.7 740.5,136.3 740.9,154.5 741.2,140.6 741.6,139.8 742.0,143.4 742.3,134.4 742.7,145.5 743.0,138.5 743.4,157.3 743.7,159.3 744.1,143.4 744.5,138.5 744.8,141.2 745.2,151.1 745.5,157.1 745.9,144.4 746.2,136.3 746.6,156.6 746.9,156.2 747.3,136.8 747.6,145.8 748.0,142.9 748.4,155.9 748.7,141.3 749.1,136.1 749.4,135.4 749.8,138.9 750.1,136.0 750.5,144.5 750.8,142.7 751.2,156.4 751.6,152.7 751.9,135.3 752.3,144.9 752.6,143.5 753.0,156.4 753.3,156.2 753.7,156.8 754.0,136.3 754.4,137.9 754.8,141.5 755.1,141.8 755.5,157.0 755.8,136.5 756.2,133.5 756.5,156.4 756.9,152.1 757.2,140.2 757.6,142.2 757.9,156.6 758.3,136.7 758.7,140.9 759.0,145.3 759.4,143.5 759.7,138.3 760.1,142.6 760.4,142.6 760.8,140.2 761.2,135.6 761.5,149.1 761.8,138.1 762.2,141.9 762.6,138.5 762.9,138.1 763.3,143.8 763.6,138.4 764.0,138.4 764.4,155.7 764.7,143.1 765.1,157.7 765.4,137.1 765.8,143.0 766.1,133.9 766.5,157.0 766.8,154.8 767.2,135.9 767.6,156.2 767.9,156.6 768.3,141.2 768.6,138.1 769.0,142.8 769.3,149.4 769.7,134.2 770.0,152.0 770.4,144.8 770.7,134.5 771.1,143.2 771.5,155.7 771.8,135.8 772.2,143.6 772.5,154.3 772.9,155.3 773.2,157.5 773.6,153.3 774.0,152.1 774.3,156.0 774.7,149.6 775.0,140.5 775.4,157.0 775.7,155.7 776.1,138.1 776.4,148.2 776.8,155.3 777.2,158.9 777.5,138.6 777.9,138.4 778.2,139.9 778.6,135.8 778.9,155.2 779.1,138.1 779.3,152.0 779.6,144.2 780.0,135.4" fill="none" stroke="#ff6b6b" stroke-width="1.5" opacity="0.6"/>
<line x1="303.4" y1="40" x2="303.4" y2="250" stroke="#4ecdc4" stroke-width="1.5" stroke-dasharray="4,3" opacity="0.7"/>
<line x1="685.9" y1="40" x2="685.9" y2="250" stroke="#ff6b6b" stroke-width="1.5" stroke-dasharray="4,3" opacity="0.7"/>
<line x1="686.3" y1="40" x2="686.3" y2="250" stroke="#ff6b6b" stroke-width="1.5" stroke-dasharray="4,3" opacity="0.7"/>
<line x1="687.0" y1="40" x2="687.0" y2="250" stroke="#ff6b6b" stroke-width="1.5" stroke-dasharray="4,3" opacity="0.7"/>
<circle cx="660" cy="50" r="4" fill="#4ecdc4"/><text x="670" y="50" fill="#e0e0e0" dominant-baseline="middle">Hub API</text>
<circle cx="660" cy="68" r="4" fill="#ff6b6b"/><text x="670" y="68" fill="#e0e0e0" dominant-baseline="middle">Registry</text>
<line x1="656" y1="82" x2="664" y2="82" stroke="#e0e0e0" stroke-width="1.5" stroke-dasharray="4,3" opacity="0.7"/><text x="670" y="86" fill="#e0e0e0" dominant-baseline="middle">Timeout</text>
<text x="70" y="288" fill="#4ecdc4" font-size="11">min: 47ms  max: 23571ms  avg: 202ms  timeouts: 1  first: Oct 06 02:51  last: Oct 06 02:51</text>
<text x="70" y="304" fill="#ff6b6b" font-size="11">min: 94ms  max: 37235ms  avg: 265ms  timeouts: 3  first: Oct 09 21:21  last: Oct 09 21:37</text>
</svg>
